{"glyphs":{"0":{"ha":836,"x_min":92,"x_max":785,"o":"m 114 496 q 249 865 157 735 q 526 994 340 994 q 725 919 665 994 q 785 704 785 843 q 763 496 785 615 q 628 124 721 256 q 349 -7 535 -7 q 151 68 210 -7 q 92 282 92 143 q 114 496 92 374 m 700 496 q 722 701 722 615 q 675 876 722 815 q 517 938 628 938 q 341 881 408 938 q 236 730 274 825 q 175 496 199 635 q 153 289 153 376 q 200 112 153 174 q 358 50 247 50 q 533 107 465 50 q 638 260 601 164 q 700 496 675 356 z "},"1":{"ha":360,"x_min":106,"x_max":343,"o":"m 126 924 l 138 981 l 343 981 l 169 0 l 106 0 l 269 924 l 126 924 z "},"2":{"ha":792,"x_min":3,"x_max":758,"o":"m 10 46 q 483 394 303 226 q 690 714 663 563 q 696 772 696 740 q 650 896 696 850 q 503 942 604 942 q 305 868 382 942 q 197 674 228 794 l 136 674 q 273 911 172 826 q 513 996 374 996 q 690 942 622 996 q 758 782 758 889 q 753 717 758 749 q 532 368 722 544 q 114 57 342 192 l 668 57 l 658 4 l 3 4 l 10 46 z "},"3":{"ha":806,"x_min":47,"x_max":767,"o":"m 149 729 q 282 928 183 856 q 522 1000 381 1000 q 704 944 642 1000 q 767 799 767 889 q 763 753 767 776 q 681 599 746 664 q 501 522 615 535 l 501 514 q 644 448 592 500 q 697 310 697 396 q 693 257 697 285 q 582 66 672 140 q 343 -8 492 -8 q 125 67 203 -8 q 53 279 47 142 l 114 279 q 174 111 113 175 q 353 47 235 47 q 544 107 472 47 q 633 261 617 167 q 638 306 638 285 q 560 443 638 397 q 339 489 483 489 l 313 489 l 322 543 l 351 543 q 700 749 665 544 q 704 790 704 769 q 654 904 704 863 q 511 946 604 946 q 325 891 407 946 q 211 729 243 836 l 149 729 z "},"4":{"ha":824,"x_min":14,"x_max":782,"o":"m 14 250 l 22 299 l 672 983 l 744 983 l 624 304 l 782 304 l 772 250 l 614 250 l 569 0 l 508 0 l 553 250 l 14 250 m 671 908 l 97 304 l 564 304 l 671 908 z "},"5":{"ha":840,"x_min":75,"x_max":815,"o":"m 806 932 l 272 932 l 201 533 q 327 620 249 586 q 490 654 406 654 q 695 585 631 654 q 760 407 760 515 q 753 335 760 374 q 627 90 726 188 q 363 -7 528 -7 q 151 67 226 -7 q 78 268 75 142 l 139 268 q 204 105 142 161 q 372 49 267 49 q 588 127 506 49 q 693 333 669 206 q 699 397 699 363 q 642 547 699 493 q 474 600 585 600 q 310 561 386 600 q 186 454 235 522 l 128 454 l 222 988 l 815 988 l 806 932 z "},"6":{"ha":863,"x_min":97,"x_max":810,"o":"m 744 739 q 699 894 747 840 q 549 949 650 949 q 301 831 397 949 q 167 447 204 713 q 301 599 206 543 q 508 656 396 656 q 706 589 636 656 q 775 400 775 522 q 768 318 775 354 q 706 156 753 229 q 578 38 658 82 q 390 -7 499 -7 q 164 73 231 -7 q 97 297 97 153 q 117 486 97 369 q 267 868 161 735 q 558 1001 374 1001 q 749 930 688 1001 q 803 739 810 858 l 744 739 m 489 601 q 348 572 418 601 q 226 484 278 543 q 160 340 174 425 q 154 275 154 311 q 214 110 154 174 q 397 46 274 46 q 601 118 517 46 q 707 317 685 190 q 714 390 714 361 q 656 547 714 492 q 489 601 597 601 z "},"7":{"ha":718,"x_min":122,"x_max":771,"o":"m 761 936 l 207 0 l 138 0 l 700 932 l 122 932 l 132 986 l 771 986 l 761 936 z "},"8":{"ha":856,"x_min":51,"x_max":818,"o":"m 322 514 q 204 583 243 535 q 165 700 165 632 q 169 747 165 722 q 288 932 190 861 q 538 1003 386 1003 q 745 946 672 1003 q 818 793 818 889 q 814 747 818 771 q 739 599 799 661 q 578 514 679 538 q 713 441 665 494 q 760 307 760 388 q 756 257 760 285 q 624 46 732 124 q 354 -32 517 -32 q 131 30 211 -32 q 51 200 51 92 q 57 257 51 231 q 145 424 75 357 q 322 514 215 492 m 528 949 q 328 895 408 949 q 229 742 247 842 q 226 704 226 729 q 287 581 226 625 q 456 536 347 536 q 655 591 575 536 q 753 742 735 646 q 757 782 757 763 q 696 906 757 863 q 528 949 635 949 m 446 486 q 228 430 319 486 q 118 258 138 374 q 114 210 114 233 q 181 70 114 119 q 364 21 247 21 q 585 83 496 21 q 693 258 674 146 q 697 306 697 283 q 628 442 697 397 q 446 486 558 486 z "},"9":{"ha":861,"x_min":97,"x_max":807,"o":"m 163 258 q 210 101 160 157 q 364 46 261 46 q 605 162 511 46 q 736 542 699 278 q 606 396 699 450 q 404 342 514 342 q 205 408 276 342 q 133 594 133 475 q 142 676 133 633 q 204 839 157 765 q 331 956 251 913 q 519 1000 411 1000 q 741 922 675 1000 q 807 700 807 843 q 788 511 807 628 q 641 124 743 257 q 351 -8 539 -8 q 159 65 221 -8 q 104 258 97 138 l 163 258 m 421 394 q 561 424 492 394 q 681 513 631 454 q 744 654 731 571 q 750 719 750 683 q 692 883 750 819 q 511 947 633 947 q 308 874 393 947 q 201 676 224 801 q 194 607 194 635 q 253 450 194 506 q 421 394 313 394 z "},"\u0000":{"ha":0,"x_min":0,"x_max":0,"o":""},"\r":{"ha":407,"x_min":0,"x_max":0,"o":""}," ":{"ha":407,"x_min":0,"x_max":0,"o":""},"अ":{"ha":1139,"x_min":78,"x_max":1274,"o":"m 1274 1028 l 1265 979 l 1056 979 l 882 0 l 826 0 l 915 507 l 621 508 q 660 382 660 457 q 656 335 660 360 q 546 142 635 215 q 331 69 457 69 q 147 131 217 69 q 78 293 78 192 q 82 344 78 318 l 136 344 q 132 301 132 322 q 188 169 132 219 q 336 119 244 119 q 513 180 440 119 q 603 338 586 240 q 607 381 607 358 q 559 503 607 454 q 408 553 511 553 l 358 553 l 367 601 l 417 601 q 541 628 488 601 q 626 699 594 656 q 665 789 657 742 q 669 829 669 810 q 618 949 669 906 q 486 992 567 992 q 316 938 390 992 q 228 794 242 885 l 174 794 q 284 974 194 907 q 496 1040 374 1040 q 661 987 599 1040 q 724 842 724 933 q 719 797 724 821 q 647 655 704 714 q 497 579 590 596 l 497 578 q 568 554 538 572 l 925 554 l 1008 1028 l 1274 1028 z "},"आ":{"ha":1525,"x_min":78,"x_max":1660,"o":"m 1651 979 l 1442 979 l 1269 0 l 1213 0 l 1385 979 l 1056 979 l 882 0 l 826 0 l 915 507 l 621 508 q 660 382 660 457 q 656 335 660 360 q 546 142 635 215 q 331 69 457 69 q 147 131 217 69 q 78 293 78 192 q 82 344 78 318 l 136 344 q 132 301 132 322 q 188 169 132 219 q 336 119 244 119 q 513 180 440 119 q 603 338 586 240 q 607 381 607 358 q 559 503 607 454 q 408 553 511 553 l 358 553 l 367 601 l 417 601 q 541 628 488 601 q 626 699 594 656 q 665 789 657 742 q 669 829 669 810 q 618 949 669 906 q 486 992 567 992 q 316 938 390 992 q 228 794 242 885 l 174 794 q 284 974 194 907 q 496 1040 374 1040 q 661 987 599 1040 q 724 842 724 933 q 719 797 724 821 q 647 655 704 714 q 497 579 590 596 l 497 578 q 568 554 538 572 l 925 554 l 1008 1028 l 1660 1028 l 1651 979 z "},"इ":{"ha":810,"x_min":29,"x_max":969,"o":"m 733 979 l 696 775 l 697 775 l 689 731 l 450 731 q 292 699 360 731 q 210 583 224 667 q 207 554 207 564 q 253 468 207 496 q 374 440 300 440 l 436 440 q 613 397 543 440 q 683 257 683 353 q 679 207 683 235 q 586 47 661 110 q 386 -15 511 -15 q 249 13 303 -15 q 170 78 196 42 q 140 147 144 115 l 97 -100 l 44 -100 l 106 253 l 156 253 q 208 92 150 154 q 383 31 267 31 q 517 62 461 31 q 601 143 572 93 q 629 250 629 193 q 569 363 629 329 q 419 397 510 397 l 353 397 q 207 435 264 397 q 150 549 150 474 q 154 586 150 568 q 252 731 171 688 q 440 775 333 775 l 642 775 l 679 979 l 29 979 l 36 1028 l 969 1028 l 961 979 l 733 979 z "},"ई":{"ha":807,"x_min":29,"x_max":1121,"o":"m 957 1388 q 1078 1345 1036 1388 q 1121 1231 1121 1303 q 1117 1182 1121 1207 l 1067 1182 q 1069 1217 1069 1207 q 1038 1305 1069 1272 q 949 1338 1006 1338 q 823 1287 871 1338 q 760 1138 775 1236 l 742 1028 l 969 1028 l 963 979 l 735 979 l 693 749 l 692 749 l 689 731 l 450 731 q 292 699 360 731 q 210 583 224 667 q 207 554 207 564 q 253 468 207 496 q 374 440 300 440 l 436 440 q 613 397 543 440 q 683 257 683 353 q 679 207 683 235 q 586 47 661 110 q 386 -15 511 -15 q 249 13 303 -15 q 170 78 196 42 q 140 147 144 115 l 97 -100 l 44 -100 l 106 253 l 156 253 q 208 92 150 154 q 383 31 267 31 q 517 62 461 31 q 601 143 572 93 q 629 250 629 193 q 569 363 629 329 q 419 397 510 397 l 353 397 q 207 435 264 397 q 150 549 150 474 q 154 586 150 568 q 252 731 171 688 q 440 775 333 775 l 642 775 l 679 979 l 29 979 l 36 1028 l 688 1028 l 707 1139 q 792 1322 728 1257 q 957 1388 856 1388 z "},"उ":{"ha":807,"x_min":38,"x_max":942,"o":"m 932 979 l 736 979 l 706 800 q 632 656 690 715 q 499 585 574 596 l 497 583 q 624 507 579 568 q 669 360 669 446 q 664 301 669 340 q 601 147 649 215 q 478 41 553 79 q 313 3 404 3 q 168 35 231 3 q 72 123 106 67 q 38 251 38 179 q 43 306 38 269 l 97 306 q 93 263 93 283 q 156 113 93 171 q 321 54 219 54 q 512 124 432 54 q 611 304 592 193 q 615 353 615 329 q 563 497 615 439 q 400 556 511 556 l 347 556 l 356 607 l 404 607 q 573 664 508 607 q 651 806 638 721 l 682 979 l 38 979 l 46 1028 l 942 1028 l 932 979 z "},"ऊ":{"ha":1211,"x_min":38,"x_max":1346,"o":"m 706 800 q 632 656 690 715 q 499 585 574 596 l 499 583 l 808 583 q 1009 531 932 583 q 1086 369 1086 479 q 1081 310 1086 338 q 968 109 1056 174 q 763 44 881 44 q 729 46 743 44 q 707 49 715 47 l 715 93 q 764 90 751 90 q 934 143 863 90 q 1026 311 1006 196 q 1032 363 1032 347 q 967 494 1032 453 q 801 536 903 536 l 594 536 q 649 459 631 506 q 668 358 668 413 q 663 299 668 326 q 600 147 647 214 q 478 41 553 79 q 313 3 404 3 q 168 35 231 3 q 72 123 106 67 q 38 251 38 179 q 43 306 38 269 l 97 306 q 93 263 93 283 q 156 113 93 171 q 321 54 219 54 q 512 124 432 54 q 611 304 592 193 q 615 353 615 329 q 563 497 615 439 q 400 556 511 556 l 347 556 l 356 607 l 404 607 q 573 664 508 607 q 651 806 638 721 l 682 979 l 38 979 l 46 1028 l 1346 1028 l 1338 979 l 736 979 l 706 800 z "},"ऋ":{"ha":1394,"x_min":38,"x_max":1529,"o":"m 844 979 l 778 597 l 1054 597 q 1203 693 1172 597 l 1225 818 l 1276 818 l 1189 324 l 1169 324 q 1052 294 1103 324 q 974 216 1001 265 q 947 110 947 167 q 991 10 947 43 q 1106 -22 1035 -22 q 1188 -10 1140 -22 l 1178 -57 q 1139 -66 1164 -62 q 1092 -69 1114 -69 q 948 -27 1004 -69 q 892 97 892 15 q 896 146 892 121 q 979 294 913 235 q 1146 363 1046 354 l 1186 596 q 1039 550 1129 550 l 769 550 l 672 0 l 619 0 l 703 474 l 169 0 l 103 0 l 104 7 l 713 536 q 660 700 719 636 q 493 764 600 764 q 339 728 410 764 q 219 624 268 692 q 156 467 171 557 l 99 467 q 174 649 118 571 q 313 770 231 728 q 489 813 394 813 q 649 768 588 813 q 733 647 711 724 l 792 979 l 38 979 l 46 1028 l 1529 1028 l 1519 979 l 844 979 z "},"ॠ":{"ha":1394,"x_min":38,"x_max":1529,"o":"m 844 979 l 778 597 l 1053 597 q 1206 707 1179 597 l 1214 751 l 1218 781 l 1225 818 l 1276 818 l 1189 322 l 1131 322 q 1019 293 1067 322 q 960 199 971 264 q 957 174 957 182 q 995 101 957 125 q 1096 78 1033 78 l 1151 78 l 1143 32 l 1081 32 q 968 3 1017 32 q 908 -92 919 -26 q 906 -117 906 -108 q 944 -190 906 -167 q 1046 -214 982 -214 q 1119 -207 1081 -214 q 1182 -192 1158 -200 l 1174 -236 q 1110 -253 1150 -246 q 1032 -260 1071 -260 q 901 -227 951 -260 q 850 -128 850 -194 q 894 -6 850 -54 q 997 53 938 42 l 999 56 q 928 95 953 67 q 903 171 903 124 q 906 201 903 179 q 981 322 919 282 q 1122 361 1043 361 l 1146 361 l 1186 597 q 1038 550 1131 550 l 769 550 l 672 0 l 618 0 l 703 474 l 169 0 l 101 0 l 103 7 l 713 536 q 659 700 718 636 q 493 764 600 764 q 338 728 410 764 q 218 624 267 692 q 154 467 169 557 l 97 467 q 173 649 117 571 q 311 770 229 728 q 488 813 393 813 q 649 768 586 813 q 733 646 711 724 l 792 979 l 38 979 l 46 1028 l 1529 1028 l 1521 979 l 844 979 z "},"ऌ":{"ha":1246,"x_min":36,"x_max":1379,"o":"m 983 979 l 946 769 q 1084 697 1036 760 q 1132 536 1132 635 q 1125 461 1132 506 q 1078 322 1113 382 l 1067 322 q 946 293 997 322 q 867 215 894 264 q 839 107 839 165 q 883 8 839 40 q 999 -24 928 -24 q 1081 -10 1039 -24 l 1072 -57 q 985 -71 1031 -71 q 840 -28 896 -71 q 783 99 783 15 q 788 146 783 121 q 872 294 804 233 q 1038 361 940 356 q 1068 461 1060 411 q 1075 532 1075 503 q 1032 668 1075 617 q 904 719 989 719 q 722 638 796 719 q 629 414 649 556 l 626 397 l 578 397 l 579 414 q 586 506 586 469 q 425 719 586 719 q 247 648 317 719 q 157 461 176 576 q 150 390 150 419 q 206 236 150 293 q 368 179 261 179 q 413 182 379 179 l 403 131 q 356 129 386 129 q 159 197 225 129 q 93 382 93 265 q 100 461 93 426 q 210 686 125 601 q 424 771 296 771 q 576 703 528 771 q 622 544 624 635 l 625 544 q 722 698 657 633 q 890 769 788 763 l 928 979 l 36 979 l 44 1028 l 1379 1028 l 1369 979 l 983 979 z "},"ॡ":{"ha":1257,"x_min":46,"x_max":1390,"o":"m 985 979 l 946 769 q 1084 697 1036 760 q 1132 536 1132 635 q 1125 461 1132 506 q 1079 322 1114 390 l 1021 322 q 909 293 957 322 q 850 199 861 264 q 847 175 847 182 q 885 101 847 125 q 986 78 924 78 l 1042 78 l 1033 32 l 971 32 q 858 3 907 32 q 799 -92 810 -26 q 796 -115 796 -108 q 835 -190 796 -165 q 936 -214 874 -214 q 1010 -207 971 -214 q 1072 -192 1049 -200 l 1065 -236 q 1001 -253 1040 -246 q 922 -260 961 -260 q 791 -227 842 -260 q 740 -128 740 -194 q 784 -7 740 -56 q 888 53 828 42 l 889 56 q 818 95 843 67 q 793 171 793 124 q 796 201 793 179 q 873 322 811 283 q 1013 361 935 361 l 1038 361 q 1068 461 1061 414 q 1075 532 1075 503 q 1032 668 1075 617 q 904 719 989 719 q 721 637 794 719 q 629 414 647 554 l 626 397 l 578 397 l 579 414 q 586 506 586 469 q 425 719 586 719 q 247 648 317 719 q 157 461 176 576 q 150 390 150 419 q 206 236 150 293 q 368 179 261 179 q 413 182 379 179 l 403 131 q 356 129 386 129 q 159 197 225 129 q 93 382 93 265 q 100 461 93 426 q 210 686 125 601 q 424 771 296 771 q 576 703 528 771 q 622 544 624 635 l 625 544 q 723 698 657 633 q 892 769 789 763 l 929 979 l 46 979 l 54 1028 l 1390 1028 l 1382 979 l 985 979 z "},"ए":{"ha":903,"x_min":36,"x_max":1038,"o":"m 1029 979 l 854 979 l 821 789 q 733 581 796 646 q 551 515 669 515 q 510 517 524 515 l 518 567 q 549 565 529 565 q 694 619 643 565 q 765 790 744 672 l 799 979 l 294 979 l 189 383 q 181 300 181 340 q 241 135 181 194 q 415 76 301 76 q 609 147 535 76 q 706 346 683 217 l 760 346 q 644 110 735 193 q 408 26 554 26 q 197 97 269 26 q 125 293 125 168 q 133 383 125 336 l 238 979 l 36 979 l 44 1028 l 1038 1028 l 1029 979 z "},"ऐ":{"ha":903,"x_min":36,"x_max":1038,"o":"m 1029 979 l 854 979 l 821 789 q 733 581 796 646 q 551 515 669 515 q 510 517 524 515 l 518 567 q 549 565 529 565 q 694 619 643 565 q 765 790 744 672 l 799 979 l 294 979 l 189 383 q 181 300 181 340 q 241 135 181 194 q 415 76 301 76 q 609 147 535 76 q 706 346 683 217 l 760 346 q 644 110 735 193 q 408 26 554 26 q 197 97 269 26 q 125 293 125 168 q 133 383 125 336 l 238 979 l 36 979 l 44 1028 l 804 1028 q 703 1211 746 1154 q 615 1284 660 1268 q 492 1300 571 1300 l 443 1300 l 451 1347 l 500 1347 q 644 1329 593 1347 q 746 1244 696 1311 q 860 1028 796 1176 l 1038 1028 l 1029 979 z "},"ओ":{"ha":1525,"x_min":78,"x_max":1660,"o":"m 1660 1028 l 1651 979 l 1442 979 l 1269 0 l 1213 0 l 1385 979 l 1056 979 l 882 0 l 826 0 l 915 507 l 621 508 q 660 382 660 457 q 656 335 660 360 q 546 142 635 215 q 331 69 457 69 q 147 131 217 69 q 78 293 78 192 q 82 344 78 318 l 136 344 q 132 301 132 322 q 188 169 132 219 q 336 119 244 119 q 513 180 440 119 q 603 338 586 240 q 607 381 607 358 q 559 503 607 454 q 408 553 511 553 l 358 553 l 367 601 l 417 601 q 541 628 488 601 q 626 699 594 656 q 665 789 657 742 q 669 829 669 810 q 618 949 669 906 q 486 992 567 992 q 316 938 390 992 q 228 794 242 885 l 174 794 q 284 974 194 907 q 496 1040 374 1040 q 661 987 599 1040 q 724 842 724 933 q 719 797 724 821 q 647 655 704 714 q 497 579 590 596 l 497 578 q 568 554 538 572 l 925 554 l 1008 1028 l 1496 1028 q 1393 1212 1436 1156 q 1306 1284 1350 1268 q 1183 1300 1263 1300 l 1133 1300 l 1142 1347 l 1190 1347 q 1335 1329 1283 1347 q 1435 1244 1386 1311 q 1550 1028 1485 1178 l 1660 1028 z "},"औ":{"ha":1525,"x_min":78,"x_max":1660,"o":"m 1660 1028 l 1651 979 l 1442 979 l 1269 0 l 1213 0 l 1385 979 l 1056 979 l 882 0 l 826 0 l 915 507 l 621 508 q 660 382 660 457 q 656 335 660 360 q 546 142 635 215 q 331 69 457 69 q 147 131 217 69 q 78 293 78 192 q 82 344 78 318 l 136 344 q 132 301 132 322 q 188 169 132 219 q 336 119 244 119 q 513 180 440 119 q 603 338 586 240 q 607 381 607 358 q 559 503 607 454 q 408 553 511 553 l 358 553 l 367 601 l 417 601 q 541 628 488 601 q 626 699 594 656 q 665 789 657 742 q 669 829 669 810 q 618 949 669 906 q 486 992 567 992 q 316 938 390 992 q 228 794 242 885 l 174 794 q 284 974 194 907 q 496 1040 374 1040 q 661 987 599 1040 q 724 842 724 933 q 719 797 724 821 q 647 655 704 714 q 497 579 590 596 l 497 578 q 568 554 538 572 l 925 554 l 1008 1028 l 1500 1028 q 1382 1131 1429 1100 q 1289 1172 1335 1163 q 1161 1181 1243 1181 l 1111 1181 l 1118 1221 l 1168 1221 q 1294 1214 1250 1221 q 1385 1178 1339 1207 q 1493 1083 1431 1149 q 1402 1285 1443 1222 q 1318 1364 1361 1347 q 1197 1381 1275 1381 l 1147 1381 l 1153 1422 l 1203 1422 q 1345 1401 1296 1422 q 1442 1297 1394 1379 q 1551 1028 1489 1215 l 1660 1028 z "},"ऍ":{"ha":904,"x_min":3,"x_max":1004,"o":"m 540 1178 q 376 1230 431 1178 q 322 1358 322 1282 q 325 1394 322 1382 l 375 1394 q 372 1367 372 1375 q 416 1265 372 1307 q 549 1224 460 1224 q 666 1249 615 1224 q 746 1313 717 1274 q 782 1394 775 1353 l 831 1394 q 786 1290 822 1340 q 687 1209 750 1240 q 540 1178 624 1178 m 996 979 l 821 979 l 788 789 q 699 581 763 646 q 518 515 636 515 q 476 517 490 515 l 485 567 q 515 565 496 565 q 660 619 610 565 q 732 790 711 672 l 765 979 l 261 979 l 156 383 q 147 300 147 340 q 208 135 147 194 q 382 76 268 76 q 576 147 501 76 q 672 346 650 217 l 726 346 q 611 110 701 193 q 375 26 521 26 q 164 97 236 26 q 92 293 92 168 q 100 383 92 336 l 204 979 l 3 979 l 11 1028 l 1004 1028 l 996 979 z "},"ॲ":{"ha":1139,"x_min":78,"x_max":1478,"o":"m 1274 1028 l 1265 979 l 1056 979 l 882 0 l 826 0 l 915 507 l 621 508 q 660 382 660 457 q 656 335 660 360 q 546 142 635 215 q 331 69 457 69 q 147 131 217 69 q 78 293 78 192 q 82 344 78 318 l 136 344 q 132 301 132 322 q 188 169 132 219 q 336 119 244 119 q 513 180 440 119 q 603 338 586 240 q 607 381 607 358 q 559 503 607 454 q 408 553 511 553 l 358 553 l 367 601 l 417 601 q 541 628 488 601 q 626 699 594 656 q 665 789 657 742 q 669 829 669 810 q 618 949 669 906 q 486 992 567 992 q 316 938 390 992 q 228 794 242 885 l 174 794 q 284 974 194 907 q 496 1040 374 1040 q 661 987 599 1040 q 724 842 724 933 q 719 797 724 821 q 647 655 704 714 q 497 579 590 596 l 497 578 q 568 554 538 572 l 925 554 l 1008 1028 l 1274 1028 m 1478 1396 q 1432 1291 1467 1340 q 1337 1210 1397 1242 q 1193 1179 1276 1179 q 1025 1233 1082 1179 q 968 1363 968 1286 q 971 1396 968 1374 l 1021 1396 q 1018 1368 1018 1376 q 1062 1267 1018 1308 q 1194 1225 1106 1225 q 1312 1250 1261 1225 q 1392 1315 1363 1275 q 1428 1396 1421 1354 l 1478 1396 z "},"ऑ":{"ha":1525,"x_min":78,"x_max":1660,"o":"m 1651 979 l 1442 979 l 1269 0 l 1213 0 l 1385 979 l 1056 979 l 882 0 l 826 0 l 915 507 l 621 508 q 660 382 660 457 q 656 335 660 360 q 546 142 635 215 q 331 69 457 69 q 147 131 217 69 q 78 293 78 192 q 82 344 78 318 l 136 344 q 132 301 132 322 q 188 169 132 219 q 336 119 244 119 q 513 180 440 119 q 603 338 586 240 q 607 381 607 358 q 559 503 607 454 q 408 553 511 553 l 358 553 l 367 601 l 417 601 q 541 628 488 601 q 626 699 594 656 q 665 789 657 742 q 669 829 669 810 q 618 949 669 906 q 486 992 567 992 q 316 938 390 992 q 228 794 242 885 l 174 794 q 284 974 194 907 q 496 1040 374 1040 q 661 987 599 1040 q 724 842 724 933 q 719 797 724 821 q 647 655 704 714 q 497 579 590 596 l 497 578 q 568 554 538 572 l 925 554 l 1008 1028 l 1660 1028 l 1651 979 m 1660 1394 q 1614 1290 1649 1339 q 1519 1209 1579 1240 q 1375 1178 1458 1178 q 1207 1231 1264 1178 q 1150 1361 1150 1285 q 1153 1394 1150 1372 l 1203 1394 q 1200 1367 1200 1375 q 1244 1265 1200 1307 q 1376 1224 1288 1224 q 1494 1249 1443 1224 q 1574 1313 1544 1274 q 1610 1394 1603 1353 l 1660 1394 z "},"ा":{"ha":388,"x_min":38,"x_max":522,"o":"m 75 0 l 247 979 l 38 979 l 46 1028 l 522 1028 l 514 979 l 304 979 l 132 0 l 75 0 z "},"ि":{"ha":388,"x_min":38,"x_max":1275,"o":"m 821 1356 q 1142 1291 1008 1356 q 1275 1086 1275 1226 q 1271 1035 1275 1063 l 1267 1011 l 1210 1011 l 1214 1035 q 1218 1078 1218 1058 q 1096 1254 1218 1201 q 813 1307 974 1307 q 480 1249 624 1307 q 311 1031 336 1192 l 311 1028 l 522 1028 l 514 979 l 304 979 l 131 0 l 74 0 l 247 979 l 38 979 l 46 1028 l 256 1028 l 256 1031 q 445 1283 285 1211 q 821 1356 606 1356 z "},"ी":{"ha":386,"x_min":-135,"x_max":521,"o":"m 521 1028 l 514 979 l 304 979 l 131 0 l 75 0 l 247 979 l 38 979 l 44 1028 l 257 1028 l 268 1090 q 275 1160 275 1129 q 243 1267 275 1226 q 140 1307 211 1307 q -65 1090 -22 1307 l -81 1013 l -135 1013 l -121 1088 q -33 1281 -99 1207 q 149 1356 33 1356 q 331 1171 331 1356 q 322 1088 331 1132 l 311 1028 l 521 1028 z "},"ु":{"ha":0,"x_min":-675,"x_max":-121,"o":"m -124 -168 q -220 -328 -142 -271 q -419 -385 -299 -385 q -603 -333 -532 -385 q -675 -178 -675 -281 q -668 -111 -675 -140 l -617 -111 q -624 -172 -624 -139 q -566 -296 -624 -254 q -414 -337 -508 -337 q -253 -292 -318 -337 q -175 -165 -189 -247 q -172 -136 -172 -146 q -203 -52 -172 -86 q -290 -18 -235 -18 l -315 -18 l -307 29 l -282 29 q -164 -17 -207 29 q -121 -133 -121 -64 q -124 -168 -121 -146 z "},"ू":{"ha":0,"x_min":-558,"x_max":-10,"o":"m -328 -375 q -372 -378 -342 -378 q -505 -334 -451 -378 q -558 -217 -558 -290 q -556 -181 -558 -193 q -467 -28 -540 -85 q -283 28 -393 28 q -85 -45 -160 28 q -10 -246 -10 -118 q -19 -340 -10 -293 l -25 -368 l -74 -368 l -67 -329 q -58 -249 -58 -287 q -121 -80 -58 -142 q -285 -18 -183 -18 q -447 -72 -383 -18 q -510 -211 -510 -126 q -470 -300 -510 -267 q -367 -333 -431 -333 q -321 -329 -344 -333 l -328 -375 z "},"ृ":{"ha":0,"x_min":-560,"x_max":-242,"o":"m -251 -394 q -299 -406 -269 -401 q -354 -410 -328 -410 q -456 -387 -408 -410 q -531 -323 -503 -365 q -560 -222 -560 -281 q -556 -181 -560 -201 q -466 -30 -540 -87 q -278 28 -392 28 l -251 28 l -258 -15 l -283 -15 q -443 -71 -382 -15 q -504 -214 -504 -126 q -456 -323 -504 -283 q -340 -362 -408 -362 q -242 -349 -289 -362 l -251 -394 z "},"ॄ":{"ha":0,"x_min":-593,"x_max":-251,"o":"m -268 -569 q -333 -586 -293 -579 q -411 -593 -372 -593 q -542 -558 -490 -593 q -593 -456 -593 -522 q -550 -337 -593 -383 q -446 -281 -507 -292 l -446 -276 q -515 -237 -490 -265 q -540 -165 -540 -210 q -537 -132 -540 -143 q -462 -12 -524 -51 q -321 28 -400 28 l -251 28 l -258 -10 l -314 -10 q -424 -40 -376 -10 q -483 -133 -472 -69 q -486 -158 -486 -150 q -449 -232 -486 -208 q -349 -256 -411 -256 l -292 -256 l -300 -300 l -361 -300 q -475 -328 -426 -300 q -535 -419 -524 -357 q -537 -444 -537 -436 q -498 -520 -537 -494 q -396 -546 -458 -546 q -322 -540 -360 -546 q -260 -525 -285 -533 l -268 -569 z "},"ॢ":{"ha":0,"x_min":-700,"x_max":47,"o":"m 1 -350 q -117 -394 -72 -350 q -162 -499 -162 -437 q -130 -569 -162 -546 q -47 -593 -97 -593 q 13 -583 -14 -593 l 4 -625 q -58 -632 -21 -632 q -167 -601 -125 -632 q -208 -508 -208 -569 q -158 -378 -208 -432 q -25 -318 -107 -325 q -6 -253 -12 -292 q -1 -201 -1 -226 q -31 -106 -1 -142 q -119 -71 -60 -71 q -242 -128 -194 -71 q -310 -285 -290 -185 l -312 -296 l -354 -296 l -351 -285 q -344 -212 -344 -251 q -374 -108 -344 -146 q -461 -71 -404 -71 q -585 -121 -536 -71 q -647 -253 -633 -171 q -651 -300 -651 -278 q -612 -408 -651 -368 q -499 -447 -574 -447 q -468 -444 -476 -447 l -476 -487 q -510 -489 -485 -489 q -651 -439 -603 -489 q -700 -306 -700 -389 q -696 -253 -700 -281 q -612 -89 -676 -150 q -458 -28 -549 -28 q -349 -76 -382 -28 q -317 -190 -315 -124 l -314 -190 q -237 -75 -289 -122 q -106 -28 -186 -28 q 8 -73 -32 -28 q 47 -194 47 -118 q 42 -253 47 -211 q 10 -350 33 -303 l 1 -350 z "},"ॣ":{"ha":0,"x_min":-700,"x_max":47,"o":"m -106 -28 q 8 -73 -32 -28 q 47 -194 47 -118 q 42 -253 47 -211 q 10 -350 33 -303 l -33 -350 q -117 -375 -82 -350 q -151 -454 -151 -400 q -126 -506 -151 -489 q -57 -522 -100 -522 l -18 -522 l -24 -561 l -64 -561 q -146 -581 -111 -561 q -189 -647 -181 -600 q -190 -662 -190 -653 q -163 -714 -190 -697 q -92 -731 -136 -731 q -39 -726 -65 -731 q 4 -715 -12 -721 l -1 -753 q -103 -768 -42 -768 q -198 -744 -161 -768 q -235 -674 -235 -721 q -203 -586 -235 -619 q -129 -543 -172 -553 l -129 -542 q -178 -512 -161 -533 q -196 -457 -196 -490 q -194 -435 -196 -443 q -140 -347 -183 -376 q -39 -318 -96 -318 l -24 -318 q -6 -253 -12 -290 q -1 -201 -1 -226 q -31 -106 -1 -142 q -119 -71 -60 -71 q -242 -128 -194 -71 q -310 -285 -290 -185 l -311 -296 l -354 -296 l -351 -285 q -344 -212 -344 -251 q -374 -108 -344 -146 q -461 -71 -404 -71 q -585 -121 -536 -71 q -647 -253 -633 -171 q -651 -300 -651 -278 q -612 -408 -651 -368 q -499 -447 -574 -447 q -468 -444 -476 -447 l -476 -487 q -510 -489 -485 -489 q -651 -440 -603 -489 q -700 -308 -700 -390 q -694 -253 -700 -292 q -612 -90 -676 -151 q -458 -28 -549 -28 q -349 -76 -382 -28 q -317 -190 -315 -124 l -314 -190 q -237 -75 -289 -122 q -106 -28 -186 -28 z "},"े":{"ha":0,"x_min":-493,"x_max":-75,"o":"m -129 1024 q -232 1210 -189 1153 q -319 1284 -275 1268 q -443 1300 -362 1300 l -493 1300 l -485 1347 l -436 1347 q -292 1329 -343 1347 q -190 1243 -240 1311 q -75 1024 -140 1175 l -129 1024 z "},"ै":{"ha":0,"x_min":-519,"x_max":-78,"o":"m -428 1422 q -285 1401 -335 1422 q -189 1296 -236 1379 q -78 1024 -142 1213 l -126 1024 q -247 1130 -199 1097 q -340 1172 -294 1163 q -469 1181 -386 1181 l -519 1181 l -512 1221 l -462 1221 q -336 1214 -381 1221 q -246 1178 -292 1207 q -137 1083 -200 1149 q -228 1285 -187 1222 q -312 1364 -269 1347 q -433 1381 -356 1381 l -483 1381 l -478 1422 l -428 1422 z "},"ो":{"ha":388,"x_min":-107,"x_max":522,"o":"m 522 1028 l 514 979 l 304 979 l 131 0 l 75 0 l 247 979 l 38 979 l 46 1028 l 256 1028 q 154 1211 197 1154 q 67 1284 111 1268 q -57 1300 22 1300 l -107 1300 l -97 1347 l -49 1347 q 94 1329 43 1347 q 196 1244 146 1311 q 310 1028 246 1176 l 522 1028 z "},"ौ":{"ha":388,"x_min":-165,"x_max":488,"o":"m 488 1028 l 479 979 l 268 979 l 97 0 l 40 0 l 213 979 l 3 979 l 11 1028 l 224 1028 q 106 1131 153 1100 q 13 1172 58 1163 q -115 1181 -33 1181 l -165 1181 l -157 1221 l -108 1221 q 18 1214 -26 1221 q 108 1178 63 1207 q 217 1083 154 1149 q 126 1285 167 1222 q 42 1364 85 1347 q -79 1381 -1 1381 l -129 1381 l -124 1422 l -74 1422 q 69 1401 19 1422 q 165 1297 118 1379 q 276 1028 213 1215 l 488 1028 z "},"ॅ":{"ha":0,"x_min":-303,"x_max":207,"o":"m 207 1358 q 161 1253 196 1303 q 66 1173 126 1204 q -78 1142 6 1142 q -246 1195 -189 1142 q -303 1325 -303 1249 q -300 1358 -303 1336 l -250 1358 q -253 1331 -253 1339 q -209 1229 -253 1271 q -76 1188 -165 1188 q 41 1213 -10 1188 q 121 1277 92 1238 q 157 1358 150 1317 l 207 1358 z "},"ॉ":{"ha":388,"x_min":38,"x_max":596,"o":"m 596 1358 q 550 1253 585 1303 q 455 1173 515 1204 q 311 1142 394 1142 q 143 1195 200 1142 q 86 1325 86 1249 q 89 1358 86 1336 l 139 1358 q 136 1331 136 1339 q 180 1229 136 1271 q 313 1188 224 1188 q 430 1213 379 1188 q 510 1277 481 1238 q 546 1358 539 1317 l 596 1358 m 75 0 l 247 979 l 38 979 l 46 1028 l 522 1028 l 514 979 l 304 979 l 132 0 l 75 0 z "},"क":{"ha":1406,"x_min":38,"x_max":1540,"o":"m 818 979 l 756 624 q 872 750 799 701 q 1047 799 946 799 q 1226 731 1157 799 q 1296 550 1296 664 q 1289 483 1296 522 q 1221 313 1271 385 q 1098 202 1171 240 q 940 164 1025 164 q 861 172 900 164 l 869 219 q 939 213 901 213 q 1070 245 1008 213 q 1175 339 1132 278 q 1233 485 1218 400 q 1238 540 1238 514 q 1180 693 1238 636 q 1031 750 1122 750 q 833 674 910 750 q 733 494 757 599 l 646 0 l 593 0 l 651 336 q 532 211 608 260 q 354 163 456 163 q 169 230 240 163 q 99 413 99 297 q 106 485 99 443 q 174 651 122 579 q 301 760 226 722 q 461 799 376 799 q 624 749 564 799 q 701 622 685 700 l 764 979 l 38 979 l 46 1028 l 1540 1028 l 1531 979 l 818 979 m 371 211 q 522 250 457 211 q 624 348 586 289 q 675 468 663 407 l 679 496 q 682 536 682 524 q 629 688 682 626 q 467 750 576 750 q 333 717 397 750 q 222 625 268 685 q 163 485 176 565 q 157 422 157 456 q 216 267 157 322 q 371 211 275 211 z "},"ख":{"ha":1275,"x_min":38,"x_max":1410,"o":"m 1410 1028 l 1400 979 l 1190 979 l 1018 0 l 963 0 l 1026 360 q 920 251 988 293 q 764 210 853 210 q 706 215 742 210 q 562 60 651 121 q 360 -1 472 -1 q 161 64 233 -1 q 89 243 89 129 q 94 311 89 279 l 138 550 l 193 550 q 438 775 399 550 l 474 979 l 38 979 l 46 1028 l 1410 1028 m 1135 979 l 529 979 l 493 769 q 201 506 446 506 l 185 506 l 150 307 q 144 251 144 281 q 204 103 144 158 q 371 49 264 49 q 540 101 463 49 q 660 231 617 153 q 566 312 600 257 q 532 443 532 367 q 538 501 532 460 q 597 647 551 585 q 710 742 643 708 q 853 775 776 775 q 1001 733 946 775 q 1072 625 1057 692 l 1135 979 m 781 256 q 914 291 857 256 q 1005 381 971 326 q 1049 492 1039 436 q 1053 539 1053 515 q 1005 674 1053 619 q 857 729 957 729 q 683 667 760 729 q 588 497 607 604 q 583 446 583 471 q 638 306 583 357 q 781 256 693 256 z "},"ग":{"ha":979,"x_min":38,"x_max":1114,"o":"m 1114 1028 l 1106 979 l 894 979 l 724 0 l 667 0 l 839 979 l 550 979 l 478 568 q 405 415 463 475 q 249 356 347 356 q 123 401 165 356 q 81 519 81 447 q 85 564 81 542 l 93 606 l 149 606 l 140 563 q 136 522 136 542 q 164 438 136 471 q 253 404 192 404 q 368 451 328 404 q 421 567 408 497 l 493 979 l 38 979 l 46 1028 l 1114 1028 z "},"घ":{"ha":996,"x_min":38,"x_max":1131,"o":"m 1122 979 l 913 979 l 740 0 l 685 0 l 747 354 q 593 209 690 263 q 382 156 496 156 q 181 209 257 156 q 106 363 106 263 q 110 410 106 385 q 196 560 126 503 q 354 628 265 618 l 354 631 q 248 679 288 639 q 208 794 208 719 q 214 850 208 811 l 238 979 l 38 979 l 46 1028 l 1131 1028 l 1122 979 m 856 979 l 294 979 l 271 851 q 267 800 267 825 q 463 653 267 653 l 535 653 l 526 606 l 451 606 q 253 552 325 606 q 167 414 182 499 q 163 374 163 393 q 227 247 163 290 q 400 204 292 204 q 567 242 488 204 q 702 349 647 281 q 772 503 757 417 l 856 979 z "},"ङ":{"ha":883,"x_min":39,"x_max":1018,"o":"m 1018 1028 l 1010 979 l 728 979 l 688 757 l 683 731 l 444 731 q 288 699 356 731 q 206 585 221 667 q 203 557 203 565 q 249 468 203 496 q 368 440 294 440 l 429 440 q 606 395 535 440 q 678 256 678 350 q 674 210 678 235 q 573 47 656 110 q 354 -15 490 -15 q 141 47 217 -15 q 65 207 65 108 q 69 253 65 231 l 125 253 q 121 213 121 232 q 181 81 121 131 q 360 31 242 31 q 500 60 440 31 q 591 140 560 90 q 622 249 622 189 q 563 363 622 328 q 414 397 504 397 l 354 397 q 207 436 267 397 q 147 551 147 475 q 150 586 147 574 q 247 731 168 688 q 432 774 326 774 l 635 774 l 672 979 l 39 979 l 47 1028 l 1018 1028 m 818 613 q 849 599 839 613 q 857 565 860 586 q 837 533 853 546 q 801 519 821 519 q 769 533 781 519 q 763 565 758 546 q 781 599 765 586 q 818 613 797 613 z "},"च":{"ha":1006,"x_min":38,"x_max":1140,"o":"m 1131 979 l 922 979 l 750 0 l 693 0 l 750 326 q 617 201 701 249 q 439 153 533 153 q 256 214 328 153 q 183 382 183 275 q 189 438 183 411 q 260 596 204 528 q 403 697 317 664 l 100 697 l 108 744 l 608 744 l 599 697 l 556 697 q 408 664 475 697 q 299 573 342 631 q 243 444 257 515 q 239 396 239 419 q 300 253 239 304 q 457 201 361 201 q 601 238 533 201 q 714 333 668 274 q 775 463 760 393 l 865 979 l 38 979 l 46 1028 l 1140 1028 l 1131 979 z "},"छ":{"ha":1125,"x_min":35,"x_max":1260,"o":"m 924 979 l 888 772 q 1013 710 965 764 q 1061 560 1061 657 q 1054 488 1061 529 q 946 251 1029 351 q 737 97 863 150 q 463 43 611 43 q 183 110 290 43 q 75 299 75 178 q 79 349 75 322 q 169 512 97 451 q 336 583 240 572 l 336 586 q 231 635 271 594 q 192 749 192 675 q 197 806 192 778 l 229 979 l 35 979 l 42 1028 l 1260 1028 l 1253 979 l 924 979 m 871 979 l 285 979 l 254 808 q 249 756 249 769 q 296 646 249 682 q 443 610 343 610 l 475 610 l 468 561 l 436 561 q 269 526 339 561 q 165 435 200 492 q 131 310 131 378 q 224 149 131 204 q 471 93 318 93 q 715 141 601 93 q 905 278 829 189 q 1001 488 981 368 q 1008 553 1008 526 q 963 684 1008 639 q 853 729 918 729 q 719 683 782 729 q 639 539 656 638 q 633 478 633 513 q 640 397 633 443 l 590 397 q 585 472 585 432 q 590 543 585 514 q 678 709 610 653 q 835 772 747 765 l 871 979 z "},"ज":{"ha":1151,"x_min":38,"x_max":1286,"o":"m 1278 979 l 1068 979 l 896 0 l 839 0 l 954 653 l 632 653 l 599 468 q 501 279 578 351 q 310 207 424 207 q 163 264 217 207 q 110 413 110 321 q 115 469 110 431 l 157 703 l 213 703 l 172 468 q 167 415 167 432 q 206 300 167 343 q 317 257 246 257 q 465 315 403 257 q 543 468 526 374 l 585 703 l 964 703 l 1013 979 l 38 979 l 46 1028 l 1286 1028 l 1278 979 z "},"झ":{"ha":1172,"x_min":47,"x_max":1307,"o":"m 1299 979 l 1089 979 l 915 0 l 860 0 l 931 396 l 593 397 q 658 339 635 376 q 682 250 682 301 q 678 206 682 229 q 589 56 661 115 q 396 -3 517 -3 q 263 24 317 -3 q 184 83 210 50 q 151 143 158 117 l 107 -101 l 53 -101 l 115 239 l 165 239 q 220 99 163 156 q 393 42 278 42 q 524 71 471 42 q 603 147 578 100 q 629 247 629 193 q 576 358 629 318 q 421 397 522 397 l 354 397 q 207 435 264 397 q 150 549 150 474 q 154 586 150 565 q 252 731 171 688 q 440 775 333 775 l 642 775 l 679 979 l 47 979 l 56 1028 l 1307 1028 l 1299 979 m 1033 979 l 733 979 l 696 775 l 697 775 l 689 731 l 450 731 q 293 699 363 731 q 210 583 224 667 q 207 554 207 564 q 253 468 207 496 q 374 440 300 440 l 436 440 l 938 440 l 1033 979 z "},"ञ":{"ha":1104,"x_min":38,"x_max":1239,"o":"m 1231 979 l 1019 979 l 849 0 l 792 0 l 872 456 l 704 456 q 638 303 686 372 q 515 194 590 235 q 346 153 440 153 q 201 185 258 153 q 116 269 143 218 q 86 376 89 319 l 140 376 q 197 254 146 306 q 351 203 249 203 q 556 282 475 203 q 656 478 636 361 q 661 538 661 506 q 608 690 661 631 q 449 749 554 749 q 274 696 344 749 q 175 574 204 643 l 121 574 q 241 733 154 667 q 457 799 328 799 q 650 727 585 799 q 715 546 715 656 q 713 506 715 533 l 881 506 l 964 979 l 38 979 l 46 1028 l 1239 1028 l 1231 979 z "},"ट":{"ha":900,"x_min":31,"x_max":1035,"o":"m 546 738 q 282 658 393 738 q 144 425 171 578 q 139 368 139 399 q 213 194 139 261 q 404 128 286 128 q 568 167 493 128 q 692 276 643 206 q 756 436 740 346 l 810 436 q 735 249 792 331 q 592 123 679 168 q 396 78 504 78 q 233 113 304 78 q 122 213 161 149 q 82 363 82 278 q 88 428 82 399 q 246 696 119 606 q 551 786 372 786 l 610 786 l 644 979 l 31 979 l 40 1028 l 1035 1028 l 1026 979 l 700 979 l 656 738 l 546 738 z "},"ठ":{"ha":936,"x_min":31,"x_max":1071,"o":"m 574 979 l 536 771 q 681 728 617 765 q 780 628 744 692 q 815 486 815 565 q 808 419 815 458 q 730 242 790 319 q 581 122 669 164 q 389 79 492 79 q 231 115 300 79 q 122 217 161 151 q 83 367 83 282 q 89 432 83 403 q 163 604 107 529 q 302 723 219 679 q 481 771 385 767 l 518 979 l 31 979 l 39 1028 l 1071 1028 l 1063 979 l 574 979 m 753 421 q 758 479 758 447 q 688 655 758 588 q 501 722 617 722 q 341 685 417 722 q 213 583 265 649 q 146 431 161 517 q 140 372 140 403 q 172 246 140 301 q 263 160 204 190 q 396 129 321 129 q 556 166 481 129 q 685 269 632 203 q 753 421 738 336 z "},"ड":{"ha":806,"x_min":39,"x_max":940,"o":"m 444 731 q 288 699 356 731 q 206 585 221 667 q 203 557 203 565 q 249 468 203 496 q 368 440 294 440 l 429 440 q 606 395 535 440 q 678 256 678 350 q 674 210 678 235 q 573 47 656 110 q 354 -15 490 -15 q 141 47 217 -15 q 65 207 65 108 q 69 253 65 231 l 125 253 q 121 213 121 232 q 181 81 121 131 q 360 31 242 31 q 500 60 440 31 q 591 140 560 90 q 622 249 622 189 q 563 363 622 328 q 414 397 504 397 l 354 397 q 207 436 267 397 q 147 551 147 475 q 150 586 147 574 q 247 731 168 688 q 432 774 326 774 l 625 774 l 663 979 l 39 979 l 47 1028 l 940 1028 l 932 979 l 717 979 l 672 731 l 444 731 z "},"ढ":{"ha":876,"x_min":35,"x_max":1011,"o":"m 574 744 q 378 706 469 744 q 226 591 288 668 q 144 403 164 514 q 139 338 139 374 q 219 143 139 217 q 432 69 299 69 q 573 98 508 69 q 681 176 638 126 q 735 289 724 225 q 738 325 738 301 q 697 429 738 389 q 590 469 657 469 q 468 427 521 469 q 406 315 415 385 q 403 286 403 299 l 358 286 q 361 322 358 300 q 442 462 376 410 q 600 514 508 514 q 737 463 685 514 q 789 331 789 413 q 785 289 789 310 q 722 151 771 211 q 595 58 672 92 q 425 25 518 25 q 247 63 325 25 q 126 172 169 101 q 83 333 83 242 q 90 406 83 364 q 182 618 113 532 q 352 747 251 704 q 569 789 453 789 l 642 789 l 675 979 l 35 979 l 43 1028 l 1011 1028 l 1003 979 l 729 979 l 688 744 l 574 744 z "},"ण":{"ha":1157,"x_min":38,"x_max":1292,"o":"m 1282 979 l 1072 979 l 900 0 l 844 0 l 1017 979 l 696 979 l 619 546 q 526 358 599 429 q 342 286 453 286 q 190 340 246 286 q 135 486 135 394 q 140 546 135 518 l 217 979 l 38 979 l 46 1028 l 1292 1028 l 1282 979 m 640 979 l 272 979 l 194 542 q 190 493 190 517 q 231 378 190 421 q 343 335 271 335 q 489 392 429 335 q 564 542 549 449 l 640 979 z "},"त":{"ha":953,"x_min":38,"x_max":1088,"o":"m 1078 979 l 868 979 l 696 0 l 640 0 l 754 646 l 533 646 q 268 572 372 646 q 138 349 164 497 q 131 276 131 307 q 199 109 131 168 q 396 50 267 50 l 428 50 l 419 3 l 385 3 q 157 74 240 3 q 74 274 74 144 q 81 350 74 306 q 233 610 111 524 q 539 696 354 696 l 763 696 l 813 979 l 38 979 l 46 1028 l 1088 1028 l 1078 979 z "},"थ":{"ha":1040,"x_min":121,"x_max":1175,"o":"m 1175 1028 l 1167 979 l 957 979 l 783 0 l 728 0 l 790 350 q 717 256 767 301 q 597 181 668 211 q 443 151 526 151 q 207 230 293 151 q 121 442 121 308 q 128 519 121 485 l 142 578 l 286 578 q 511 626 415 578 q 629 800 607 675 q 633 840 633 821 q 592 949 633 907 q 475 990 551 990 q 303 916 367 990 q 242 726 240 842 l 189 726 q 225 887 189 815 q 327 999 261 958 q 481 1040 393 1040 q 633 987 578 1040 q 688 847 688 933 q 683 799 688 824 q 552 596 658 658 q 294 533 446 533 l 186 533 q 176 447 176 490 q 251 266 176 332 q 457 200 325 200 q 617 238 540 200 q 746 342 693 275 q 814 494 799 410 l 908 1028 l 1175 1028 z "},"द":{"ha":844,"x_min":38,"x_max":979,"o":"m 526 753 q 288 683 390 753 q 163 482 186 614 q 157 425 157 443 q 217 269 157 328 q 382 211 278 211 q 498 235 439 211 q 602 310 557 258 q 660 436 647 361 l 711 436 l 633 -8 l 578 -8 l 632 301 q 522 202 594 240 q 364 164 449 164 q 172 233 244 164 q 100 418 100 303 q 106 483 100 454 q 252 723 135 643 q 531 803 369 803 l 660 803 l 690 979 l 38 979 l 46 1028 l 979 1028 l 971 979 l 747 979 l 707 753 l 526 753 z "},"ध":{"ha":972,"x_min":108,"x_max":1108,"o":"m 1100 979 l 890 979 l 718 0 l 661 0 l 724 353 q 574 206 669 260 q 364 153 478 153 q 181 206 254 153 q 108 350 108 258 q 113 392 108 369 q 190 531 129 481 q 324 590 250 582 l 324 594 q 219 652 260 607 q 178 771 178 697 q 182 821 178 794 q 269 978 197 917 q 442 1040 340 1040 q 579 994 529 1040 q 629 869 629 949 q 617 788 629 832 l 569 788 q 581 858 581 829 q 543 957 581 922 q 436 992 506 992 q 301 941 358 992 q 232 815 243 890 q 228 772 228 793 q 278 659 228 700 q 424 618 328 618 l 506 618 l 497 571 l 422 571 q 283 543 342 571 q 196 467 225 515 q 167 363 167 419 q 227 244 167 286 q 382 201 288 201 q 549 240 469 201 q 682 349 628 279 q 751 508 736 419 l 835 979 l 842 1028 l 1108 1028 l 1100 979 z "},"न":{"ha":1069,"x_min":38,"x_max":1204,"o":"m 1196 979 l 986 979 l 814 0 l 758 0 l 875 658 l 531 658 q 590 594 568 635 q 613 499 613 553 q 608 450 613 475 q 553 320 596 376 q 447 233 511 264 q 310 201 383 201 q 145 258 207 201 q 83 406 83 314 q 88 454 83 429 q 194 639 107 571 q 406 707 281 707 l 883 707 l 931 979 l 38 979 l 46 1028 l 1204 1028 l 1196 979 m 561 454 q 565 496 565 475 q 517 613 565 568 q 389 657 468 657 q 226 600 294 657 q 140 451 157 543 q 136 410 136 431 q 185 294 136 338 q 318 250 235 250 q 476 309 407 250 q 561 454 544 368 z "},"प":{"ha":892,"x_min":38,"x_max":1026,"o":"m 1018 979 l 807 979 l 636 0 l 579 0 l 658 449 q 547 342 615 381 q 390 304 478 304 q 208 369 272 304 q 144 551 144 435 q 153 639 144 593 l 214 979 l 38 979 l 46 1028 l 1026 1028 l 1018 979 m 751 979 l 269 979 l 208 639 q 201 560 201 604 q 253 406 201 460 q 404 353 304 353 q 583 416 510 353 q 681 575 657 479 l 751 979 z "},"फ":{"ha":1369,"x_min":38,"x_max":1504,"o":"m 781 979 l 717 618 q 836 749 760 699 q 1015 799 913 799 q 1192 732 1124 799 q 1260 553 1260 665 q 1254 486 1260 518 q 1185 313 1236 386 q 1062 202 1135 240 q 906 164 989 164 q 824 174 858 164 l 832 219 q 904 213 867 213 q 1093 285 1011 213 q 1197 485 1175 358 q 1203 542 1203 511 q 1144 694 1203 638 q 994 750 1086 750 q 844 709 908 750 q 742 605 779 668 q 692 472 704 542 l 608 0 l 553 0 l 632 451 q 524 344 590 383 q 372 304 457 304 q 202 366 260 304 q 144 542 144 428 q 153 638 144 586 l 214 979 l 38 979 l 46 1028 l 1504 1028 l 1494 979 l 781 979 m 725 979 l 269 979 l 208 638 q 200 550 200 590 q 247 404 200 456 q 390 353 294 353 q 568 424 496 353 q 658 600 640 494 l 725 979 z "},"ब":{"ha":958,"x_min":38,"x_max":1093,"o":"m 1093 1028 l 1083 979 l 874 979 l 701 0 l 647 0 l 707 336 q 578 204 661 256 q 386 153 494 153 q 240 185 304 153 q 138 276 175 217 q 100 417 100 336 q 106 481 100 451 q 178 656 122 581 q 317 771 235 731 q 492 811 399 811 q 670 758 603 811 q 757 622 738 704 l 819 979 l 38 979 l 46 1028 l 1093 1028 m 733 482 q 739 536 739 518 q 713 651 739 599 q 631 737 686 704 q 496 769 576 769 q 382 750 438 769 q 281 694 326 731 l 638 297 q 701 385 676 336 q 733 482 726 435 m 156 479 q 150 424 150 440 q 219 258 150 318 q 399 197 289 197 q 613 274 522 197 l 256 672 q 156 479 176 594 z "},"भ":{"ha":1056,"x_min":97,"x_max":1190,"o":"m 1190 1028 l 1183 979 l 974 979 l 800 0 l 743 0 l 844 575 l 585 575 l 561 443 q 469 241 539 310 q 294 172 400 172 q 151 221 204 172 q 97 351 97 269 q 101 397 97 375 q 197 562 119 501 q 383 622 275 622 l 539 622 l 565 768 q 572 844 572 814 q 446 990 572 990 q 325 943 376 990 q 258 813 274 896 q 254 754 254 786 l 199 754 q 203 814 199 785 q 288 979 221 918 q 450 1040 356 1040 q 583 990 539 1040 q 626 849 626 940 q 618 763 626 808 l 593 622 l 853 622 l 924 1028 l 1190 1028 m 531 575 l 378 575 q 231 526 293 575 q 154 397 168 478 q 150 360 150 379 q 191 259 150 297 q 299 221 232 221 q 434 278 379 221 q 507 440 489 336 l 531 575 z "},"म":{"ha":1046,"x_min":38,"x_max":1181,"o":"m 1172 979 l 963 979 l 790 0 l 733 0 l 835 575 l 536 575 l 513 443 q 421 241 490 310 q 246 172 351 172 q 102 222 156 172 q 49 353 49 271 q 53 397 49 375 q 149 562 71 501 q 335 622 226 622 l 492 622 l 554 979 l 38 979 l 46 1028 l 1181 1028 l 1172 979 m 906 979 l 607 979 l 544 622 l 843 622 l 906 979 m 483 575 l 328 575 q 181 526 243 575 q 106 397 119 478 q 101 360 101 379 q 142 259 101 297 q 250 221 183 221 q 385 278 331 221 q 460 440 440 335 l 483 575 z "},"य":{"ha":1008,"x_min":38,"x_max":1143,"o":"m 1135 979 l 924 979 l 753 0 l 696 0 l 758 356 q 624 229 711 279 q 421 179 538 179 q 192 260 275 179 q 108 479 108 340 q 117 571 108 524 q 129 625 119 583 l 153 625 q 363 678 281 625 q 469 865 446 731 l 489 979 l 38 979 l 46 1028 l 1143 1028 l 1135 979 m 868 979 l 544 979 l 524 858 q 408 651 497 713 q 175 588 319 589 l 171 567 q 163 485 163 524 q 235 296 163 364 q 436 228 307 228 q 594 264 519 228 q 721 365 669 300 q 786 515 772 431 l 786 511 l 868 979 z "},"र":{"ha":749,"x_min":39,"x_max":883,"o":"m 874 979 l 681 979 l 653 813 q 533 581 625 658 q 293 503 440 503 l 186 503 l 147 282 q 140 215 140 243 q 185 85 140 133 q 314 38 231 38 q 467 99 406 38 q 546 263 528 160 l 550 282 l 604 282 l 601 264 q 504 62 581 136 q 311 -12 428 -12 q 143 47 203 -12 q 83 210 83 107 q 92 286 83 247 l 138 550 l 288 550 q 492 615 413 550 q 596 813 572 681 l 624 979 l 39 979 l 47 1028 l 883 1028 l 874 979 z "},"ल":{"ha":1236,"x_min":26,"x_max":1371,"o":"m 978 979 l 940 768 q 1076 695 1028 758 q 1124 535 1124 632 q 1117 458 1124 503 q 995 219 1090 311 q 750 128 900 128 q 697 131 731 128 l 706 181 q 747 178 733 178 q 956 256 874 178 q 1060 460 1038 335 q 1067 528 1067 499 q 1023 667 1067 615 q 894 719 979 719 q 716 638 788 719 q 619 413 644 556 l 617 397 l 568 397 l 569 413 q 581 515 581 472 q 538 665 581 611 q 411 719 494 719 q 235 647 304 719 q 147 460 167 575 q 140 390 140 418 q 196 235 140 293 q 360 178 251 178 q 401 181 371 178 l 392 131 q 351 128 364 128 q 152 198 221 128 q 83 383 83 268 q 90 461 83 428 q 200 686 115 603 q 411 769 285 769 q 567 702 518 769 q 617 543 617 635 l 619 543 q 717 697 651 632 q 885 768 782 761 l 922 979 l 26 979 l 35 1028 l 1371 1028 l 1363 979 l 978 979 z "},"व":{"ha":943,"x_min":38,"x_max":1078,"o":"m 1078 1028 l 1068 979 l 858 979 l 686 0 l 632 0 l 690 336 q 563 208 644 257 q 375 160 482 160 q 176 228 251 160 q 100 417 100 297 q 107 489 100 447 q 177 655 124 583 q 310 765 231 726 q 478 804 389 804 q 655 755 589 804 q 742 626 721 706 l 803 979 l 38 979 l 46 1028 l 1078 1028 m 389 207 q 552 248 482 207 q 663 351 622 289 q 715 479 703 414 q 721 536 721 515 q 663 693 721 629 q 485 757 604 757 q 341 724 410 757 q 224 628 272 690 q 161 485 176 567 q 156 425 156 457 q 219 265 156 322 q 389 207 283 207 z "},"श":{"ha":1097,"x_min":96,"x_max":1232,"o":"m 507 1040 q 676 980 611 1040 q 740 817 740 919 q 733 753 740 790 q 606 544 708 617 q 357 471 503 471 l 192 471 l 160 286 q 153 218 153 247 q 198 85 153 133 q 332 38 243 38 q 496 104 429 38 q 579 282 563 171 l 635 282 q 537 69 615 150 q 331 -12 458 -12 q 156 48 217 -12 q 96 215 96 108 q 103 290 96 246 l 143 519 l 353 519 q 568 583 476 519 q 679 761 660 646 q 683 813 683 789 q 634 943 683 896 q 503 990 585 990 q 366 951 425 990 q 275 845 307 913 q 243 694 243 778 l 186 694 q 228 874 188 794 q 342 997 269 953 q 507 1040 414 1040 m 1232 1028 l 1224 979 l 1014 979 l 842 0 l 785 0 l 965 1028 l 1232 1028 z "},"ष":{"ha":894,"x_min":38,"x_max":1029,"o":"m 1021 979 l 811 979 l 639 0 l 583 0 l 663 449 q 550 340 619 379 q 393 301 481 301 q 211 369 278 301 q 144 556 144 438 q 153 639 144 596 l 214 979 l 38 979 l 46 1028 l 1029 1028 l 1021 979 m 756 979 l 269 979 l 678 556 q 689 601 686 586 l 756 979 m 410 351 q 559 396 493 351 q 660 513 625 440 l 258 929 l 207 639 q 200 565 200 594 q 256 408 200 464 q 410 351 311 351 z "},"स":{"ha":1131,"x_min":38,"x_max":1265,"o":"m 1257 979 l 1046 979 l 875 0 l 818 0 l 911 525 l 188 525 l 146 283 q 140 219 140 254 q 185 86 140 135 q 317 38 229 38 q 473 104 413 38 q 550 279 533 171 l 604 279 q 510 68 586 149 q 313 -12 435 -12 q 143 49 203 -12 q 83 217 83 111 q 90 288 83 246 l 140 569 l 285 569 q 488 640 407 569 q 592 833 568 711 l 618 979 l 38 979 l 46 1028 l 1265 1028 l 1257 979 m 990 979 l 672 979 l 646 833 q 579 669 628 735 q 464 572 531 604 l 919 572 l 990 979 z "},"ह":{"ha":828,"x_min":50,"x_max":963,"o":"m 963 1028 l 954 979 l 747 979 l 711 779 l 703 735 l 442 735 q 303 702 361 735 q 232 597 244 669 q 229 572 229 581 q 260 494 229 525 q 344 450 292 463 q 429 458 385 458 q 573 427 515 458 q 658 347 631 396 q 689 247 686 299 l 633 247 q 575 361 628 311 q 421 411 522 411 q 278 376 342 411 q 174 284 214 342 q 122 160 135 226 q 117 106 117 124 q 172 -35 117 19 q 333 -89 228 -89 q 501 -40 431 -89 q 603 74 572 8 l 657 74 q 539 -74 625 -11 q 329 -137 453 -137 q 131 -69 200 -137 q 63 104 63 -1 q 68 163 63 124 q 140 324 83 253 q 283 431 197 396 q 208 483 239 447 q 176 572 176 518 q 179 606 176 594 q 265 736 194 693 q 436 779 335 779 l 657 779 l 693 979 l 50 979 l 58 1028 l 963 1028 z "},"ळ":{"ha":1401,"x_min":24,"x_max":1536,"o":"m 1101 979 l 1067 783 q 1228 707 1168 772 q 1288 538 1288 642 q 1282 472 1288 501 q 1215 314 1267 383 q 1087 206 1164 244 q 922 167 1010 167 q 792 195 847 167 q 706 272 736 224 q 671 379 675 321 l 667 379 q 543 228 631 289 q 344 167 456 167 q 155 234 226 167 q 83 413 83 301 q 89 472 83 444 q 158 637 106 565 q 285 747 210 708 q 449 786 361 786 q 627 726 564 786 q 703 576 690 667 l 706 576 q 824 723 746 664 q 1013 786 903 782 l 1047 979 l 24 979 l 32 1028 l 1536 1028 l 1526 979 l 1101 979 m 656 472 q 661 531 661 499 q 604 681 661 625 q 447 738 547 738 q 310 705 374 738 q 202 612 246 672 q 144 472 158 551 q 139 419 139 436 q 199 271 139 326 q 356 215 258 215 q 553 288 469 215 q 656 472 636 360 m 1226 472 q 1232 529 1232 511 q 1174 681 1232 625 q 1017 738 1115 738 q 819 664 901 738 q 715 472 736 590 q 710 417 710 446 q 767 271 710 326 q 924 215 825 215 q 1062 248 997 215 q 1170 339 1126 281 q 1226 472 1214 397 z "},"क़":{"ha":1406,"x_min":38,"x_max":1540,"o":"m 818 979 l 756 624 q 872 750 799 701 q 1047 799 946 799 q 1226 731 1157 799 q 1296 550 1296 664 q 1289 483 1296 522 q 1221 313 1271 385 q 1098 202 1171 240 q 940 164 1025 164 q 861 172 900 164 l 869 219 q 939 213 901 213 q 1070 245 1008 213 q 1175 339 1132 278 q 1233 485 1218 400 q 1238 540 1238 514 q 1180 693 1238 636 q 1031 750 1122 750 q 833 674 910 750 q 733 494 757 599 l 646 0 l 593 0 l 651 336 q 532 211 608 260 q 354 163 456 163 q 169 230 240 163 q 99 413 99 297 q 106 485 99 443 q 174 651 122 579 q 301 760 226 722 q 461 799 376 799 q 624 749 564 799 q 701 622 685 700 l 764 979 l 38 979 l 46 1028 l 1540 1028 l 1531 979 l 818 979 m 371 211 q 522 250 457 211 q 624 348 586 289 q 675 468 663 407 l 679 496 q 682 536 682 524 q 629 688 682 626 q 467 750 576 750 q 333 717 397 750 q 222 625 268 685 q 163 485 176 565 q 157 422 157 456 q 216 267 157 322 q 371 211 275 211 m 354 -8 q 338 -49 354 -32 q 297 -65 321 -65 q 267 -54 279 -65 q 256 -25 256 -43 q 273 15 256 -1 q 314 32 290 32 q 343 21 332 32 q 354 -8 354 10 z "},"ख़":{"ha":1275,"x_min":38,"x_max":1410,"o":"m 1410 1028 l 1400 979 l 1190 979 l 1018 0 l 963 0 l 1026 360 q 920 251 988 293 q 764 210 853 210 q 706 215 742 210 q 562 60 651 121 q 360 -1 472 -1 q 161 64 233 -1 q 89 243 89 129 q 94 311 89 279 l 138 550 l 193 550 q 438 775 399 550 l 474 979 l 38 979 l 46 1028 l 1410 1028 m 1135 979 l 529 979 l 493 769 q 201 506 446 506 l 185 506 l 150 307 q 144 251 144 281 q 204 103 144 158 q 371 49 264 49 q 540 101 463 49 q 660 231 617 153 q 566 312 600 257 q 532 443 532 367 q 538 501 532 460 q 597 647 551 585 q 710 742 643 708 q 853 775 776 775 q 1001 733 946 775 q 1072 625 1057 692 l 1135 979 m 781 256 q 914 291 857 256 q 1005 381 971 326 q 1049 492 1039 436 q 1053 539 1053 515 q 1005 674 1053 619 q 857 729 957 729 q 683 667 760 729 q 588 497 607 604 q 583 446 583 471 q 638 306 583 357 q 781 256 693 256 m 358 -171 q 342 -211 358 -194 q 301 -228 325 -228 q 272 -217 283 -228 q 260 -187 260 -206 q 277 -147 260 -164 q 318 -131 294 -131 q 347 -142 336 -131 q 358 -171 358 -153 z "},"ग़":{"ha":979,"x_min":38,"x_max":1114,"o":"m 1114 1028 l 1106 979 l 894 979 l 724 0 l 667 0 l 839 979 l 550 979 l 478 568 q 405 415 463 475 q 249 356 347 356 q 123 401 165 356 q 81 519 81 447 q 85 564 81 542 l 93 606 l 149 606 l 140 563 q 136 522 136 542 q 164 438 136 471 q 253 404 192 404 q 368 451 328 404 q 421 567 408 497 l 493 979 l 38 979 l 46 1028 l 1114 1028 m 269 178 q 253 138 269 154 q 213 121 236 121 q 183 132 194 121 q 171 161 171 143 q 188 201 171 185 q 229 218 206 218 q 258 207 247 218 q 269 178 269 196 z "},"ज़":{"ha":1151,"x_min":38,"x_max":1286,"o":"m 1278 979 l 1068 979 l 896 0 l 839 0 l 954 653 l 632 653 l 599 468 q 501 279 578 351 q 310 207 424 207 q 163 264 217 207 q 110 413 110 321 q 115 469 110 431 l 157 703 l 213 703 l 172 468 q 167 415 167 432 q 206 300 167 343 q 317 257 246 257 q 465 315 403 257 q 543 468 526 374 l 585 703 l 964 703 l 1013 979 l 38 979 l 46 1028 l 1286 1028 l 1278 979 m 332 38 q 315 -3 332 14 q 275 -19 299 -19 q 245 -8 257 -19 q 233 21 233 3 q 251 61 233 44 q 292 78 268 78 q 321 67 310 78 q 332 38 332 56 z "},"ड़":{"ha":806,"x_min":39,"x_max":940,"o":"m 444 731 q 288 699 356 731 q 206 585 221 667 q 203 557 203 565 q 249 468 203 496 q 368 440 294 440 l 429 440 q 606 395 535 440 q 678 256 678 350 q 674 210 678 235 q 573 47 656 110 q 354 -15 490 -15 q 141 47 217 -15 q 65 207 65 108 q 69 253 65 231 l 125 253 q 121 213 121 232 q 181 81 121 131 q 360 31 242 31 q 500 60 440 31 q 591 140 560 90 q 622 249 622 189 q 563 363 622 328 q 414 397 504 397 l 354 397 q 207 436 267 397 q 147 551 147 475 q 150 586 147 574 q 247 731 168 688 q 432 774 326 774 l 625 774 l 663 979 l 39 979 l 47 1028 l 940 1028 l 932 979 l 717 979 l 672 731 l 444 731 m 361 -185 q 344 -225 361 -208 q 304 -242 328 -242 q 274 -231 286 -242 q 263 -201 263 -219 q 280 -161 263 -178 q 321 -144 297 -144 q 350 -156 339 -144 q 361 -185 361 -167 z "},"ढ़":{"ha":876,"x_min":35,"x_max":1011,"o":"m 574 744 q 378 706 469 744 q 226 591 288 668 q 144 403 164 514 q 139 338 139 374 q 219 143 139 217 q 432 69 299 69 q 573 98 508 69 q 681 176 638 126 q 735 289 724 225 q 738 325 738 301 q 697 429 738 389 q 590 469 657 469 q 468 427 521 469 q 406 315 415 385 q 403 286 403 299 l 358 286 q 361 322 358 300 q 442 462 376 410 q 600 514 508 514 q 737 463 685 514 q 789 331 789 413 q 785 289 789 310 q 722 151 771 211 q 595 58 672 92 q 425 25 518 25 q 247 63 325 25 q 126 172 169 101 q 83 333 83 242 q 90 406 83 364 q 182 618 113 532 q 352 747 251 704 q 569 789 453 789 l 642 789 l 675 979 l 35 979 l 43 1028 l 1011 1028 l 1003 979 l 729 979 l 688 744 l 574 744 m 403 -144 q 386 -185 403 -168 q 346 -201 369 -201 q 316 -190 328 -201 q 304 -161 304 -179 q 322 -121 304 -137 q 363 -104 339 -104 q 392 -115 381 -104 q 403 -144 403 -126 z "},"फ़":{"ha":1369,"x_min":38,"x_max":1504,"o":"m 781 979 l 717 618 q 836 749 760 699 q 1015 799 913 799 q 1192 732 1124 799 q 1260 553 1260 665 q 1254 486 1260 518 q 1185 313 1236 386 q 1062 202 1135 240 q 906 164 989 164 q 824 174 858 164 l 832 219 q 904 213 867 213 q 1093 285 1011 213 q 1197 485 1175 358 q 1203 542 1203 511 q 1144 694 1203 638 q 994 750 1086 750 q 844 709 908 750 q 742 605 779 668 q 692 472 704 542 l 608 0 l 553 0 l 632 451 q 524 344 590 383 q 372 304 457 304 q 202 366 260 304 q 144 542 144 428 q 153 638 144 586 l 214 979 l 38 979 l 46 1028 l 1504 1028 l 1494 979 l 781 979 m 725 979 l 269 979 l 208 638 q 200 550 200 590 q 247 404 200 456 q 390 353 294 353 q 568 424 496 353 q 658 600 640 494 l 725 979 m 368 136 q 351 96 368 113 q 311 79 335 79 q 281 90 293 79 q 269 119 269 101 q 287 160 269 143 q 328 176 304 176 q 357 165 346 176 q 368 136 368 154 z "},"ऱ":{"ha":749,"x_min":15,"x_max":883,"o":"m 874 979 l 681 979 l 653 813 q 533 581 625 658 q 293 503 440 503 l 186 503 l 147 282 q 140 215 140 243 q 185 85 140 133 q 314 38 231 38 q 467 99 406 38 q 546 263 528 160 l 550 282 l 604 282 l 601 264 q 504 62 581 136 q 311 -12 428 -12 q 143 47 203 -12 q 83 210 83 107 q 92 286 83 247 l 138 550 l 288 550 q 492 615 413 550 q 596 813 572 681 l 624 979 l 39 979 l 47 1028 l 883 1028 l 874 979 m 114 -122 q 97 -162 114 -146 q 57 -179 81 -179 q 27 -168 39 -179 q 15 -139 15 -157 q 33 -99 15 -115 q 74 -82 50 -82 q 103 -93 92 -82 q 114 -122 114 -104 z "},"ं":{"ha":0,"x_min":-117,"x_max":-18,"o":"m -18 1235 q -35 1194 -18 1211 q -75 1178 -51 1178 q -105 1189 -93 1178 q -117 1218 -117 1200 q -100 1258 -117 1242 q -60 1275 -83 1275 q -29 1264 -40 1275 q -18 1235 -18 1253 z "},"ँ":{"ha":0,"x_min":-303,"x_max":207,"o":"m 4 1401 q -13 1372 1 1383 q -46 1360 -28 1360 q -72 1369 -62 1360 q -82 1393 -82 1378 q -67 1430 -82 1415 q -31 1444 -51 1444 q -1 1432 -11 1444 q 4 1401 8 1419 m 207 1358 q 162 1253 197 1303 q 65 1173 126 1204 q -78 1142 4 1142 q -245 1194 -187 1142 q -303 1324 -303 1247 q -300 1358 -303 1347 l -253 1358 q -254 1333 -254 1350 q -210 1229 -254 1272 q -78 1186 -167 1186 q 42 1212 -10 1186 q 123 1277 93 1238 q 160 1358 153 1317 l 207 1358 z "},"ः":{"ha":283,"x_min":51,"x_max":232,"o":"m 229 703 q 209 667 225 681 q 172 653 193 653 q 138 667 150 653 q 131 703 126 681 q 150 738 133 724 q 189 751 167 751 q 221 738 210 751 q 229 703 232 724 m 153 269 q 133 235 150 249 q 96 221 117 221 q 63 235 74 221 q 54 269 51 249 q 74 304 58 290 q 113 318 90 318 q 145 304 133 318 q 153 269 157 290 z "},"ऽ":{"ha":783,"x_min":47,"x_max":729,"o":"m 47 97 l 56 147 l 390 147 q 491 178 453 147 q 536 256 529 208 q 538 278 538 263 q 504 374 538 328 q 401 490 471 419 q 283 626 324 568 q 243 750 243 683 q 246 785 243 774 q 320 899 260 864 q 467 933 381 933 l 729 933 l 721 885 l 471 885 q 360 860 407 885 q 301 778 313 836 q 300 754 300 769 q 335 654 300 703 q 439 535 369 606 q 556 400 517 456 q 594 281 594 344 q 592 249 594 271 q 532 141 582 185 q 390 97 482 97 l 47 97 z "},"्":{"ha":0,"x_min":-322,"x_max":-147,"o":"m -206 -347 l -322 -89 l -265 -89 l -147 -347 l -206 -347 z "},"़":{"ha":0,"x_min":-610,"x_max":-511,"o":"m -511 -56 q -528 -96 -511 -79 q -568 -112 -544 -112 q -598 -101 -586 -112 q -610 -72 -610 -90 q -592 -32 -610 -49 q -551 -15 -575 -15 q -522 -26 -533 -15 q -511 -56 -511 -37 z "},"०":{"ha":836,"x_min":92,"x_max":785,"o":"m 114 496 q 249 865 157 735 q 526 994 340 994 q 725 919 665 994 q 785 704 785 843 q 763 496 785 615 q 628 124 721 256 q 349 -7 535 -7 q 151 68 210 -7 q 92 282 92 143 q 114 496 92 374 m 700 496 q 722 701 722 615 q 675 876 722 815 q 517 938 628 938 q 341 881 408 938 q 236 730 274 825 q 175 496 199 635 q 153 289 153 376 q 200 112 153 174 q 358 50 247 50 q 533 107 465 50 q 638 260 601 164 q 700 496 675 356 z "},"१":{"ha":360,"x_min":106,"x_max":343,"o":"m 126 924 l 138 981 l 343 981 l 169 0 l 106 0 l 269 924 l 126 924 z "},"२":{"ha":792,"x_min":3,"x_max":758,"o":"m 10 46 q 483 394 303 226 q 690 714 663 563 q 696 772 696 740 q 650 896 696 850 q 503 942 604 942 q 305 868 382 942 q 197 674 228 794 l 136 674 q 273 911 172 826 q 513 996 374 996 q 690 942 622 996 q 758 782 758 889 q 753 717 758 749 q 532 368 722 544 q 114 57 342 192 l 668 57 l 658 4 l 3 4 l 10 46 z "},"३":{"ha":806,"x_min":47,"x_max":767,"o":"m 149 729 q 282 928 183 856 q 522 1000 381 1000 q 704 944 642 1000 q 767 799 767 889 q 763 753 767 776 q 681 599 746 664 q 501 522 615 535 l 501 514 q 644 448 592 500 q 697 310 697 396 q 693 257 697 285 q 582 66 672 140 q 343 -8 492 -8 q 125 67 203 -8 q 53 279 47 142 l 114 279 q 174 111 113 175 q 353 47 235 47 q 544 107 472 47 q 633 261 617 167 q 638 306 638 285 q 560 443 638 397 q 339 489 483 489 l 313 489 l 322 543 l 351 543 q 700 749 665 544 q 704 790 704 769 q 654 904 704 863 q 511 946 604 946 q 325 891 407 946 q 211 729 243 836 l 149 729 z "},"४":{"ha":824,"x_min":14,"x_max":782,"o":"m 14 250 l 22 299 l 672 983 l 744 983 l 624 304 l 782 304 l 772 250 l 614 250 l 569 0 l 508 0 l 553 250 l 14 250 m 671 908 l 97 304 l 564 304 l 671 908 z "},"५":{"ha":840,"x_min":75,"x_max":815,"o":"m 806 932 l 272 932 l 201 533 q 327 620 249 586 q 490 654 406 654 q 695 585 631 654 q 760 407 760 515 q 753 335 760 374 q 627 90 726 188 q 363 -7 528 -7 q 151 67 226 -7 q 78 268 75 142 l 139 268 q 204 105 142 161 q 372 49 267 49 q 588 127 506 49 q 693 333 669 206 q 699 397 699 363 q 642 547 699 493 q 474 600 585 600 q 310 561 386 600 q 186 454 235 522 l 128 454 l 222 988 l 815 988 l 806 932 z "},"६":{"ha":863,"x_min":97,"x_max":810,"o":"m 744 739 q 699 894 747 840 q 549 949 650 949 q 301 831 397 949 q 167 447 204 713 q 301 599 206 543 q 508 656 396 656 q 706 589 636 656 q 775 400 775 522 q 768 318 775 354 q 706 156 753 229 q 578 38 658 82 q 390 -7 499 -7 q 164 73 231 -7 q 97 297 97 153 q 117 486 97 369 q 267 868 161 735 q 558 1001 374 1001 q 749 930 688 1001 q 803 739 810 858 l 744 739 m 489 601 q 348 572 418 601 q 226 484 278 543 q 160 340 174 425 q 154 275 154 311 q 214 110 154 174 q 397 46 274 46 q 601 118 517 46 q 707 317 685 190 q 714 390 714 361 q 656 547 714 492 q 489 601 597 601 z "},"७":{"ha":718,"x_min":122,"x_max":771,"o":"m 761 936 l 207 0 l 138 0 l 700 932 l 122 932 l 132 986 l 771 986 l 761 936 z "},"८":{"ha":856,"x_min":51,"x_max":818,"o":"m 322 514 q 204 583 243 535 q 165 700 165 632 q 169 747 165 722 q 288 932 190 861 q 538 1003 386 1003 q 745 946 672 1003 q 818 793 818 889 q 814 747 818 771 q 739 599 799 661 q 578 514 679 538 q 713 441 665 494 q 760 307 760 388 q 756 257 760 285 q 624 46 732 124 q 354 -32 517 -32 q 131 30 211 -32 q 51 200 51 92 q 57 257 51 231 q 145 424 75 357 q 322 514 215 492 m 528 949 q 328 895 408 949 q 229 742 247 842 q 226 704 226 729 q 287 581 226 625 q 456 536 347 536 q 655 591 575 536 q 753 742 735 646 q 757 782 757 763 q 696 906 757 863 q 528 949 635 949 m 446 486 q 228 430 319 486 q 118 258 138 374 q 114 210 114 233 q 181 70 114 119 q 364 21 247 21 q 585 83 496 21 q 693 258 674 146 q 697 306 697 283 q 628 442 697 397 q 446 486 558 486 z "},"९":{"ha":861,"x_min":97,"x_max":807,"o":"m 163 258 q 210 101 160 157 q 364 46 261 46 q 605 162 511 46 q 736 542 699 278 q 606 396 699 450 q 404 342 514 342 q 205 408 276 342 q 133 594 133 475 q 142 676 133 633 q 204 839 157 765 q 331 956 251 913 q 519 1000 411 1000 q 741 922 675 1000 q 807 700 807 843 q 788 511 807 628 q 641 124 743 257 q 351 -8 539 -8 q 159 65 221 -8 q 104 258 97 138 l 163 258 m 421 394 q 561 424 492 394 q 681 513 631 454 q 744 654 731 571 q 750 719 750 683 q 692 883 750 819 q 511 947 633 947 q 308 874 393 947 q 201 676 224 801 q 194 607 194 635 q 253 450 194 506 q 421 394 313 394 z "},"ॐ":{"ha":1454,"x_min":47,"x_max":1322,"o":"m 914 1268 q 886 1280 896 1268 q 878 1310 876 1292 q 895 1340 881 1328 q 928 1351 910 1351 q 956 1340 946 1351 q 963 1310 965 1328 q 947 1280 961 1292 q 914 1268 933 1268 m 889 1049 q 716 1102 775 1049 q 657 1231 657 1156 q 660 1265 657 1254 l 707 1265 q 704 1239 704 1249 q 751 1135 704 1178 q 890 1093 797 1093 q 1049 1144 992 1093 q 1119 1265 1106 1196 l 1167 1265 q 1083 1113 1153 1176 q 889 1049 1013 1049 m 1118 957 q 1322 736 1322 957 q 1310 613 1322 679 l 1274 411 q 1147 133 1242 225 q 868 42 1051 42 q 736 56 817 42 l 746 104 q 871 92 814 92 q 1111 172 1032 92 q 1218 413 1190 253 l 1256 617 q 1267 729 1267 681 q 1110 907 1267 907 q 955 849 1010 907 q 883 697 900 792 q 797 526 863 578 q 624 474 732 474 l 593 474 q 632 344 632 421 q 628 296 632 321 q 515 94 604 171 q 299 18 425 18 q 116 79 185 18 q 47 242 47 140 q 51 294 47 268 l 106 294 q 101 250 101 272 q 158 118 101 168 q 306 68 214 68 q 481 133 407 68 q 575 300 556 197 q 579 343 579 321 q 531 469 579 418 q 379 519 482 519 l 329 519 l 339 569 l 389 569 q 513 599 460 569 q 599 673 567 628 q 639 768 631 718 q 643 813 643 792 q 591 938 643 893 q 458 983 539 983 q 292 930 364 983 q 204 788 221 876 l 150 788 q 259 966 171 900 q 468 1032 347 1032 q 635 976 572 1032 q 699 826 699 921 q 694 778 699 803 q 621 626 678 689 q 471 547 564 564 l 471 544 q 540 521 510 539 l 626 521 q 831 699 799 521 q 921 888 851 818 q 1118 957 990 957 z "},"॰":{"ha":699,"x_min":119,"x_max":579,"o":"m 389 714 q 527 665 475 714 q 579 535 579 615 q 575 492 579 515 q 487 335 558 396 q 318 275 415 275 q 174 324 229 275 q 119 454 119 374 q 124 494 119 474 q 215 652 142 590 q 389 714 289 714 m 385 674 q 274 646 325 674 q 192 569 222 618 q 163 460 163 519 q 206 355 163 394 q 321 315 249 315 q 460 365 401 315 q 533 492 518 414 q 536 528 536 504 q 496 634 536 594 q 385 674 456 674 z "},"।":{"ha":342,"x_min":135,"x_max":371,"o":"m 371 1031 l 190 0 l 135 0 l 315 1031 l 371 1031 z "},"॥":{"ha":585,"x_min":135,"x_max":614,"o":"m 371 1031 l 190 0 l 135 0 l 315 1031 l 371 1031 m 614 1031 l 433 0 l 376 0 l 557 1031 l 614 1031 z "},"₨":{"ha":1433,"x_min":46,"x_max":1360,"o":"m 489 975 q 698 916 631 975 q 765 756 765 857 q 760 694 765 722 q 656 501 739 575 q 435 418 574 428 l 647 0 l 571 0 l 363 417 l 183 417 l 108 0 l 46 0 l 219 975 l 489 975 m 696 694 q 701 753 701 722 q 649 878 701 835 q 479 921 596 921 l 272 921 l 192 471 l 400 471 q 605 531 533 471 q 696 694 676 590 m 1294 531 q 1256 661 1300 610 q 1118 713 1213 713 q 976 671 1032 713 q 907 561 919 629 q 904 535 904 542 q 929 469 904 494 q 992 430 954 443 q 1092 403 1029 417 q 1206 370 1163 386 q 1279 321 1249 354 q 1310 232 1310 288 q 1273 108 1310 164 q 1172 21 1236 53 q 1031 -11 1108 -11 q 840 51 907 -11 q 779 224 772 114 l 843 224 q 887 93 836 144 q 1040 42 938 42 q 1178 84 1124 42 q 1244 193 1232 126 q 1247 221 1247 213 q 1222 290 1247 264 q 1157 331 1196 317 q 1054 360 1118 344 q 942 392 983 376 q 871 438 900 407 q 842 522 842 469 q 879 647 842 592 q 982 733 917 703 q 1129 764 1047 764 q 1299 708 1238 764 q 1360 556 1360 653 l 1358 531 l 1294 531 z "},"₹":{"ha":917,"x_min":128,"x_max":943,"o":"m 690 757 l 685 725 l 899 725 l 890 676 l 672 676 q 596 522 646 575 q 458 448 546 469 q 221 426 371 426 l 194 271 q 188 201 188 229 q 231 80 188 122 q 360 38 274 38 q 517 94 458 38 q 596 260 576 151 l 656 260 q 551 56 631 125 q 350 -14 472 -14 q 183 40 239 -14 q 128 192 128 94 q 135 267 128 222 l 171 474 q 423 488 339 474 q 550 545 507 503 q 615 676 593 588 l 135 676 l 143 725 l 625 725 l 632 760 l 661 926 l 178 926 l 188 975 l 943 975 l 933 926 l 719 926 l 690 757 z "},"‌":{"ha":0,"x_min":-32,"x_max":33,"o":"m -32 -319 l -32 1126 l 33 1126 l 33 -319 l -32 -319 z "},"‍":{"ha":0,"x_min":-178,"x_max":178,"o":"m 132 778 l 32 882 l 32 -319 l -33 -319 l -33 882 l -129 781 l -175 826 l -46 956 l -178 1088 l -132 1133 l 0 1001 l 133 1133 l 178 1089 l 44 956 l 178 824 l 132 778 z "},"◌":{"ha":904,"x_min":69,"x_max":835,"o":"m 478 692 q 461 649 478 665 q 418 633 444 633 q 375 649 392 633 q 358 692 358 665 q 375 734 358 718 q 418 750 392 750 q 461 734 444 750 q 478 692 478 718 m 646 671 q 629 628 646 644 q 586 613 613 613 q 543 628 560 613 q 526 671 526 644 q 543 713 526 697 q 586 729 560 729 q 629 713 613 729 q 646 671 646 697 m 315 633 q 299 591 315 607 q 256 575 282 575 q 213 591 229 575 q 196 633 196 607 q 213 676 196 660 q 256 692 229 692 q 299 676 282 692 q 315 633 315 660 m 774 568 q 757 526 774 542 q 714 510 740 510 q 671 526 688 510 q 654 568 654 542 q 671 610 654 594 q 714 626 688 626 q 757 610 740 626 q 774 568 774 594 m 210 496 q 193 453 210 469 q 150 438 176 438 q 107 453 124 438 q 90 496 90 469 q 107 538 90 522 q 150 554 124 554 q 193 538 176 554 q 210 496 210 522 m 835 410 q 818 367 835 383 q 775 351 801 351 q 732 367 749 351 q 715 410 715 383 q 732 452 715 436 q 775 468 749 468 q 818 452 801 468 q 835 410 835 436 m 189 328 q 172 285 189 301 q 129 269 156 269 q 86 285 103 269 q 69 328 69 301 q 86 370 69 354 q 129 386 103 386 q 172 370 156 386 q 189 328 189 354 m 821 243 q 804 201 821 217 q 761 185 788 185 q 718 201 735 185 q 701 243 701 217 q 718 285 701 269 q 761 301 735 301 q 804 285 788 301 q 821 243 821 269 m 251 171 q 235 128 251 144 q 192 113 218 113 q 149 128 165 113 q 132 171 132 144 q 149 213 132 197 q 192 229 165 229 q 235 213 218 229 q 251 171 251 197 m 719 110 q 703 67 719 83 q 660 51 686 51 q 617 67 633 51 q 600 110 600 83 q 617 152 600 136 q 660 168 633 168 q 703 152 686 168 q 719 110 719 136 m 388 65 q 371 23 388 39 q 328 7 354 7 q 285 23 301 7 q 268 65 268 39 q 285 108 268 92 q 328 124 301 124 q 371 108 354 124 q 388 65 388 92 m 560 46 q 543 3 560 19 q 500 -12 526 -12 q 457 3 474 -12 q 440 46 440 19 q 457 88 440 72 q 500 104 474 104 q 543 88 526 104 q 560 46 560 72 z "},"!":{"ha":349,"x_min":61,"x_max":311,"o":"m 311 975 l 172 238 l 118 238 l 242 975 l 311 975 m 106 -4 q 74 8 86 -4 q 61 39 61 19 q 81 85 61 67 q 126 104 100 104 q 158 92 146 104 q 171 61 171 81 q 151 15 171 33 q 106 -4 132 -4 z "},"\"":{"ha":319,"x_min":149,"x_max":392,"o":"m 250 1103 l 193 844 l 149 844 l 181 1103 l 250 1103 m 392 1103 l 336 844 l 290 844 l 322 1103 l 392 1103 z "},"#":{"ha":1079,"x_min":42,"x_max":1072,"o":"m 840 643 l 736 376 l 943 376 l 933 321 l 714 321 l 589 0 l 528 0 l 653 321 l 325 321 l 200 0 l 139 0 l 264 321 l 42 321 l 51 376 l 286 376 l 390 643 l 171 643 l 181 699 l 411 699 l 540 1028 l 601 1028 l 472 699 l 800 699 l 929 1028 l 990 1028 l 861 699 l 1072 699 l 1063 643 l 840 643 m 779 643 l 451 643 l 347 376 l 675 376 l 779 643 z "},"$":{"ha":786,"x_min":60,"x_max":735,"o":"m 513 983 q 678 910 622 972 q 733 761 735 847 l 667 761 q 626 868 665 818 q 504 929 586 918 l 431 518 q 555 474 507 496 q 635 410 603 451 q 667 303 667 369 q 661 246 667 274 q 610 124 650 182 q 500 28 569 65 q 338 -10 431 -10 l 318 -121 l 274 -121 l 293 -8 q 122 64 185 1 q 60 217 60 126 q 61 240 60 232 l 126 240 q 140 158 124 200 q 197 84 157 115 q 303 46 238 53 l 379 474 q 253 517 301 496 q 173 579 206 539 q 140 685 140 619 q 146 739 140 713 q 251 915 164 846 q 469 985 338 983 l 490 1106 l 535 1106 l 513 983 m 210 742 q 206 701 206 721 q 253 594 206 631 q 389 532 300 558 l 460 932 q 294 883 361 932 q 210 742 226 833 m 599 243 q 603 286 603 267 q 556 396 603 358 q 421 460 508 433 l 347 43 q 517 101 451 44 q 599 243 583 158 z "},"%":{"ha":806,"x_min":13,"x_max":829,"o":"m 126 760 q 157 875 126 824 q 238 956 188 926 q 349 986 289 986 q 460 944 418 986 q 503 835 503 903 q 472 719 503 771 q 391 639 442 668 q 281 610 340 610 q 169 651 211 610 q 126 760 126 692 m 829 975 l 78 0 l 13 0 l 764 975 l 829 975 m 340 942 q 226 892 274 942 q 179 764 179 842 q 208 683 179 713 q 289 653 238 653 q 403 703 356 653 q 450 831 450 754 q 421 912 450 882 q 340 942 392 942 m 340 139 q 370 255 340 203 q 451 336 400 307 q 561 365 501 365 q 674 324 631 365 q 717 214 717 282 q 714 176 717 189 q 638 40 700 93 q 496 -12 575 -12 q 383 29 425 -12 q 340 139 340 71 m 553 321 q 451 281 494 321 q 396 176 407 242 q 392 142 392 158 q 422 61 392 90 q 503 32 451 32 q 605 72 561 32 q 661 176 649 111 q 664 208 664 199 q 634 291 664 261 q 553 321 604 321 z "},"&":{"ha":971,"x_min":36,"x_max":961,"o":"m 838 338 q 714 188 767 244 l 864 0 l 786 0 l 671 143 q 501 23 586 61 q 315 -15 415 -15 q 113 53 189 -15 q 36 232 36 121 q 114 438 36 349 q 325 575 192 528 q 270 663 288 622 q 253 747 253 703 q 287 870 253 815 q 382 956 321 925 q 518 986 443 986 q 658 942 604 986 q 713 822 713 897 q 710 788 713 810 l 647 788 q 650 814 650 804 q 611 901 650 869 q 511 932 572 932 q 372 882 428 932 q 317 756 317 832 q 335 679 317 717 q 389 594 353 642 l 679 231 q 792 369 736 294 l 893 501 l 961 501 l 838 338 m 322 40 q 485 76 410 40 q 636 186 560 111 l 358 533 l 357 533 q 167 417 236 492 q 99 239 99 342 q 160 95 99 150 q 322 40 221 40 z "},"'":{"ha":185,"x_min":153,"x_max":258,"o":"m 258 1103 l 197 844 l 153 844 l 181 1103 l 258 1103 z "},"(":{"ha":528,"x_min":111,"x_max":625,"o":"m 276 -258 q 156 -22 200 -161 q 111 286 111 118 q 165 661 111 472 q 319 1016 218 850 q 557 1297 419 1182 l 625 1297 l 624 1290 q 382 1008 483 1171 q 227 662 281 846 q 174 294 174 478 q 217 -3 174 136 q 343 -251 260 -142 l 343 -258 l 276 -258 z "},")":{"ha":526,"x_min":-39,"x_max":464,"o":"m -39 -258 l -39 -251 q 286 196 169 -69 q 403 739 403 461 q 358 1041 403 900 q 226 1290 314 1182 l 228 1297 l 294 1297 q 419 1060 375 1200 q 464 750 464 919 q 411 377 464 565 q 260 24 358 189 q 28 -258 161 -142 l -39 -258 z "},"*":{"ha":624,"x_min":126,"x_max":632,"o":"m 614 904 l 632 857 l 414 758 l 596 657 l 564 611 l 393 728 l 363 500 l 310 500 l 358 728 l 147 610 l 126 660 l 346 758 l 165 860 l 197 904 l 369 788 l 400 1014 l 453 1014 l 404 788 l 614 904 z "},"+":{"ha":864,"x_min":99,"x_max":815,"o":"m 806 493 l 481 493 l 424 167 l 363 167 l 419 493 l 99 493 l 107 549 l 431 549 l 488 875 l 549 875 l 492 549 l 815 549 l 806 493 z "},",":{"ha":199,"x_min":-126,"x_max":114,"o":"m 114 146 l -78 -210 l -126 -210 l 42 146 l 114 146 z "},"-":{"ha":669,"x_min":17,"x_max":549,"o":"m 549 549 l 539 494 l 17 494 l 26 549 l 549 549 z "},".":{"ha":207,"x_min":-10,"x_max":100,"o":"m 35 -4 q 3 8 15 -4 q -10 39 -10 19 q 10 85 -10 67 q 56 104 29 104 q 88 92 75 104 q 100 61 100 81 q 81 15 100 33 q 35 -4 61 -4 z "},"/":{"ha":556,"x_min":-54,"x_max":661,"o":"m 661 1301 l 8 -224 l -54 -224 l 597 1301 l 661 1301 z "},":":{"ha":208,"x_min":-10,"x_max":100,"o":"m 35 -4 q 3 8 15 -4 q -10 39 -10 19 q 10 85 -10 67 q 56 104 29 104 q 88 92 75 104 q 100 61 100 81 q 81 15 100 33 q 35 -4 61 -4 m 35 613 q 3 624 15 613 q -10 656 -10 636 q 10 702 -10 683 q 56 721 29 721 q 88 709 75 721 q 100 678 100 697 q 81 631 100 650 q 35 613 61 613 z "},";":{"ha":256,"x_min":-96,"x_max":228,"o":"m 163 615 q 131 627 143 615 q 118 658 118 639 q 138 705 118 686 q 183 724 157 724 q 215 712 203 724 q 228 681 228 700 q 208 634 228 653 q 163 615 189 615 m 144 146 l -47 -210 l -96 -210 l 72 146 l 144 146 z "},"<":{"ha":614,"x_min":101,"x_max":603,"o":"m 411 196 l 101 521 l 525 847 l 603 847 l 179 521 l 489 196 l 411 196 z "},"=":{"ha":861,"x_min":81,"x_max":828,"o":"m 828 682 l 818 625 l 129 625 l 139 682 l 828 682 m 781 417 l 771 361 l 81 361 l 90 417 l 781 417 z "},">":{"ha":607,"x_min":50,"x_max":551,"o":"m 164 847 l 242 847 l 551 521 l 128 196 l 50 196 l 472 521 l 164 847 z "},"?":{"ha":690,"x_min":101,"x_max":696,"o":"m 442 985 q 627 924 558 985 q 696 761 696 864 q 690 707 696 746 q 283 411 638 414 l 247 233 l 194 233 l 231 458 l 260 458 q 506 510 408 458 q 629 707 603 561 q 633 753 633 732 q 579 884 633 836 q 433 932 525 932 q 253 874 326 932 q 161 717 181 815 l 101 717 q 219 913 124 840 q 442 985 314 985 m 179 -4 q 147 8 160 -4 q 135 39 135 19 q 154 85 135 67 q 200 104 174 104 q 232 92 219 104 q 244 61 244 81 q 225 15 244 33 q 179 -4 206 -4 z "},"@":{"ha":1363,"x_min":93,"x_max":1251,"o":"m 757 875 q 1015 817 903 875 q 1190 654 1128 758 q 1251 415 1251 550 q 1219 210 1251 308 q 1124 52 1186 113 q 981 -8 1063 -8 q 881 33 915 -8 q 850 142 847 74 q 740 31 808 71 q 594 -8 671 -8 q 431 56 490 -8 q 372 228 372 119 q 415 417 372 329 q 533 559 457 506 q 704 613 608 613 q 831 576 781 613 q 899 469 882 539 l 921 594 l 976 594 l 904 188 q 900 143 900 165 q 923 67 900 94 q 989 39 946 39 q 1099 94 1051 39 q 1172 235 1146 150 q 1197 408 1197 321 q 1142 631 1197 536 q 986 776 1088 725 q 749 828 885 828 q 443 744 581 828 q 226 516 306 660 q 147 201 147 372 q 201 -24 147 71 q 356 -167 256 -118 q 592 -217 457 -217 q 819 -171 715 -217 l 831 -218 q 576 -265 710 -265 q 325 -209 435 -265 q 154 -49 215 -153 q 93 193 93 54 q 179 538 93 382 q 417 785 265 694 q 757 875 569 875 m 874 315 q 878 372 878 344 q 833 510 878 457 q 703 563 788 563 q 560 516 622 563 q 465 394 499 469 q 432 236 432 319 q 478 94 432 146 q 611 43 525 43 q 782 116 708 43 q 874 315 856 189 z "},"A":{"ha":871,"x_min":-25,"x_max":760,"o":"m 643 250 l 181 250 l 43 0 l -25 0 l 501 953 l 571 953 l 760 0 l 692 0 l 643 250 m 633 301 l 522 872 l 208 301 l 633 301 z "},"B":{"ha":804,"x_min":46,"x_max":778,"o":"m 774 733 q 697 582 757 639 q 556 504 638 525 q 673 437 628 492 q 718 304 718 382 q 714 261 718 282 q 599 73 693 146 q 354 0 504 0 l 46 0 l 219 975 l 524 975 q 715 922 651 975 q 778 782 778 869 q 774 733 778 758 m 447 531 q 626 583 557 531 q 710 728 694 636 q 714 769 714 749 q 663 881 714 840 q 510 921 613 921 l 272 921 l 203 531 l 447 531 m 651 265 q 656 307 656 286 q 596 432 656 386 q 432 478 536 478 l 193 478 l 118 53 l 361 53 q 556 110 479 53 q 651 265 633 167 z "},"C":{"ha":1069,"x_min":83,"x_max":1042,"o":"m 93 486 q 199 744 119 631 q 397 921 279 857 q 646 985 514 985 q 913 907 813 985 q 1042 689 1013 829 l 969 689 q 861 863 946 799 q 636 928 776 928 q 423 874 524 928 q 251 720 322 821 q 157 486 181 619 q 149 389 149 435 q 190 206 149 283 q 307 88 232 129 q 481 47 382 47 q 728 112 621 47 q 899 286 836 176 l 969 286 q 765 68 893 146 q 471 -10 638 -10 q 267 40 356 -10 q 131 178 179 89 q 83 382 83 267 q 93 486 83 436 z "},"D":{"ha":978,"x_min":46,"x_max":931,"o":"m 492 975 q 818 878 706 975 q 931 603 931 781 q 919 486 931 553 q 723 128 879 256 q 318 0 567 0 l 46 0 l 219 975 l 492 975 m 329 50 q 685 165 550 50 q 857 486 821 281 q 867 593 867 539 q 770 836 867 750 q 482 922 674 922 l 272 922 l 118 50 l 329 50 z "},"E":{"ha":682,"x_min":46,"x_max":711,"o":"m 272 924 l 200 514 l 589 514 l 579 464 l 192 464 l 118 51 l 549 51 l 539 0 l 46 0 l 219 975 l 711 975 l 701 924 l 272 924 z "},"F":{"ha":668,"x_min":46,"x_max":721,"o":"m 721 975 l 711 924 l 272 924 l 200 514 l 585 514 l 575 463 l 190 463 l 108 0 l 46 0 l 219 975 l 721 975 z "},"G":{"ha":1093,"x_min":83,"x_max":1042,"o":"m 93 486 q 199 744 118 631 q 400 920 281 857 q 654 983 519 983 q 912 905 811 983 q 1042 688 1013 826 l 969 688 q 860 863 946 797 q 644 928 775 928 q 426 874 529 928 q 252 719 324 819 q 157 486 181 619 q 149 389 149 436 q 192 206 149 283 q 312 88 235 129 q 489 46 389 46 q 699 96 600 46 q 869 238 799 146 q 967 456 939 331 l 532 456 l 542 507 l 1040 507 l 1032 465 q 924 222 1004 329 q 728 52 844 114 q 479 -10 611 -10 q 272 39 361 -10 q 133 177 182 88 q 83 383 83 267 q 93 486 83 436 z "},"H":{"ha":922,"x_min":46,"x_max":913,"o":"m 913 975 l 739 0 l 676 0 l 761 474 l 193 474 l 108 0 l 46 0 l 219 975 l 282 975 l 201 524 l 769 524 l 850 975 l 913 975 z "},"I":{"ha":292,"x_min":46,"x_max":282,"o":"m 282 975 l 108 0 l 46 0 l 219 975 l 282 975 z "},"J":{"ha":643,"x_min":18,"x_max":625,"o":"m 625 975 l 492 218 q 400 53 474 117 q 219 -10 326 -10 q 70 41 122 -10 q 18 185 18 92 q 24 249 18 219 l 86 249 q 81 193 81 210 q 117 86 81 126 q 229 46 153 46 q 367 97 318 46 q 429 218 415 147 l 563 975 l 625 975 z "},"K":{"ha":738,"x_min":46,"x_max":810,"o":"m 249 486 l 639 0 l 557 0 l 190 457 l 108 0 l 46 0 l 219 975 l 282 975 l 200 513 l 731 975 l 810 975 l 249 486 z "},"L":{"ha":567,"x_min":46,"x_max":481,"o":"m 118 50 l 481 50 l 471 0 l 46 0 l 219 975 l 282 975 l 118 50 z "},"M":{"ha":1139,"x_min":46,"x_max":1125,"o":"m 1125 954 l 956 0 l 893 0 l 1040 825 l 526 0 l 476 0 l 254 819 l 108 0 l 46 0 l 215 954 l 281 954 l 517 83 l 1060 954 l 1125 954 z "},"N":{"ha":926,"x_min":46,"x_max":915,"o":"m 743 0 l 681 0 l 263 872 l 108 0 l 46 0 l 218 974 l 281 974 l 700 104 l 853 974 l 915 974 l 743 0 z "},"O":{"ha":1097,"x_min":86,"x_max":1047,"o":"m 481 -11 q 273 38 363 -11 q 135 178 183 88 q 86 385 86 268 q 160 683 86 546 q 365 902 235 821 q 653 983 494 983 q 861 934 772 983 q 999 795 950 885 q 1047 589 1047 706 q 973 289 1047 426 q 769 70 899 151 q 481 -11 639 -11 m 489 46 q 741 119 628 46 q 918 317 854 193 q 982 586 982 442 q 940 769 982 692 q 820 887 897 846 q 643 928 743 928 q 390 853 503 928 q 214 655 278 779 q 150 389 150 531 q 193 206 150 283 q 313 88 236 129 q 489 46 389 46 z "},"P":{"ha":758,"x_min":46,"x_max":765,"o":"m 760 700 q 644 499 738 571 q 392 428 550 428 l 185 428 l 108 0 l 46 0 l 219 975 l 489 975 q 697 919 629 975 q 765 763 765 863 q 760 700 765 729 m 401 482 q 696 700 660 482 q 701 760 701 728 q 479 921 701 921 l 272 921 l 194 482 l 401 482 z "},"Q":{"ha":1099,"x_min":86,"x_max":1047,"o":"m 1047 589 q 1004 357 1047 467 q 883 164 961 247 q 703 35 806 81 l 935 -199 l 846 -199 l 638 11 q 481 -11 557 -11 q 273 38 363 -11 q 135 178 183 88 q 86 385 86 268 q 160 683 86 546 q 365 902 235 821 q 653 983 494 983 q 861 934 772 983 q 999 795 950 885 q 1047 589 1047 706 m 150 389 q 193 206 150 283 q 313 88 236 129 q 489 46 389 46 q 741 119 628 46 q 918 317 854 193 q 982 586 982 442 q 940 769 982 692 q 820 887 897 846 q 643 928 743 928 q 390 853 503 928 q 214 655 278 779 q 150 389 150 531 z "},"R":{"ha":779,"x_min":46,"x_max":768,"o":"m 488 975 q 699 916 629 975 q 768 756 768 857 q 763 696 768 724 q 666 510 742 583 q 465 421 590 438 l 647 0 l 572 0 l 396 415 l 390 415 l 183 415 l 108 0 l 46 0 l 219 975 l 488 975 m 697 696 q 703 753 703 722 q 478 921 703 921 l 272 921 l 192 468 l 400 468 q 604 531 529 468 q 697 696 679 593 z "},"S":{"ha":760,"x_min":49,"x_max":718,"o":"m 335 -10 q 176 24 242 -10 q 79 114 110 57 q 54 240 49 171 l 117 240 q 133 149 114 194 q 204 74 153 104 q 340 43 256 43 q 523 103 454 43 q 592 264 592 164 q 561 363 592 324 q 487 425 531 401 q 367 478 443 449 q 239 535 286 510 q 159 605 192 561 q 126 715 126 649 q 129 750 126 725 q 176 869 136 815 q 285 953 217 922 q 444 985 354 985 q 594 953 532 985 q 688 872 657 922 q 715 764 718 821 l 651 764 q 630 841 653 801 q 558 906 607 881 q 439 932 510 932 q 260 877 331 932 q 190 726 190 822 q 219 638 190 674 q 290 580 247 603 q 404 529 332 557 q 536 469 486 496 q 621 394 586 442 q 656 274 656 346 q 653 232 656 263 q 605 110 644 165 q 496 23 565 56 q 335 -10 426 -10 z "},"T":{"ha":688,"x_min":129,"x_max":757,"o":"m 757 975 l 747 924 l 469 924 l 307 0 l 244 0 l 407 924 l 129 924 l 139 975 l 757 975 z "},"U":{"ha":896,"x_min":96,"x_max":892,"o":"m 276 975 l 168 367 q 160 272 160 315 q 221 101 160 156 q 390 46 282 46 q 605 123 518 46 q 721 367 692 200 l 829 975 l 892 975 l 783 367 q 642 83 750 176 q 381 -10 535 -10 q 172 58 249 -10 q 96 265 96 126 q 106 367 96 317 l 214 975 l 276 975 z "},"V":{"ha":888,"x_min":142,"x_max":954,"o":"m 213 975 l 389 79 l 885 975 l 954 975 l 410 0 l 340 0 l 142 975 l 213 975 z "},"W":{"ha":1290,"x_min":147,"x_max":1353,"o":"m 1353 975 l 911 0 l 843 0 l 731 876 l 308 0 l 240 0 l 147 975 l 217 975 l 293 92 l 715 975 l 788 975 l 893 92 l 1283 975 l 1353 975 z "},"X":{"ha":754,"x_min":-19,"x_max":810,"o":"m 431 488 l 636 0 l 565 0 l 381 438 l 51 0 l -19 0 l 358 492 l 154 975 l 225 975 l 407 543 l 739 975 l 810 975 l 431 488 z "},"Y":{"ha":751,"x_min":140,"x_max":821,"o":"m 821 975 l 410 394 l 340 0 l 278 0 l 347 394 l 140 975 l 213 975 l 389 454 l 749 975 l 821 975 z "},"Z":{"ha":703,"x_min":-14,"x_max":743,"o":"m 69 56 l 592 56 l 581 0 l -14 0 l -4 53 l 661 918 l 161 918 l 172 975 l 743 975 l 733 921 l 69 56 z "},"[":{"ha":417,"x_min":29,"x_max":476,"o":"m 476 1301 l 467 1247 l 354 1247 l 99 -200 l 211 -200 l 201 -254 l 29 -254 l 303 1301 l 476 1301 z "},"\\":{"ha":643,"x_min":200,"x_max":451,"o":"m 389 -224 l 200 1301 l 265 1301 l 451 -224 l 389 -224 z "},"]":{"ha":417,"x_min":-10,"x_max":438,"o":"m 164 -257 l -10 -257 l 0 -204 l 113 -204 l 368 1244 l 256 1244 l 264 1297 l 438 1297 l 164 -257 z "},"^":{"ha":804,"x_min":29,"x_max":725,"o":"m 93 239 l 29 239 l 476 953 l 529 953 l 725 239 l 661 239 l 490 872 l 93 239 z "},"_":{"ha":838,"x_min":1,"x_max":679,"o":"m 679 -46 l 669 -103 l 1 -103 l 11 -46 l 679 -46 z "},"`":{"ha":367,"x_min":151,"x_max":401,"o":"m 401 867 l 393 815 l 151 988 l 163 1049 l 401 867 z "},"a":{"ha":935,"x_min":65,"x_max":886,"o":"m 74 378 q 156 582 94 494 q 310 717 218 669 q 507 764 401 764 q 698 706 625 764 q 789 557 771 647 l 824 754 l 886 754 l 751 0 l 690 0 l 725 199 q 582 48 676 107 q 368 -11 488 -11 q 148 70 231 -11 q 65 290 65 151 q 74 378 65 332 m 757 378 q 764 451 764 419 q 693 640 764 569 q 506 710 622 710 q 337 670 414 710 q 208 556 260 631 q 138 378 156 481 q 131 300 131 332 q 199 112 131 179 q 388 44 268 44 q 553 85 475 44 q 685 202 632 126 q 757 378 739 278 z "},"b":{"ha":935,"x_min":46,"x_max":867,"o":"m 207 556 q 351 706 257 647 q 563 764 444 764 q 785 684 703 764 q 867 465 867 604 q 858 378 867 424 q 776 173 838 261 q 623 37 714 85 q 426 -11 532 -11 q 235 47 308 -11 q 143 197 163 106 l 108 0 l 46 0 l 228 1028 l 290 1028 l 207 556 m 794 378 q 801 457 801 413 q 732 643 801 576 q 544 710 663 710 q 379 669 457 710 q 247 552 301 628 q 175 378 193 476 q 168 304 168 333 q 240 115 168 185 q 426 44 311 44 q 595 85 518 44 q 724 200 672 125 q 794 378 776 275 z "},"c":{"ha":863,"x_min":65,"x_max":807,"o":"m 74 378 q 157 583 94 496 q 310 717 219 671 q 507 764 401 764 q 727 693 649 764 q 807 503 806 622 l 742 503 q 674 655 740 599 q 497 711 608 711 q 340 674 415 711 q 211 562 265 638 q 138 378 157 486 q 129 294 129 335 q 199 108 129 172 q 379 43 269 43 q 576 99 490 43 q 697 251 661 154 l 764 251 q 615 60 719 132 q 369 -11 511 -11 q 148 69 231 -11 q 65 288 65 149 q 74 378 65 331 z "},"d":{"ha":935,"x_min":65,"x_max":933,"o":"m 74 378 q 156 582 94 494 q 310 717 218 669 q 507 764 401 764 q 697 706 622 764 q 789 557 771 649 l 872 1028 l 933 1028 l 751 0 l 690 0 l 726 200 q 583 48 678 107 q 369 -11 489 -11 q 148 70 231 -11 q 65 290 65 151 q 74 378 65 332 m 757 378 q 764 451 764 419 q 693 640 764 569 q 506 710 622 710 q 337 670 414 710 q 208 556 260 631 q 138 378 156 481 q 131 300 131 332 q 199 112 131 179 q 388 44 268 44 q 553 85 475 44 q 685 202 632 126 q 757 378 739 278 z "},"e":{"ha":868,"x_min":65,"x_max":807,"o":"m 508 764 q 672 727 604 764 q 773 628 739 690 q 807 490 807 567 q 801 429 807 457 q 785 354 793 379 l 133 354 q 128 290 128 310 q 200 107 128 171 q 382 43 272 43 q 577 98 492 43 q 699 247 663 153 l 764 247 q 616 60 719 132 q 372 -11 513 -11 q 149 69 233 -11 q 65 289 65 150 q 74 378 65 332 q 157 583 94 496 q 310 717 219 671 q 508 764 401 764 m 735 403 q 744 485 744 443 q 674 653 744 594 q 497 711 604 711 q 344 676 418 711 q 217 572 271 642 q 142 403 163 503 l 735 403 z "},"f":{"ha":447,"x_min":75,"x_max":514,"o":"m 504 985 q 347 943 396 985 q 281 807 297 901 l 271 754 l 467 754 l 457 699 l 261 699 l 138 0 l 75 0 l 197 699 l 85 699 l 94 754 l 207 754 l 217 807 q 308 983 238 926 q 514 1040 378 1040 l 504 985 z "},"g":{"ha":935,"x_min":33,"x_max":886,"o":"m 507 764 q 699 706 625 764 q 789 558 772 649 l 824 754 l 886 754 l 749 -24 q 670 -206 729 -128 q 526 -327 611 -285 q 344 -369 440 -369 q 122 -301 203 -369 q 33 -118 40 -233 l 96 -118 q 174 -262 107 -208 q 354 -315 240 -315 q 503 -280 433 -315 q 622 -178 574 -244 q 686 -24 671 -112 l 725 197 q 582 48 676 107 q 369 -11 488 -11 q 148 70 231 -11 q 65 290 65 151 q 74 378 65 332 q 156 582 94 494 q 310 717 218 669 q 507 764 401 764 m 757 378 q 764 451 764 419 q 693 640 764 569 q 506 710 622 710 q 337 670 414 710 q 208 556 260 631 q 138 378 156 481 q 131 300 131 332 q 199 112 131 179 q 388 44 268 44 q 553 85 475 44 q 685 202 632 126 q 757 378 739 278 z "},"h":{"ha":865,"x_min":46,"x_max":776,"o":"m 525 769 q 707 708 638 769 q 776 525 776 646 q 768 442 776 488 l 690 0 l 629 0 l 707 438 q 714 511 714 482 q 658 663 714 611 q 503 715 603 715 q 294 637 381 715 q 181 407 208 558 l 181 408 l 108 0 l 46 0 l 228 1028 l 290 1028 l 214 593 q 344 724 261 679 q 525 769 426 769 z "},"i":{"ha":292,"x_min":46,"x_max":306,"o":"m 240 922 q 208 934 221 922 q 196 965 196 946 q 215 1012 196 993 q 260 1031 235 1031 q 292 1018 279 1031 q 306 986 306 1006 q 285 940 306 958 q 240 922 265 922 m 243 754 l 108 0 l 46 0 l 181 754 l 243 754 z "},"j":{"ha":301,"x_min":-165,"x_max":315,"o":"m 251 922 q 219 934 232 922 q 206 965 206 946 q 225 1012 206 993 q 269 1031 244 1031 q 302 1018 289 1031 q 315 986 315 1006 q 296 940 315 958 q 251 922 276 922 m 85 -194 q 24 -315 71 -275 q -107 -356 -22 -356 l -165 -356 l -157 -300 l -106 -300 q -17 -275 -47 -300 q 24 -189 14 -250 l 190 754 l 253 754 l 85 -194 z "},"k":{"ha":607,"x_min":46,"x_max":653,"o":"m 221 379 l 524 0 l 438 0 l 169 346 l 108 0 l 46 0 l 228 1028 l 290 1028 l 182 413 l 565 754 l 653 754 l 221 379 z "},"l":{"ha":292,"x_min":46,"x_max":290,"o":"m 290 1028 l 108 0 l 46 0 l 228 1028 l 290 1028 z "},"m":{"ha":1407,"x_min":46,"x_max":1318,"o":"m 1074 769 q 1251 708 1185 769 q 1318 525 1318 646 q 1310 442 1318 488 l 1231 0 l 1169 0 l 1247 438 q 1254 515 1254 472 q 1202 664 1254 613 q 1056 715 1150 715 q 853 635 939 715 q 742 401 768 554 l 742 403 l 669 0 l 608 0 l 686 438 q 693 515 693 472 q 641 664 693 613 q 494 715 589 715 q 292 635 378 715 q 181 401 207 554 l 181 404 l 108 0 l 46 0 l 181 754 l 243 754 l 214 593 q 342 725 263 681 q 513 769 421 769 q 680 717 615 769 q 754 560 744 664 q 886 716 800 663 q 1074 769 972 769 z "},"n":{"ha":865,"x_min":46,"x_max":776,"o":"m 522 769 q 707 708 638 769 q 776 525 776 646 q 768 442 776 488 l 690 0 l 629 0 l 707 438 q 714 511 714 482 q 658 663 714 611 q 503 715 603 715 q 301 643 386 715 q 185 431 217 571 l 108 0 l 46 0 l 181 754 l 243 754 l 215 596 q 344 725 263 681 q 522 769 425 769 z "},"o":{"ha":896,"x_min":67,"x_max":826,"o":"m 379 -11 q 152 71 238 -11 q 67 293 67 153 q 124 529 67 421 q 285 701 182 638 q 514 764 388 764 q 676 727 606 764 q 787 622 747 690 q 826 460 826 553 q 768 224 826 332 q 608 52 710 115 q 379 -11 506 -11 m 388 43 q 581 100 496 43 q 715 251 667 157 q 763 457 763 346 q 689 646 763 581 q 504 711 615 711 q 310 654 394 711 q 178 502 225 597 q 131 297 131 407 q 203 108 131 174 q 388 43 276 43 z "},"p":{"ha":935,"x_min":-15,"x_max":867,"o":"m 207 556 q 350 705 256 646 q 563 764 444 764 q 785 684 703 764 q 867 465 867 604 q 858 378 867 424 q 776 173 838 261 q 623 37 714 85 q 426 -11 532 -11 q 235 48 308 -11 q 143 197 161 107 l 46 -356 l -15 -356 l 181 754 l 242 754 l 207 556 m 794 378 q 801 457 801 413 q 732 643 801 576 q 544 710 663 710 q 379 669 457 710 q 247 552 301 628 q 175 378 193 476 q 168 304 168 333 q 240 115 168 185 q 426 44 311 44 q 595 85 518 44 q 724 200 672 125 q 794 378 776 275 z "},"q":{"ha":935,"x_min":65,"x_max":886,"o":"m 74 378 q 156 582 94 494 q 310 717 218 669 q 507 764 401 764 q 699 706 625 764 q 789 557 772 647 l 824 754 l 886 754 l 690 -356 l 628 -356 l 725 197 q 583 48 678 107 q 368 -11 488 -11 q 148 70 231 -11 q 65 290 65 151 q 74 378 65 332 m 757 378 q 764 451 764 419 q 693 640 764 569 q 506 710 622 710 q 337 670 414 710 q 208 556 260 631 q 138 378 156 481 q 131 300 131 332 q 199 112 131 179 q 388 44 268 44 q 553 85 475 44 q 685 202 632 126 q 757 378 739 278 z "},"r":{"ha":486,"x_min":46,"x_max":524,"o":"m 214 592 q 337 724 258 678 q 524 769 415 769 l 511 704 l 492 704 q 296 641 381 704 q 186 435 211 578 l 108 0 l 46 0 l 181 754 l 243 754 l 214 592 z "},"s":{"ha":690,"x_min":29,"x_max":617,"o":"m 283 -11 q 98 44 167 -11 q 38 203 29 100 l 100 203 q 142 85 93 129 q 288 42 192 42 q 444 85 386 42 q 503 199 503 129 q 479 268 503 240 q 421 313 456 296 q 324 351 386 329 q 210 397 254 375 q 137 459 167 419 q 107 560 107 499 q 142 666 107 619 q 238 738 176 713 q 374 764 299 764 q 547 710 478 764 q 617 569 617 657 q 615 542 617 551 l 554 542 q 556 564 556 549 q 502 672 556 631 q 368 713 449 713 q 226 672 282 713 q 169 561 169 631 q 194 485 169 515 q 256 438 219 456 q 356 399 293 421 q 466 354 425 375 q 536 296 507 333 q 565 200 565 258 q 487 46 565 103 q 283 -11 408 -11 z "},"t":{"ha":482,"x_min":86,"x_max":496,"o":"m 175 201 q 169 146 169 174 q 197 76 169 96 q 289 56 225 56 l 372 56 l 363 0 l 268 0 q 145 32 185 0 q 106 138 106 64 q 111 201 106 169 l 200 700 l 86 700 l 96 754 l 210 754 l 243 946 l 307 946 l 274 754 l 496 754 l 486 700 l 264 700 l 175 201 z "},"u":{"ha":865,"x_min":88,"x_max":817,"o":"m 817 754 l 683 0 l 621 0 l 650 163 q 521 33 603 78 q 343 -12 439 -12 q 158 49 228 -12 q 88 233 88 111 q 94 315 88 279 l 174 754 l 235 754 l 157 319 q 150 247 150 275 q 206 94 150 146 q 361 42 261 42 q 570 120 483 42 q 682 350 657 199 l 682 346 l 754 754 l 817 754 z "},"v":{"ha":738,"x_min":90,"x_max":779,"o":"m 315 74 l 711 754 l 779 754 l 333 0 l 268 0 l 90 754 l 157 754 l 315 74 z "},"w":{"ha":1124,"x_min":90,"x_max":1165,"o":"m 1165 754 l 794 0 l 735 0 l 613 669 l 253 0 l 193 0 l 90 754 l 156 754 l 239 79 l 599 754 l 660 754 l 779 79 l 1101 754 l 1165 754 z "},"x":{"ha":608,"x_min":-44,"x_max":644,"o":"m 340 381 l 517 0 l 444 0 l 290 331 l 22 0 l -44 0 l 267 381 l 93 754 l 165 754 l 315 432 l 578 754 l 644 754 l 340 381 z "},"y":{"ha":728,"x_min":67,"x_max":769,"o":"m 158 754 l 321 78 l 703 754 l 769 754 l 135 -354 l 67 -354 l 271 1 l 90 754 l 158 754 z "},"z":{"ha":589,"x_min":-21,"x_max":597,"o":"m 60 53 l 483 53 l 474 0 l -21 0 l -11 53 l 517 701 l 113 701 l 122 754 l 597 754 l 588 701 l 60 53 z "},"{":{"ha":492,"x_min":107,"x_max":618,"o":"m 117 546 q 249 615 210 569 q 301 728 289 660 q 313 833 310 776 q 315 901 315 889 q 319 1010 317 967 q 331 1096 322 1053 q 408 1245 347 1197 q 563 1293 468 1293 l 618 1293 l 608 1238 l 561 1238 q 447 1203 490 1238 q 390 1093 404 1169 q 378 976 381 1038 q 375 901 375 914 q 372 832 375 890 q 361 726 369 774 q 169 519 332 553 l 169 517 q 264 463 235 496 q 293 371 293 429 q 279 276 293 333 q 238 126 265 218 q 197 -15 211 40 q 183 -104 183 -69 q 307 -203 183 -203 l 356 -203 l 346 -258 l 289 -258 q 165 -222 208 -258 q 121 -112 121 -186 q 136 -14 121 -74 q 179 138 151 46 q 219 279 206 228 q 232 363 232 331 q 205 440 232 413 q 107 489 178 468 l 117 546 z "},"|":{"ha":314,"x_min":35,"x_max":313,"o":"m 97 -129 l 35 -129 l 250 1089 l 313 1089 l 97 -129 z "},"}":{"ha":492,"x_min":-78,"x_max":433,"o":"m 424 489 q 290 416 329 464 q 240 307 251 368 q 226 129 229 242 q 211 -61 224 11 q 133 -210 193 -162 q -21 -258 72 -258 l -78 -258 l -68 -203 l -19 -203 q 94 -169 51 -203 q 150 -58 138 -135 q 165 138 163 14 q 168 206 165 150 q 179 308 171 263 q 242 442 192 388 q 378 517 292 497 l 378 519 q 249 679 249 551 q 253 726 249 701 q 299 893 263 774 q 331 995 315 942 q 353 1093 346 1049 q 357 1135 357 1117 q 233 1238 357 1238 l 186 1238 l 196 1293 l 251 1293 q 419 1147 419 1293 q 415 1096 419 1124 q 363 906 400 1018 q 334 813 347 860 q 314 728 321 765 q 310 686 310 707 q 433 546 310 582 l 424 489 z "},"~":{"ha":625,"x_min":53,"x_max":594,"o":"m 53 372 q 124 485 79 446 q 228 524 168 524 q 287 511 263 524 q 342 474 311 499 q 389 441 369 451 q 435 431 408 431 q 499 457 469 431 q 543 522 529 483 l 594 522 q 524 411 569 450 q 418 372 478 372 q 360 385 385 372 q 306 421 336 397 q 258 453 279 442 q 211 464 238 464 q 147 438 176 464 q 103 372 118 413 l 53 372 z "}," ":{"ha":407,"x_min":0,"x_max":0,"o":""},"¡":{"ha":394,"x_min":61,"x_max":311,"o":"m 267 774 q 299 762 286 774 q 311 731 311 750 q 292 684 311 703 q 246 665 272 665 q 214 677 226 665 q 201 708 201 689 q 221 755 201 736 q 267 774 240 774 m 61 -206 l 200 532 l 254 532 l 131 -206 l 61 -206 z "},"¢":{"ha":854,"x_min":76,"x_max":764,"o":"m 476 667 q 329 633 399 667 q 210 533 260 600 q 143 371 161 467 q 136 303 136 329 q 202 134 136 192 q 374 76 268 76 q 556 131 478 76 q 669 282 635 186 l 729 282 q 599 97 692 168 q 378 22 506 26 l 351 -128 l 307 -128 l 335 24 q 145 104 214 32 q 76 294 76 176 q 83 371 76 326 q 211 614 110 521 q 456 718 313 707 l 481 860 l 525 860 l 500 719 q 695 644 626 715 q 761 461 764 574 l 701 461 q 641 611 701 556 q 476 667 581 667 z "},"£":{"ha":789,"x_min":76,"x_max":785,"o":"m 540 992 q 723 924 661 992 q 785 750 785 857 q 783 719 785 731 l 724 719 q 725 747 725 729 q 674 885 725 832 q 531 938 622 938 q 367 882 439 938 q 276 718 296 826 q 271 650 271 686 q 279 556 271 604 q 290 493 288 507 l 558 493 l 550 446 l 299 446 q 306 369 306 404 q 300 307 306 335 q 251 176 288 235 q 146 54 214 117 l 661 54 l 651 -1 l 81 -1 l 76 42 q 189 168 150 113 q 242 301 228 224 q 246 360 246 333 q 238 446 246 404 l 78 446 l 86 493 l 229 493 q 210 642 210 585 q 217 719 210 674 q 276 860 231 799 q 390 957 321 922 q 540 992 458 992 z "},"¤":{"ha":714,"x_min":78,"x_max":683,"o":"m 582 679 q 608 574 608 633 q 604 524 608 551 q 528 369 588 433 l 599 286 l 560 254 l 492 336 q 338 282 421 282 q 201 336 251 282 l 106 254 l 78 286 l 178 369 q 154 471 154 417 q 160 524 154 488 q 233 679 176 615 l 163 764 l 201 796 l 271 713 q 424 765 342 765 q 557 713 504 765 l 656 796 l 683 764 l 582 679 m 550 524 q 554 569 554 549 q 515 681 554 639 q 415 722 475 722 q 287 668 343 722 q 214 524 231 614 q 210 474 210 497 q 247 364 210 403 q 346 325 285 325 q 475 379 415 325 q 550 524 535 433 z "},"¥":{"ha":797,"x_min":72,"x_max":846,"o":"m 508 499 l 732 499 l 724 450 l 474 449 l 435 394 l 421 315 l 700 315 l 690 265 l 413 265 l 365 0 l 303 0 l 350 265 l 72 265 l 82 315 l 358 315 l 372 394 l 353 449 l 106 450 l 114 499 l 335 499 l 167 975 l 238 975 l 414 454 l 774 975 l 846 975 l 508 499 z "},"¦":{"ha":314,"x_min":35,"x_max":313,"o":"m 250 1089 l 313 1089 l 224 589 l 161 589 l 250 1089 m 97 -129 l 35 -129 l 124 372 l 186 372 l 97 -129 z "},"§":{"ha":790,"x_min":51,"x_max":744,"o":"m 674 790 q 631 917 679 863 q 475 972 583 972 q 326 937 385 972 q 254 833 267 901 q 251 807 251 814 q 298 721 251 756 q 454 656 344 686 q 653 572 585 619 q 721 436 721 524 q 684 313 721 372 q 578 214 647 254 q 418 167 510 174 q 556 101 504 140 q 607 -4 607 63 q 604 -35 607 -12 q 512 -173 589 -118 q 317 -228 435 -228 q 121 -167 190 -228 q 60 1 51 -107 l 122 1 q 166 -128 118 -76 q 326 -181 214 -181 q 472 -144 414 -181 q 542 -37 529 -108 q 544 -11 544 -18 q 497 72 544 39 q 340 138 450 106 q 142 221 210 174 q 74 356 74 268 q 111 479 74 419 q 218 579 149 539 q 381 625 288 619 q 241 691 294 650 q 188 800 188 732 q 190 829 188 810 q 285 967 206 913 q 483 1021 364 1021 q 676 960 607 1021 q 736 790 744 899 l 674 790 m 656 426 q 596 542 656 499 q 428 585 536 585 q 274 553 340 585 q 174 472 208 522 q 139 365 139 422 q 199 251 139 294 q 368 208 258 208 q 520 239 454 208 q 621 320 586 269 q 656 426 656 371 z "},"¨":{"ha":440,"x_min":163,"x_max":468,"o":"m 207 868 q 175 881 188 868 q 163 913 163 893 q 181 955 163 936 q 225 974 200 974 q 255 961 243 974 q 267 931 267 949 q 249 887 267 906 q 207 868 231 868 m 407 868 q 375 881 388 868 q 363 913 363 893 q 381 955 363 936 q 425 974 400 974 q 456 961 443 974 q 468 931 468 949 q 449 887 468 906 q 407 868 431 868 z "},"©":{"ha":1110,"x_min":86,"x_max":1060,"o":"m 660 976 q 872 928 782 976 q 1011 793 963 881 q 1060 592 1060 706 q 1050 488 1060 538 q 946 235 1025 346 q 747 61 867 124 q 489 -1 628 -1 q 274 47 365 -1 q 135 183 183 96 q 86 386 86 271 q 96 488 86 426 q 201 740 121 629 q 400 914 281 851 q 660 976 519 976 m 654 940 q 413 883 522 940 q 231 722 303 825 q 135 488 158 619 q 126 390 126 438 q 170 204 126 285 q 297 78 214 124 q 494 33 379 33 q 735 92 626 33 q 917 253 844 150 q 1011 488 989 357 q 1021 588 1021 549 q 978 773 1021 693 q 852 897 935 853 q 654 940 769 940 m 633 815 q 477 777 551 815 q 349 665 403 739 q 278 489 296 590 q 271 413 271 444 q 340 226 271 293 q 518 160 410 160 q 706 216 618 160 q 839 372 793 272 l 779 372 q 672 253 739 294 q 528 211 606 211 q 385 265 440 211 q 329 419 329 319 q 335 486 329 454 q 395 638 351 575 q 499 733 439 701 q 625 765 560 765 q 755 723 701 765 q 819 603 808 681 l 879 603 q 802 760 869 704 q 633 815 735 815 z "},"ª":{"ha":610,"x_min":110,"x_max":635,"o":"m 114 735 q 208 915 133 846 q 385 985 283 985 q 506 948 461 985 q 560 849 551 911 l 582 976 l 635 976 l 550 492 l 497 492 l 519 618 q 431 518 489 554 q 297 482 374 482 q 160 536 211 482 q 110 679 110 590 q 114 735 110 706 m 539 733 q 543 782 543 758 q 500 898 543 856 q 386 940 457 940 q 246 884 307 940 q 168 733 185 828 q 164 685 164 708 q 205 569 164 611 q 314 526 246 526 q 460 583 397 526 q 539 733 522 639 z "},"«":{"ha":563,"x_min":67,"x_max":540,"o":"m 168 167 l 67 410 l 253 653 l 321 653 l 131 410 l 236 167 l 168 167 m 386 167 l 285 410 l 471 653 l 540 653 l 350 410 l 454 167 l 386 167 z "},"¬":{"ha":999,"x_min":103,"x_max":969,"o":"m 969 593 l 924 338 l 864 338 l 900 540 l 103 540 l 113 593 l 969 593 z "},"­":{"ha":669,"x_min":17,"x_max":549,"o":"m 549 549 l 539 494 l 17 494 l 26 549 l 549 549 z "},"®":{"ha":686,"x_min":132,"x_max":674,"o":"m 451 985 q 613 924 553 985 q 674 768 674 864 q 668 714 674 753 q 609 575 654 638 q 497 477 564 513 q 354 442 431 442 q 192 502 253 442 q 132 660 132 563 q 138 714 132 675 q 195 852 150 790 q 307 949 240 914 q 451 985 374 985 m 629 714 q 633 763 633 739 q 583 897 633 846 q 444 949 532 949 q 269 883 343 949 q 176 714 194 817 q 172 665 172 689 q 223 530 172 582 q 361 478 274 478 q 537 544 463 478 q 629 714 611 611 m 451 863 q 512 844 490 863 q 533 793 533 826 q 506 722 533 750 q 435 690 478 694 l 500 567 l 450 565 l 388 690 l 343 690 l 319 565 l 276 565 l 329 863 l 451 863 m 488 776 q 440 822 496 822 l 365 822 l 349 729 l 424 729 q 488 776 478 729 z "},"¯":{"ha":539,"x_min":138,"x_max":596,"o":"m 596 956 l 588 907 l 138 907 l 146 956 l 596 956 z "},"°":{"ha":521,"x_min":96,"x_max":546,"o":"m 101 724 q 192 898 119 832 q 363 964 264 964 q 497 914 447 964 q 546 778 546 864 q 540 724 546 763 q 449 548 521 614 q 278 482 376 482 q 144 531 193 482 q 96 667 96 581 q 101 724 96 697 m 486 724 q 492 775 492 760 q 455 883 492 844 q 354 921 418 921 q 226 868 281 921 q 154 724 171 815 q 149 669 149 685 q 185 563 149 600 q 285 525 221 525 q 415 578 360 525 q 486 724 469 631 z "},"±":{"ha":865,"x_min":36,"x_max":824,"o":"m 824 590 l 813 535 l 489 535 l 435 229 l 375 229 l 429 535 l 106 535 l 117 590 l 439 590 l 489 876 l 549 876 l 499 590 l 824 590 m 46 194 l 753 194 l 743 139 l 36 139 l 46 194 z "},"²":{"ha":432,"x_min":69,"x_max":447,"o":"m 444 843 q 396 740 435 785 q 282 638 357 694 l 143 533 l 403 533 l 394 489 l 69 489 l 76 524 l 257 668 q 347 753 314 715 q 389 840 379 790 q 392 865 392 857 q 369 922 392 903 q 311 940 346 940 q 231 913 264 940 q 183 833 199 885 l 131 833 q 194 941 146 899 q 319 983 243 983 q 413 953 378 983 q 447 872 447 922 q 444 843 447 863 z "},"³":{"ha":435,"x_min":85,"x_max":463,"o":"m 133 856 q 202 948 151 913 q 325 983 253 983 q 424 952 386 983 q 463 869 463 921 q 433 782 463 818 q 350 733 403 746 l 350 731 q 424 635 424 706 q 401 561 424 596 q 334 504 378 526 q 233 482 290 482 q 122 517 160 482 q 90 621 85 553 l 143 621 q 239 525 138 525 q 333 556 297 525 q 368 635 368 586 q 340 691 368 671 q 268 711 313 711 l 192 711 l 200 751 l 278 751 q 362 776 328 751 q 404 844 396 800 q 406 863 406 851 q 382 918 406 897 q 315 939 358 939 q 234 917 267 939 q 186 856 201 894 l 133 856 z "},"´":{"ha":361,"x_min":121,"x_max":435,"o":"m 424 988 l 121 815 l 129 867 l 435 1049 l 424 988 z "},"µ":{"ha":872,"x_min":-15,"x_max":824,"o":"m 824 754 l 690 0 l 628 0 l 660 181 q 531 34 613 83 q 357 -15 450 -15 q 210 25 271 -15 q 136 158 150 65 l 46 -356 l -15 -356 l 181 754 l 242 754 l 171 358 q 163 267 163 308 q 220 97 163 154 q 379 39 278 39 q 579 117 496 39 q 689 347 663 196 l 689 346 l 761 754 l 824 754 z "},"¶":{"ha":732,"x_min":81,"x_max":718,"o":"m 549 0 l 492 0 l 651 903 l 517 903 l 356 0 l 299 0 l 371 407 l 365 407 q 152 465 224 407 q 81 624 81 524 q 86 679 81 640 q 206 879 108 804 q 461 954 303 954 l 718 954 l 549 0 z "},"·":{"ha":206,"x_min":-8,"x_max":101,"o":"m 36 436 q 4 448 17 436 q -8 479 -8 460 q 11 526 -8 507 q 57 544 31 544 q 89 533 76 544 q 101 501 101 521 q 82 455 101 474 q 36 436 63 436 z "},"¸":{"ha":357,"x_min":-86,"x_max":207,"o":"m 50 -108 q 166 -129 125 -104 q 207 -204 207 -154 q 158 -313 207 -271 q 28 -356 108 -356 l -86 -356 l -78 -308 l 24 -308 q 113 -288 83 -308 q 150 -228 143 -268 q 151 -212 151 -222 q 51 -151 151 -151 l -6 -151 l 22 10 l 71 10 l 50 -108 z "},"¹":{"ha":235,"x_min":142,"x_max":282,"o":"m 144 935 l 153 978 l 282 978 l 194 489 l 142 489 l 219 935 l 144 935 z "},"º":{"ha":585,"x_min":110,"x_max":600,"o":"m 114 732 q 167 864 126 807 q 269 953 208 921 q 397 985 329 985 q 544 931 489 985 q 600 786 600 876 q 594 732 600 758 q 541 599 582 657 q 440 510 500 542 q 310 478 379 478 q 165 533 219 478 q 110 679 110 588 q 114 732 110 706 m 540 731 q 546 782 546 767 q 503 899 546 857 q 390 940 460 940 q 247 885 310 940 q 168 731 185 829 q 164 681 164 704 q 206 565 164 606 q 318 524 249 524 q 460 578 397 524 q 540 731 524 633 z "},"»":{"ha":563,"x_min":32,"x_max":504,"o":"m 221 410 l 117 653 l 185 653 l 285 410 l 100 167 l 32 167 l 221 410 m 439 410 l 335 653 l 404 653 l 504 410 l 319 167 l 250 167 l 439 410 z "},"¼":{"ha":774,"x_min":14,"x_max":742,"o":"m 169 935 l 178 978 l 307 978 l 219 489 l 167 489 l 244 935 l 169 935 m 742 975 l 74 0 l 14 0 l 682 975 l 742 975 m 669 103 l 597 103 l 578 0 l 525 0 l 543 103 l 299 103 l 306 139 l 604 492 l 665 492 l 603 143 l 676 143 l 669 103 m 600 421 l 364 143 l 551 143 l 600 421 z "},"½":{"ha":864,"x_min":-4,"x_max":878,"o":"m 171 489 l 249 935 l 174 935 l 182 978 l 311 978 l 224 489 l 171 489 m 721 975 l 56 0 l -4 0 l 661 975 l 721 975 m 875 353 q 826 249 865 294 q 713 147 788 204 l 574 43 l 833 43 l 825 -1 l 500 -1 l 507 33 l 688 178 q 777 263 744 225 q 819 350 810 300 q 822 375 822 367 q 799 431 822 413 q 742 450 776 450 q 662 422 694 450 q 614 343 629 394 l 561 343 q 625 451 576 408 q 750 493 674 493 q 843 463 808 493 q 878 382 878 432 q 875 353 878 372 z "},"¾":{"ha":817,"x_min":92,"x_max":828,"o":"m 156 856 q 224 948 174 913 q 347 983 275 983 q 447 952 408 983 q 485 869 485 921 q 455 782 485 818 q 372 733 425 746 l 372 731 q 446 635 446 706 q 423 561 446 596 q 356 504 400 526 q 256 482 313 482 q 144 517 182 482 q 113 621 107 553 l 165 621 q 261 525 160 525 q 355 556 319 525 q 390 635 390 586 q 363 691 390 671 q 290 711 335 711 l 214 711 l 222 751 l 300 751 q 384 776 350 751 q 426 844 418 800 q 428 863 428 851 q 404 918 428 897 q 338 939 381 939 q 256 917 289 939 q 208 856 224 894 l 156 856 m 828 975 l 153 0 l 92 0 l 768 975 l 828 975 m 717 103 l 644 103 l 625 0 l 572 0 l 590 103 l 347 103 l 353 139 l 651 492 l 713 492 l 651 143 l 724 143 l 717 103 m 647 421 l 411 143 l 599 143 l 647 421 z "},"¿":{"ha":669,"x_min":-15,"x_max":579,"o":"m 501 757 q 533 745 521 757 q 546 714 546 733 q 526 667 546 686 q 481 649 507 649 q 449 660 461 649 q 436 692 436 672 q 456 738 436 719 q 501 757 475 757 m 239 -232 q 53 -172 122 -232 q -15 -8 -15 -111 q -10 46 -15 7 q 397 342 43 339 l 433 519 l 486 519 l 450 294 l 421 294 q 175 243 272 294 q 51 46 78 192 q 47 0 47 21 q 101 -131 47 -83 q 247 -179 156 -179 q 427 -121 354 -179 q 519 36 500 -62 l 579 36 q 462 -160 557 -87 q 239 -232 367 -232 z "},"À":{"ha":871,"x_min":-25,"x_max":760,"o":"m 643 250 l 181 250 l 43 0 l -25 0 l 501 953 l 571 953 l 760 0 l 692 0 l 643 250 m 633 301 l 522 872 l 208 301 l 633 301 m 675 1067 l 667 1015 l 425 1188 l 436 1249 l 675 1067 z "},"Á":{"ha":871,"x_min":-25,"x_max":760,"o":"m 643 250 l 181 250 l 43 0 l -25 0 l 501 953 l 571 953 l 760 0 l 692 0 l 643 250 m 633 301 l 522 872 l 208 301 l 633 301 m 697 1188 l 394 1015 l 403 1067 l 708 1249 l 697 1188 z "},"Â":{"ha":871,"x_min":-25,"x_max":760,"o":"m 643 250 l 181 250 l 43 0 l -25 0 l 501 953 l 571 953 l 760 0 l 692 0 l 643 250 m 633 301 l 522 872 l 208 301 l 633 301 m 574 1167 l 375 1053 l 383 1106 l 583 1219 l 740 1106 l 732 1053 l 574 1167 z "},"Ã":{"ha":871,"x_min":-25,"x_max":771,"o":"m 643 250 l 181 250 l 43 0 l -25 0 l 501 953 l 571 953 l 760 0 l 692 0 l 643 250 m 633 301 l 522 872 l 208 301 l 633 301 m 393 1040 q 441 1122 408 1093 q 515 1151 474 1151 q 556 1142 540 1151 q 592 1115 572 1133 q 623 1091 610 1099 q 657 1083 636 1083 q 701 1100 681 1083 q 729 1147 721 1117 l 771 1147 q 723 1067 757 1097 q 647 1038 689 1038 q 605 1047 621 1038 q 567 1075 589 1056 q 535 1098 547 1090 q 504 1106 522 1106 q 435 1040 456 1106 l 393 1040 z "},"Ä":{"ha":871,"x_min":-25,"x_max":760,"o":"m 643 250 l 181 250 l 43 0 l -25 0 l 501 953 l 571 953 l 760 0 l 692 0 l 643 250 m 633 301 l 522 872 l 208 301 l 633 301 m 458 1068 q 426 1081 439 1068 q 414 1113 414 1093 q 433 1155 414 1136 q 476 1174 451 1174 q 506 1161 494 1174 q 518 1131 518 1149 q 500 1087 518 1106 q 458 1068 482 1068 m 658 1068 q 626 1081 639 1068 q 614 1113 614 1093 q 633 1155 614 1136 q 676 1174 651 1174 q 707 1161 694 1174 q 719 1131 719 1149 q 701 1087 719 1106 q 658 1068 682 1068 z "},"Å":{"ha":871,"x_min":-25,"x_max":760,"o":"m 643 250 l 181 250 l 43 0 l -25 0 l 501 953 l 571 953 l 760 0 l 692 0 l 643 250 m 633 301 l 522 872 l 208 301 l 633 301 m 444 1182 q 500 1279 456 1243 q 600 1315 544 1315 q 681 1288 650 1315 q 711 1211 711 1260 q 664 1095 711 1140 q 553 1050 617 1050 q 473 1078 504 1050 q 442 1156 442 1107 q 444 1182 442 1163 m 669 1204 q 648 1256 669 1238 q 592 1275 626 1275 q 524 1250 553 1275 q 486 1183 494 1225 q 485 1164 485 1176 q 506 1110 485 1131 q 560 1090 526 1090 q 637 1122 604 1090 q 669 1204 669 1154 z "},"Æ":{"ha":1193,"x_min":-54,"x_max":1222,"o":"m 783 924 l 711 514 l 1100 514 l 1090 464 l 703 464 l 631 51 l 1060 51 l 1050 0 l 558 0 l 603 250 l 208 250 l 15 0 l -54 0 l 703 975 l 1222 975 l 1213 924 l 783 924 m 718 908 l 249 301 l 611 301 l 718 908 z "},"Ç":{"ha":1069,"x_min":83,"x_max":1042,"o":"m 636 928 q 423 874 524 928 q 251 720 322 821 q 157 486 181 619 q 149 389 149 435 q 190 206 149 283 q 307 88 232 129 q 481 47 382 47 q 728 112 621 47 q 899 286 836 176 l 969 286 q 784 80 899 157 q 521 -8 669 3 l 503 -108 q 619 -129 578 -104 q 660 -204 660 -154 q 610 -313 660 -271 q 481 -356 561 -356 l 367 -356 l 375 -308 l 476 -308 q 566 -288 536 -308 q 603 -228 596 -268 q 604 -212 604 -222 q 504 -151 604 -151 l 447 -151 l 472 -10 l 471 -10 q 267 40 356 -10 q 131 178 179 89 q 83 382 83 267 q 93 486 83 436 q 199 744 119 631 q 397 921 279 857 q 646 985 514 985 q 913 907 813 985 q 1042 689 1013 829 l 969 689 q 861 863 946 799 q 636 928 776 928 z "},"È":{"ha":682,"x_min":46,"x_max":711,"o":"m 272 924 l 200 514 l 589 514 l 579 464 l 192 464 l 118 51 l 549 51 l 539 0 l 46 0 l 219 975 l 711 975 l 701 924 l 272 924 m 574 1067 l 565 1015 l 324 1188 l 335 1249 l 574 1067 z "},"É":{"ha":682,"x_min":46,"x_max":711,"o":"m 272 924 l 200 514 l 589 514 l 579 464 l 192 464 l 118 51 l 549 51 l 539 0 l 46 0 l 219 975 l 711 975 l 701 924 l 272 924 m 596 1188 l 293 1015 l 301 1067 l 607 1249 l 596 1188 z "},"Ê":{"ha":682,"x_min":46,"x_max":711,"o":"m 272 924 l 200 514 l 589 514 l 579 464 l 192 464 l 118 51 l 549 51 l 539 0 l 46 0 l 219 975 l 711 975 l 701 924 l 272 924 m 472 1167 l 274 1053 l 282 1106 l 482 1219 l 639 1106 l 631 1053 l 472 1167 z "},"Ë":{"ha":682,"x_min":46,"x_max":711,"o":"m 272 924 l 200 514 l 589 514 l 579 464 l 192 464 l 118 51 l 549 51 l 539 0 l 46 0 l 219 975 l 711 975 l 701 924 l 272 924 m 357 1068 q 325 1081 338 1068 q 313 1113 313 1093 q 331 1155 313 1136 q 375 1174 350 1174 q 405 1161 393 1174 q 417 1131 417 1149 q 399 1087 417 1106 q 357 1068 381 1068 m 557 1068 q 525 1081 538 1068 q 513 1113 513 1093 q 531 1155 513 1136 q 575 1174 550 1174 q 606 1161 593 1174 q 618 1131 618 1149 q 599 1087 618 1106 q 557 1068 581 1068 z "},"Ì":{"ha":292,"x_min":46,"x_max":385,"o":"m 282 975 l 108 0 l 46 0 l 219 975 l 282 975 m 385 1067 l 376 1015 l 135 1188 l 146 1249 l 385 1067 z "},"Í":{"ha":292,"x_min":46,"x_max":418,"o":"m 282 975 l 108 0 l 46 0 l 219 975 l 282 975 m 407 1188 l 104 1015 l 113 1067 l 418 1249 l 407 1188 z "},"Î":{"ha":292,"x_min":46,"x_max":450,"o":"m 282 975 l 108 0 l 46 0 l 219 975 l 282 975 m 283 1167 l 85 1053 l 93 1106 l 293 1219 l 450 1106 l 442 1053 l 283 1167 z "},"Ï":{"ha":292,"x_min":46,"x_max":429,"o":"m 282 975 l 108 0 l 46 0 l 219 975 l 282 975 m 168 1068 q 136 1081 149 1068 q 124 1113 124 1093 q 142 1155 124 1136 q 186 1174 161 1174 q 216 1161 204 1174 q 228 1131 228 1149 q 210 1087 228 1106 q 168 1068 192 1068 m 368 1068 q 336 1081 349 1068 q 324 1113 324 1093 q 342 1155 324 1136 q 386 1174 361 1174 q 417 1161 404 1174 q 429 1131 429 1149 q 410 1087 429 1106 q 368 1068 392 1068 z "},"Ð":{"ha":1022,"x_min":26,"x_max":976,"o":"m 536 975 q 864 878 751 975 q 976 601 976 781 q 965 486 976 550 q 768 128 925 256 q 364 0 611 0 l 92 0 l 172 458 l 26 458 l 38 515 l 183 515 l 264 975 l 536 975 m 901 486 q 911 593 911 539 q 815 836 911 750 q 526 922 718 922 l 317 922 l 246 515 l 549 515 l 539 458 l 235 458 l 164 50 l 374 50 q 731 165 596 50 q 901 486 865 281 z "},"Ñ":{"ha":926,"x_min":46,"x_max":915,"o":"m 743 0 l 681 0 l 263 872 l 108 0 l 46 0 l 218 974 l 281 974 l 700 104 l 853 974 l 915 974 l 743 0 m 421 1040 q 469 1122 436 1093 q 543 1151 501 1151 q 584 1142 568 1151 q 619 1115 600 1133 q 651 1091 638 1099 q 685 1083 664 1083 q 728 1100 708 1083 q 757 1147 749 1117 l 799 1147 q 751 1067 785 1097 q 675 1038 717 1038 q 633 1047 649 1038 q 594 1075 617 1056 q 563 1098 575 1090 q 532 1106 550 1106 q 463 1040 483 1106 l 421 1040 z "},"Ò":{"ha":1097,"x_min":86,"x_max":1047,"o":"m 481 -11 q 273 38 363 -11 q 135 178 183 88 q 86 385 86 268 q 160 683 86 546 q 365 902 235 821 q 653 983 494 983 q 861 934 772 983 q 999 795 950 885 q 1047 589 1047 706 q 973 289 1047 426 q 769 70 899 151 q 481 -11 639 -11 m 489 46 q 741 119 628 46 q 918 317 854 193 q 982 586 982 442 q 940 769 982 692 q 820 887 897 846 q 643 928 743 928 q 390 853 503 928 q 214 655 278 779 q 150 389 150 531 q 193 206 150 283 q 313 88 236 129 q 489 46 389 46 m 799 1069 l 790 1018 l 549 1190 l 560 1251 l 799 1069 z "},"Ó":{"ha":1097,"x_min":86,"x_max":1047,"o":"m 481 -11 q 273 38 363 -11 q 135 178 183 88 q 86 385 86 268 q 160 683 86 546 q 365 902 235 821 q 653 983 494 983 q 861 934 772 983 q 999 795 950 885 q 1047 589 1047 706 q 973 289 1047 426 q 769 70 899 151 q 481 -11 639 -11 m 489 46 q 741 119 628 46 q 918 317 854 193 q 982 586 982 442 q 940 769 982 692 q 820 887 897 846 q 643 928 743 928 q 390 853 503 928 q 214 655 278 779 q 150 389 150 531 q 193 206 150 283 q 313 88 236 129 q 489 46 389 46 m 821 1190 l 518 1018 l 526 1069 l 832 1251 l 821 1190 z "},"Ô":{"ha":1097,"x_min":86,"x_max":1047,"o":"m 481 -11 q 273 38 363 -11 q 135 178 183 88 q 86 385 86 268 q 160 683 86 546 q 365 902 235 821 q 653 983 494 983 q 861 934 772 983 q 999 795 950 885 q 1047 589 1047 706 q 973 289 1047 426 q 769 70 899 151 q 481 -11 639 -11 m 489 46 q 741 119 628 46 q 918 317 854 193 q 982 586 982 442 q 940 769 982 692 q 820 887 897 846 q 643 928 743 928 q 390 853 503 928 q 214 655 278 779 q 150 389 150 531 q 193 206 150 283 q 313 88 236 129 q 489 46 389 46 m 696 1169 l 497 1056 l 506 1108 l 706 1222 l 863 1108 l 854 1056 l 696 1169 z "},"Õ":{"ha":1097,"x_min":86,"x_max":1047,"o":"m 481 -11 q 273 38 363 -11 q 135 178 183 88 q 86 385 86 268 q 160 683 86 546 q 365 902 235 821 q 653 983 494 983 q 861 934 772 983 q 999 795 950 885 q 1047 589 1047 706 q 973 289 1047 426 q 769 70 899 151 q 481 -11 639 -11 m 489 46 q 741 119 628 46 q 918 317 854 193 q 982 586 982 442 q 940 769 982 692 q 820 887 897 846 q 643 928 743 928 q 390 853 503 928 q 214 655 278 779 q 150 389 150 531 q 193 206 150 283 q 313 88 236 129 q 489 46 389 46 m 517 1043 q 565 1125 532 1096 q 639 1154 597 1154 q 680 1145 664 1154 q 715 1118 696 1136 q 747 1094 733 1101 q 781 1086 760 1086 q 824 1103 804 1086 q 853 1150 844 1119 l 894 1150 q 847 1070 881 1100 q 771 1040 813 1040 q 728 1049 744 1040 q 690 1078 713 1058 q 658 1101 671 1093 q 628 1108 646 1108 q 558 1043 579 1108 l 517 1043 z "},"Ö":{"ha":1097,"x_min":86,"x_max":1047,"o":"m 481 -11 q 273 38 363 -11 q 135 178 183 88 q 86 385 86 268 q 160 683 86 546 q 365 902 235 821 q 653 983 494 983 q 861 934 772 983 q 999 795 950 885 q 1047 589 1047 706 q 973 289 1047 426 q 769 70 899 151 q 481 -11 639 -11 m 489 46 q 741 119 628 46 q 918 317 854 193 q 982 586 982 442 q 940 769 982 692 q 820 887 897 846 q 643 928 743 928 q 390 853 503 928 q 214 655 278 779 q 150 389 150 531 q 193 206 150 283 q 313 88 236 129 q 489 46 389 46 m 581 1071 q 549 1083 561 1071 q 536 1115 536 1096 q 555 1158 536 1139 q 599 1176 574 1176 q 628 1164 617 1176 q 640 1133 640 1151 q 622 1090 640 1108 q 581 1071 604 1071 m 781 1071 q 749 1083 761 1071 q 736 1115 736 1096 q 755 1158 736 1139 q 799 1176 774 1176 q 829 1164 817 1176 q 842 1133 842 1151 q 823 1090 842 1108 q 781 1071 804 1071 z "},"×":{"ha":736,"x_min":69,"x_max":714,"o":"m 433 521 l 632 281 l 583 240 l 385 481 l 103 240 l 69 282 l 351 522 l 154 761 l 203 801 l 400 563 l 681 801 l 714 760 l 433 521 z "},"Ø":{"ha":1097,"x_min":4,"x_max":1131,"o":"m 975 833 q 1047 589 1047 733 q 973 289 1047 426 q 769 70 899 151 q 481 -11 639 -11 q 311 20 388 -11 q 182 110 235 51 l 63 0 l 4 0 l 158 140 q 86 385 86 240 q 160 683 86 546 q 365 902 235 821 q 653 983 494 983 q 822 952 746 983 q 950 864 899 921 l 1072 975 l 1131 975 l 975 833 m 150 389 q 206 185 150 268 l 903 821 q 792 901 858 874 q 643 928 725 928 q 390 853 503 928 q 214 655 278 779 q 150 389 150 531 m 982 586 q 928 789 982 704 l 229 153 q 342 73 275 100 q 489 46 408 46 q 741 119 628 46 q 918 317 854 193 q 982 586 982 442 z "},"Ù":{"ha":896,"x_min":96,"x_max":892,"o":"m 276 975 l 168 367 q 160 272 160 315 q 221 101 160 156 q 390 46 282 46 q 605 123 518 46 q 721 367 692 200 l 829 975 l 892 975 l 783 367 q 642 83 750 176 q 381 -10 535 -10 q 172 58 249 -10 q 96 265 96 126 q 106 367 96 317 l 214 975 l 276 975 m 688 1067 l 679 1015 l 438 1188 l 449 1249 l 688 1067 z "},"Ú":{"ha":896,"x_min":96,"x_max":892,"o":"m 276 975 l 168 367 q 160 272 160 315 q 221 101 160 156 q 390 46 282 46 q 605 123 518 46 q 721 367 692 200 l 829 975 l 892 975 l 783 367 q 642 83 750 176 q 381 -10 535 -10 q 172 58 249 -10 q 96 265 96 126 q 106 367 96 317 l 214 975 l 276 975 m 710 1188 l 407 1015 l 415 1067 l 721 1249 l 710 1188 z "},"Û":{"ha":896,"x_min":96,"x_max":892,"o":"m 276 975 l 168 367 q 160 272 160 315 q 221 101 160 156 q 390 46 282 46 q 605 123 518 46 q 721 367 692 200 l 829 975 l 892 975 l 783 367 q 642 83 750 176 q 381 -10 535 -10 q 172 58 249 -10 q 96 265 96 126 q 106 367 96 317 l 214 975 l 276 975 m 585 1167 l 386 1053 l 394 1106 l 594 1219 l 751 1106 l 743 1053 l 585 1167 z "},"Ü":{"ha":896,"x_min":96,"x_max":892,"o":"m 276 975 l 168 367 q 160 272 160 315 q 221 101 160 156 q 390 46 282 46 q 605 123 518 46 q 721 367 692 200 l 829 975 l 892 975 l 783 367 q 642 83 750 176 q 381 -10 535 -10 q 172 58 249 -10 q 96 265 96 126 q 106 367 96 317 l 214 975 l 276 975 m 469 1068 q 438 1081 450 1068 q 425 1113 425 1093 q 444 1155 425 1136 q 488 1174 463 1174 q 517 1161 506 1174 q 529 1131 529 1149 q 511 1087 529 1106 q 469 1068 493 1068 m 669 1068 q 638 1081 650 1068 q 625 1113 625 1093 q 644 1155 625 1136 q 688 1174 663 1174 q 718 1161 706 1174 q 731 1131 731 1149 q 712 1087 731 1106 q 669 1068 693 1068 z "},"Ý":{"ha":751,"x_min":140,"x_max":821,"o":"m 821 975 l 410 394 l 340 0 l 278 0 l 347 394 l 140 975 l 213 975 l 389 454 l 749 975 l 821 975 m 639 1188 l 336 1015 l 344 1067 l 650 1249 l 639 1188 z "},"Þ":{"ha":758,"x_min":46,"x_max":728,"o":"m 722 488 q 606 286 700 358 q 354 214 513 214 l 146 214 l 108 0 l 46 0 l 219 975 l 281 975 l 243 761 l 451 761 q 660 705 592 761 q 728 550 728 649 q 722 488 728 517 m 364 269 q 660 488 621 269 q 665 543 665 526 q 612 666 665 624 q 442 708 558 708 l 235 708 l 157 269 l 364 269 z "},"ß":{"ha":851,"x_min":36,"x_max":778,"o":"m 172 776 q 285 985 196 907 q 511 1064 374 1064 q 689 1015 626 1064 q 751 886 751 965 q 728 792 751 833 q 673 720 706 750 q 589 651 640 690 q 503 579 531 608 q 476 514 476 550 q 509 456 476 481 q 628 403 542 432 q 742 336 706 376 q 778 232 778 296 q 743 107 778 163 q 647 19 708 51 q 507 -12 585 -12 q 342 46 403 -12 q 282 203 282 104 l 283 228 l 346 228 q 384 90 339 142 q 515 39 429 39 q 616 63 571 39 q 688 131 661 88 q 714 225 714 174 q 682 301 714 271 q 581 357 650 332 q 451 422 489 389 q 413 504 413 454 q 445 595 413 557 q 547 686 478 633 q 652 781 617 739 q 688 879 688 822 q 639 974 688 938 q 501 1010 590 1010 q 323 946 392 1010 q 233 771 254 882 l 99 0 l 36 0 l 172 776 z "},"à":{"ha":935,"x_min":65,"x_max":886,"o":"m 74 378 q 156 582 94 494 q 310 717 218 669 q 507 764 401 764 q 698 706 625 764 q 789 557 771 647 l 824 754 l 886 754 l 751 0 l 690 0 l 725 199 q 582 48 676 107 q 368 -11 488 -11 q 148 70 231 -11 q 65 290 65 151 q 74 378 65 332 m 757 378 q 764 451 764 419 q 693 640 764 569 q 506 710 622 710 q 337 670 414 710 q 208 556 260 631 q 138 378 156 481 q 131 300 131 332 q 199 112 131 179 q 388 44 268 44 q 553 85 475 44 q 685 202 632 126 q 757 378 739 278 m 675 867 l 667 815 l 425 988 l 436 1049 l 675 867 z "},"á":{"ha":935,"x_min":65,"x_max":886,"o":"m 74 378 q 156 582 94 494 q 310 717 218 669 q 507 764 401 764 q 698 706 625 764 q 789 557 771 647 l 824 754 l 886 754 l 751 0 l 690 0 l 725 199 q 582 48 676 107 q 368 -11 488 -11 q 148 70 231 -11 q 65 290 65 151 q 74 378 65 332 m 757 378 q 764 451 764 419 q 693 640 764 569 q 506 710 622 710 q 337 670 414 710 q 208 556 260 631 q 138 378 156 481 q 131 300 131 332 q 199 112 131 179 q 388 44 268 44 q 553 85 475 44 q 685 202 632 126 q 757 378 739 278 m 697 988 l 394 815 l 403 867 l 708 1049 l 697 988 z "},"â":{"ha":935,"x_min":65,"x_max":886,"o":"m 74 378 q 156 582 94 494 q 310 717 218 669 q 507 764 401 764 q 698 706 625 764 q 789 557 771 647 l 824 754 l 886 754 l 751 0 l 690 0 l 725 199 q 582 48 676 107 q 368 -11 488 -11 q 148 70 231 -11 q 65 290 65 151 q 74 378 65 332 m 757 378 q 764 451 764 419 q 693 640 764 569 q 506 710 622 710 q 337 670 414 710 q 208 556 260 631 q 138 378 156 481 q 131 300 131 332 q 199 112 131 179 q 388 44 268 44 q 553 85 475 44 q 685 202 632 126 q 757 378 739 278 m 574 967 l 375 853 l 383 906 l 583 1019 l 740 906 l 732 853 l 574 967 z "},"ã":{"ha":935,"x_min":65,"x_max":886,"o":"m 74 378 q 156 582 94 494 q 310 717 218 669 q 507 764 401 764 q 698 706 625 764 q 789 557 771 647 l 824 754 l 886 754 l 751 0 l 690 0 l 725 199 q 582 48 676 107 q 368 -11 488 -11 q 148 70 231 -11 q 65 290 65 151 q 74 378 65 332 m 757 378 q 764 451 764 419 q 693 640 764 569 q 506 710 622 710 q 337 670 414 710 q 208 556 260 631 q 138 378 156 481 q 131 300 131 332 q 199 112 131 179 q 388 44 268 44 q 553 85 475 44 q 685 202 632 126 q 757 378 739 278 m 393 840 q 441 922 408 893 q 515 951 474 951 q 556 942 540 951 q 592 915 572 933 q 623 891 610 899 q 657 883 636 883 q 701 900 681 883 q 729 947 721 917 l 771 947 q 723 867 757 897 q 647 838 689 838 q 605 847 621 838 q 567 875 589 856 q 535 898 547 890 q 504 906 522 906 q 435 840 456 906 l 393 840 z "},"ä":{"ha":935,"x_min":65,"x_max":886,"o":"m 74 378 q 156 582 94 494 q 310 717 218 669 q 507 764 401 764 q 698 706 625 764 q 789 557 771 647 l 824 754 l 886 754 l 751 0 l 690 0 l 725 199 q 582 48 676 107 q 368 -11 488 -11 q 148 70 231 -11 q 65 290 65 151 q 74 378 65 332 m 757 378 q 764 451 764 419 q 693 640 764 569 q 506 710 622 710 q 337 670 414 710 q 208 556 260 631 q 138 378 156 481 q 131 300 131 332 q 199 112 131 179 q 388 44 268 44 q 553 85 475 44 q 685 202 632 126 q 757 378 739 278 m 458 868 q 426 881 439 868 q 414 913 414 893 q 433 955 414 936 q 476 974 451 974 q 506 961 494 974 q 518 931 518 949 q 500 887 518 906 q 458 868 482 868 m 658 868 q 626 881 639 868 q 614 913 614 893 q 633 955 614 936 q 676 974 651 974 q 707 961 694 974 q 719 931 719 949 q 701 887 719 906 q 658 868 682 868 z "},"å":{"ha":935,"x_min":65,"x_max":886,"o":"m 74 378 q 156 582 94 494 q 310 717 218 669 q 507 764 401 764 q 698 706 625 764 q 789 557 771 647 l 824 754 l 886 754 l 751 0 l 690 0 l 725 199 q 582 48 676 107 q 368 -11 488 -11 q 148 70 231 -11 q 65 290 65 151 q 74 378 65 332 m 757 378 q 764 451 764 419 q 693 640 764 569 q 506 710 622 710 q 337 670 414 710 q 208 556 260 631 q 138 378 156 481 q 131 300 131 332 q 199 112 131 179 q 388 44 268 44 q 553 85 475 44 q 685 202 632 126 q 757 378 739 278 m 444 982 q 500 1079 456 1043 q 600 1115 544 1115 q 681 1088 650 1115 q 711 1011 711 1060 q 664 895 711 940 q 553 850 617 850 q 473 878 504 850 q 442 956 442 907 q 444 982 442 963 m 669 1004 q 648 1056 669 1038 q 592 1075 626 1075 q 524 1050 553 1075 q 486 983 494 1025 q 485 964 485 976 q 506 910 485 931 q 560 890 526 890 q 637 922 604 890 q 669 1004 669 954 z "},"æ":{"ha":1558,"x_min":65,"x_max":1497,"o":"m 1201 764 q 1364 727 1297 764 q 1464 628 1431 690 q 1497 490 1497 567 q 1492 429 1497 457 q 1472 354 1482 385 l 815 354 q 811 294 811 324 q 846 156 811 213 q 939 71 881 99 q 1067 43 997 43 q 1267 98 1181 43 q 1388 247 1353 153 l 1454 247 q 1307 60 1410 132 q 1065 -11 1204 -11 q 876 47 953 -11 q 786 210 799 104 l 750 0 l 690 0 l 728 208 q 582 49 678 110 q 369 -11 486 -11 q 148 70 231 -11 q 65 290 65 151 q 74 378 65 332 q 156 582 94 494 q 310 717 218 669 q 508 764 401 764 q 698 706 625 764 q 788 547 771 647 l 824 754 l 883 754 l 847 547 q 996 708 901 653 q 1201 764 1090 764 m 1425 403 q 1435 483 1435 443 q 1364 652 1435 593 q 1186 711 1293 711 q 1031 676 1106 711 q 901 572 957 642 q 825 403 846 503 l 1425 403 m 757 378 q 764 451 764 419 q 693 640 764 569 q 506 710 622 710 q 337 670 414 710 q 208 556 260 631 q 138 378 156 481 q 131 300 131 332 q 199 112 131 179 q 388 44 268 44 q 553 85 475 44 q 685 202 632 126 q 757 378 739 278 z "},"ç":{"ha":863,"x_min":65,"x_max":807,"o":"m 379 43 q 576 99 490 43 q 697 251 661 154 l 764 251 q 623 66 721 138 q 392 -11 525 -6 l 375 -108 q 491 -129 450 -104 q 532 -204 532 -154 q 483 -313 532 -271 q 353 -356 433 -356 l 239 -356 l 247 -308 l 349 -308 q 438 -288 408 -308 q 475 -228 468 -268 q 476 -212 476 -222 q 376 -151 476 -151 l 319 -151 l 344 -10 q 140 76 215 -3 q 65 288 65 154 q 74 378 65 331 q 157 583 94 496 q 310 717 219 671 q 507 764 401 764 q 727 693 649 764 q 807 503 806 622 l 742 503 q 674 655 740 599 q 497 711 608 711 q 340 674 415 711 q 211 562 265 638 q 138 378 157 486 q 129 294 129 335 q 199 108 129 172 q 379 43 269 43 z "},"è":{"ha":868,"x_min":65,"x_max":807,"o":"m 508 764 q 672 727 604 764 q 773 628 739 690 q 807 490 807 567 q 801 429 807 457 q 785 354 793 379 l 133 354 q 128 290 128 310 q 200 107 128 171 q 382 43 272 43 q 577 98 492 43 q 699 247 663 153 l 764 247 q 616 60 719 132 q 372 -11 513 -11 q 149 69 233 -11 q 65 289 65 150 q 74 378 65 332 q 157 583 94 496 q 310 717 219 671 q 508 764 401 764 m 735 403 q 744 485 744 443 q 674 653 744 594 q 497 711 604 711 q 344 676 418 711 q 217 572 271 642 q 142 403 163 503 l 735 403 m 639 867 l 631 815 l 389 988 l 400 1049 l 639 867 z "},"é":{"ha":868,"x_min":65,"x_max":807,"o":"m 508 764 q 672 727 604 764 q 773 628 739 690 q 807 490 807 567 q 801 429 807 457 q 785 354 793 379 l 133 354 q 128 290 128 310 q 200 107 128 171 q 382 43 272 43 q 577 98 492 43 q 699 247 663 153 l 764 247 q 616 60 719 132 q 372 -11 513 -11 q 149 69 233 -11 q 65 289 65 150 q 74 378 65 332 q 157 583 94 496 q 310 717 219 671 q 508 764 401 764 m 735 403 q 744 485 744 443 q 674 653 744 594 q 497 711 604 711 q 344 676 418 711 q 217 572 271 642 q 142 403 163 503 l 735 403 m 661 988 l 358 815 l 367 867 l 672 1049 l 661 988 z "},"ê":{"ha":868,"x_min":65,"x_max":807,"o":"m 508 764 q 672 727 604 764 q 773 628 739 690 q 807 490 807 567 q 801 429 807 457 q 785 354 793 379 l 133 354 q 128 290 128 310 q 200 107 128 171 q 382 43 272 43 q 577 98 492 43 q 699 247 663 153 l 764 247 q 616 60 719 132 q 372 -11 513 -11 q 149 69 233 -11 q 65 289 65 150 q 74 378 65 332 q 157 583 94 496 q 310 717 219 671 q 508 764 401 764 m 735 403 q 744 485 744 443 q 674 653 744 594 q 497 711 604 711 q 344 676 418 711 q 217 572 271 642 q 142 403 163 503 l 735 403 m 538 967 l 339 853 l 347 906 l 547 1019 l 704 906 l 696 853 l 538 967 z "},"ë":{"ha":868,"x_min":65,"x_max":807,"o":"m 508 764 q 672 727 604 764 q 773 628 739 690 q 807 490 807 567 q 801 429 807 457 q 785 354 793 379 l 133 354 q 128 290 128 310 q 200 107 128 171 q 382 43 272 43 q 577 98 492 43 q 699 247 663 153 l 764 247 q 616 60 719 132 q 372 -11 513 -11 q 149 69 233 -11 q 65 289 65 150 q 74 378 65 332 q 157 583 94 496 q 310 717 219 671 q 508 764 401 764 m 735 403 q 744 485 744 443 q 674 653 744 594 q 497 711 604 711 q 344 676 418 711 q 217 572 271 642 q 142 403 163 503 l 735 403 m 421 868 q 389 881 401 868 q 376 913 376 893 q 395 955 376 936 q 439 974 414 974 q 469 961 457 974 q 481 931 481 949 q 463 887 481 906 q 421 868 444 868 m 621 868 q 589 881 601 868 q 576 913 576 893 q 595 955 576 936 q 639 974 614 974 q 669 961 657 974 q 682 931 682 949 q 663 887 682 906 q 621 868 644 868 z "},"ì":{"ha":292,"x_min":46,"x_max":350,"o":"m 243 754 l 108 0 l 46 0 l 181 754 l 243 754 m 350 867 l 342 815 l 100 988 l 111 1049 l 350 867 z "},"í":{"ha":292,"x_min":46,"x_max":383,"o":"m 243 754 l 108 0 l 46 0 l 181 754 l 243 754 m 372 988 l 69 815 l 78 867 l 383 1049 l 372 988 z "},"î":{"ha":292,"x_min":46,"x_max":415,"o":"m 243 754 l 108 0 l 46 0 l 181 754 l 243 754 m 249 967 l 50 853 l 58 906 l 258 1019 l 415 906 l 407 853 l 249 967 z "},"ï":{"ha":292,"x_min":46,"x_max":394,"o":"m 243 754 l 108 0 l 46 0 l 181 754 l 243 754 m 133 868 q 101 881 114 868 q 89 913 89 893 q 108 955 89 936 q 151 974 126 974 q 181 961 169 974 q 193 931 193 949 q 175 887 193 906 q 133 868 157 868 m 333 868 q 301 881 314 868 q 289 913 289 893 q 308 955 289 936 q 351 974 326 974 q 382 961 369 974 q 394 931 394 949 q 376 887 394 906 q 333 868 357 868 z "},"ð":{"ha":893,"x_min":68,"x_max":885,"o":"m 878 989 l 701 931 q 838 557 838 761 q 826 431 838 501 q 666 102 788 215 q 376 -11 544 -11 q 150 72 232 -11 q 68 297 68 156 q 76 393 68 343 q 158 591 96 506 q 311 723 219 676 q 511 769 403 769 q 692 713 619 769 q 782 543 765 657 q 751 740 781 653 q 651 914 721 828 l 435 842 l 442 882 l 625 943 q 542 1028 592 982 l 607 1028 q 675 960 644 994 l 885 1031 l 878 989 m 753 378 q 760 457 760 413 q 689 647 760 579 q 506 715 618 715 q 341 678 418 715 q 211 567 264 640 q 140 393 158 494 q 132 304 132 346 q 201 112 132 181 q 385 43 269 43 q 549 83 471 43 q 681 198 626 122 q 753 378 735 274 z "},"ñ":{"ha":865,"x_min":46,"x_max":776,"o":"m 522 769 q 707 708 638 769 q 776 525 776 646 q 768 442 776 488 l 690 0 l 629 0 l 707 438 q 714 511 714 482 q 658 663 714 611 q 503 715 603 715 q 301 643 386 715 q 185 431 217 571 l 108 0 l 46 0 l 181 754 l 243 754 l 215 596 q 344 725 263 681 q 522 769 425 769 m 333 840 q 381 922 349 893 q 456 951 414 951 q 497 942 481 951 q 532 915 513 933 q 563 891 550 899 q 597 883 576 883 q 641 900 621 883 q 669 947 661 917 l 711 947 q 663 867 697 897 q 588 838 629 838 q 545 847 561 838 q 507 875 529 856 q 475 898 488 890 q 444 906 463 906 q 375 840 396 906 l 333 840 z "},"ò":{"ha":896,"x_min":67,"x_max":826,"o":"m 379 -11 q 152 71 238 -11 q 67 293 67 153 q 124 529 67 421 q 285 701 182 638 q 514 764 388 764 q 676 727 606 764 q 787 622 747 690 q 826 460 826 553 q 768 224 826 332 q 608 52 710 115 q 379 -11 506 -11 m 388 43 q 581 100 496 43 q 715 251 667 157 q 763 457 763 346 q 689 646 763 581 q 504 711 615 711 q 310 654 394 711 q 178 502 225 597 q 131 297 131 407 q 203 108 131 174 q 388 43 276 43 m 651 878 l 643 826 l 401 999 l 413 1060 l 651 878 z "},"ó":{"ha":896,"x_min":67,"x_max":826,"o":"m 379 -11 q 152 71 238 -11 q 67 293 67 153 q 124 529 67 421 q 285 701 182 638 q 514 764 388 764 q 676 727 606 764 q 787 622 747 690 q 826 460 826 553 q 768 224 826 332 q 608 52 710 115 q 379 -11 506 -11 m 388 43 q 581 100 496 43 q 715 251 667 157 q 763 457 763 346 q 689 646 763 581 q 504 711 615 711 q 310 654 394 711 q 178 502 225 597 q 131 297 131 407 q 203 108 131 174 q 388 43 276 43 m 674 999 l 371 826 l 379 878 l 685 1060 l 674 999 z "},"ô":{"ha":896,"x_min":67,"x_max":826,"o":"m 379 -11 q 152 71 238 -11 q 67 293 67 153 q 124 529 67 421 q 285 701 182 638 q 514 764 388 764 q 676 727 606 764 q 787 622 747 690 q 826 460 826 553 q 768 224 826 332 q 608 52 710 115 q 379 -11 506 -11 m 388 43 q 581 100 496 43 q 715 251 667 157 q 763 457 763 346 q 689 646 763 581 q 504 711 615 711 q 310 654 394 711 q 178 502 225 597 q 131 297 131 407 q 203 108 131 174 q 388 43 276 43 m 550 978 l 351 864 l 360 917 l 560 1031 l 717 917 l 708 864 l 550 978 z "},"õ":{"ha":896,"x_min":67,"x_max":826,"o":"m 379 -11 q 152 71 238 -11 q 67 293 67 153 q 124 529 67 421 q 285 701 182 638 q 514 764 388 764 q 676 727 606 764 q 787 622 747 690 q 826 460 826 553 q 768 224 826 332 q 608 52 710 115 q 379 -11 506 -11 m 388 43 q 581 100 496 43 q 715 251 667 157 q 763 457 763 346 q 689 646 763 581 q 504 711 615 711 q 310 654 394 711 q 178 502 225 597 q 131 297 131 407 q 203 108 131 174 q 388 43 276 43 m 371 851 q 419 933 386 904 q 493 963 451 963 q 534 953 518 963 q 569 926 550 944 q 601 902 588 910 q 635 894 614 894 q 678 911 658 894 q 707 958 699 928 l 749 958 q 701 878 735 908 q 625 849 667 849 q 583 858 599 849 q 544 886 567 867 q 513 909 525 901 q 482 917 500 917 q 413 851 433 917 l 371 851 z "},"ö":{"ha":896,"x_min":67,"x_max":826,"o":"m 379 -11 q 152 71 238 -11 q 67 293 67 153 q 124 529 67 421 q 285 701 182 638 q 514 764 388 764 q 676 727 606 764 q 787 622 747 690 q 826 460 826 553 q 768 224 826 332 q 608 52 710 115 q 379 -11 506 -11 m 388 43 q 581 100 496 43 q 715 251 667 157 q 763 457 763 346 q 689 646 763 581 q 504 711 615 711 q 310 654 394 711 q 178 502 225 597 q 131 297 131 407 q 203 108 131 174 q 388 43 276 43 m 435 879 q 403 892 415 879 q 390 924 390 904 q 409 966 390 947 q 453 985 428 985 q 483 972 471 985 q 494 942 494 960 q 476 898 494 917 q 435 879 458 879 m 635 879 q 603 892 615 879 q 590 924 590 904 q 609 966 590 947 q 653 985 628 985 q 683 972 671 985 q 696 942 696 960 q 677 898 696 917 q 635 879 658 879 z "},"÷":{"ha":851,"x_min":93,"x_max":811,"o":"m 476 767 q 444 778 457 767 q 432 810 432 790 q 451 856 432 838 q 497 875 471 875 q 529 863 517 875 q 542 832 542 851 q 522 785 542 804 q 476 767 503 767 m 811 549 l 801 493 l 93 493 l 103 549 l 811 549 m 385 171 q 353 183 365 171 q 340 214 340 194 q 360 260 340 242 q 406 279 379 279 q 438 267 425 279 q 450 236 450 256 q 431 190 450 208 q 385 171 411 171 z "},"ø":{"ha":896,"x_min":13,"x_max":883,"o":"m 769 649 q 826 460 826 572 q 768 224 826 332 q 608 52 710 115 q 379 -11 506 -11 q 247 11 307 -11 q 147 76 188 33 l 64 0 l 13 0 l 124 103 q 67 293 67 182 q 124 529 67 421 q 285 701 182 638 q 514 764 388 764 q 747 676 663 764 l 832 754 l 883 754 l 769 649 m 131 297 q 171 146 131 208 l 701 633 q 615 692 665 672 q 504 711 564 711 q 310 654 394 711 q 178 502 225 597 q 131 297 131 407 m 763 457 q 722 606 763 546 l 193 119 q 278 63 228 82 q 388 43 329 43 q 581 100 496 43 q 715 251 667 157 q 763 457 763 346 z "},"ù":{"ha":865,"x_min":88,"x_max":817,"o":"m 817 754 l 683 0 l 621 0 l 650 163 q 521 33 603 78 q 343 -12 439 -12 q 158 49 228 -12 q 88 233 88 111 q 94 315 88 279 l 174 754 l 235 754 l 157 319 q 150 247 150 275 q 206 94 150 146 q 361 42 261 42 q 570 120 483 42 q 682 350 657 199 l 682 346 l 754 754 l 817 754 m 639 867 l 631 815 l 389 988 l 400 1049 l 639 867 z "},"ú":{"ha":865,"x_min":88,"x_max":817,"o":"m 817 754 l 683 0 l 621 0 l 650 163 q 521 33 603 78 q 343 -12 439 -12 q 158 49 228 -12 q 88 233 88 111 q 94 315 88 279 l 174 754 l 235 754 l 157 319 q 150 247 150 275 q 206 94 150 146 q 361 42 261 42 q 570 120 483 42 q 682 350 657 199 l 682 346 l 754 754 l 817 754 m 661 988 l 358 815 l 367 867 l 672 1049 l 661 988 z "},"û":{"ha":865,"x_min":88,"x_max":817,"o":"m 817 754 l 683 0 l 621 0 l 650 163 q 521 33 603 78 q 343 -12 439 -12 q 158 49 228 -12 q 88 233 88 111 q 94 315 88 279 l 174 754 l 235 754 l 157 319 q 150 247 150 275 q 206 94 150 146 q 361 42 261 42 q 570 120 483 42 q 682 350 657 199 l 682 346 l 754 754 l 817 754 m 536 967 l 338 853 l 346 906 l 546 1019 l 703 906 l 694 853 l 536 967 z "},"ü":{"ha":865,"x_min":88,"x_max":817,"o":"m 817 754 l 683 0 l 621 0 l 650 163 q 521 33 603 78 q 343 -12 439 -12 q 158 49 228 -12 q 88 233 88 111 q 94 315 88 279 l 174 754 l 235 754 l 157 319 q 150 247 150 275 q 206 94 150 146 q 361 42 261 42 q 570 120 483 42 q 682 350 657 199 l 682 346 l 754 754 l 817 754 m 421 868 q 389 881 401 868 q 376 913 376 893 q 395 955 376 936 q 439 974 414 974 q 469 961 457 974 q 481 931 481 949 q 463 887 481 906 q 421 868 444 868 m 621 868 q 589 881 601 868 q 576 913 576 893 q 595 955 576 936 q 639 974 614 974 q 669 961 657 974 q 682 931 682 949 q 663 887 682 906 q 621 868 644 868 z "},"ý":{"ha":728,"x_min":67,"x_max":769,"o":"m 158 754 l 321 78 l 703 754 l 769 754 l 135 -354 l 67 -354 l 271 1 l 90 754 l 158 754 m 592 988 l 289 815 l 297 867 l 603 1049 l 592 988 z "},"þ":{"ha":935,"x_min":-15,"x_max":867,"o":"m 204 540 q 349 702 254 640 q 563 764 443 764 q 785 684 703 764 q 867 465 867 604 q 858 378 867 424 q 776 173 838 261 q 623 37 714 85 q 426 -11 532 -11 q 234 51 307 -11 q 146 215 161 114 l 46 -356 l -15 -356 l 228 1028 l 290 1028 l 204 540 m 794 378 q 801 457 801 413 q 732 643 801 576 q 544 710 663 710 q 379 669 457 710 q 247 552 301 628 q 175 378 193 476 q 168 304 168 333 q 240 115 168 185 q 426 44 311 44 q 595 85 518 44 q 724 200 672 125 q 794 378 776 275 z "},"ÿ":{"ha":728,"x_min":67,"x_max":769,"o":"m 158 754 l 321 78 l 703 754 l 769 754 l 135 -354 l 67 -354 l 271 1 l 90 754 l 158 754 m 353 868 q 321 881 333 868 q 308 913 308 893 q 327 955 308 936 q 371 974 346 974 q 401 961 389 974 q 413 931 413 949 q 394 887 413 906 q 353 868 376 868 m 553 868 q 521 881 533 868 q 508 913 508 893 q 527 955 508 936 q 571 974 546 974 q 601 961 589 974 q 614 931 614 949 q 595 887 614 906 q 553 868 576 868 z "},"Ā":{"ha":871,"x_min":-25,"x_max":797,"o":"m 643 250 l 181 250 l 43 0 l -25 0 l 501 953 l 571 953 l 760 0 l 692 0 l 643 250 m 633 301 l 522 872 l 208 301 l 633 301 m 797 1156 l 789 1107 l 339 1107 l 347 1156 l 797 1156 z "},"ā":{"ha":935,"x_min":65,"x_max":886,"o":"m 74 378 q 156 582 94 494 q 310 717 218 669 q 507 764 401 764 q 698 706 625 764 q 789 557 771 647 l 824 754 l 886 754 l 751 0 l 690 0 l 725 199 q 582 48 676 107 q 368 -11 488 -11 q 148 70 231 -11 q 65 290 65 151 q 74 378 65 332 m 757 378 q 764 451 764 419 q 693 640 764 569 q 506 710 622 710 q 337 670 414 710 q 208 556 260 631 q 138 378 156 481 q 131 300 131 332 q 199 112 131 179 q 388 44 268 44 q 553 85 475 44 q 685 202 632 126 q 757 378 739 278 m 797 956 l 789 907 l 339 907 l 347 956 l 797 956 z "},"Ă":{"ha":871,"x_min":-25,"x_max":760,"o":"m 643 250 l 181 250 l 43 0 l -25 0 l 501 953 l 571 953 l 760 0 l 692 0 l 643 250 m 633 301 l 522 872 l 208 301 l 633 301 m 758 1210 q 694 1099 747 1144 q 554 1053 640 1053 q 441 1090 479 1053 q 403 1182 403 1126 q 406 1210 403 1190 l 408 1222 l 453 1222 q 450 1194 450 1203 q 478 1128 450 1151 q 563 1104 507 1104 q 667 1135 628 1104 q 715 1222 706 1165 l 760 1222 l 758 1210 z "},"ă":{"ha":935,"x_min":65,"x_max":886,"o":"m 74 378 q 156 582 94 494 q 310 717 218 669 q 507 764 401 764 q 698 706 625 764 q 789 557 771 647 l 824 754 l 886 754 l 751 0 l 690 0 l 725 199 q 582 48 676 107 q 368 -11 488 -11 q 148 70 231 -11 q 65 290 65 151 q 74 378 65 332 m 757 378 q 764 451 764 419 q 693 640 764 569 q 506 710 622 710 q 337 670 414 710 q 208 556 260 631 q 138 378 156 481 q 131 300 131 332 q 199 112 131 179 q 388 44 268 44 q 553 85 475 44 q 685 202 632 126 q 757 378 739 278 m 757 1010 q 692 899 746 944 q 553 853 639 853 q 440 890 478 853 q 401 982 401 926 q 404 1010 401 990 l 407 1022 l 451 1022 q 449 994 449 1003 q 477 928 449 951 q 561 904 506 904 q 665 935 626 904 q 714 1022 704 965 l 758 1022 l 757 1010 z "},"Ą":{"ha":871,"x_min":-25,"x_max":760,"o":"m 547 -167 q 569 -210 547 -194 q 626 -225 590 -225 q 719 -207 665 -225 l 711 -254 q 614 -272 660 -272 q 526 -249 560 -272 q 492 -178 492 -225 q 531 -79 492 -126 q 654 4 569 -32 l 688 18 l 643 250 l 181 250 l 43 0 l -25 0 l 501 953 l 571 953 l 760 0 l 661 -43 q 547 -167 547 -92 m 633 301 l 522 872 l 208 301 l 633 301 z "},"ą":{"ha":935,"x_min":65,"x_max":886,"o":"m 654 -43 q 542 -168 542 -92 q 563 -210 542 -196 q 619 -225 583 -225 q 713 -207 661 -225 l 704 -254 q 607 -272 653 -272 q 519 -249 553 -272 q 485 -181 485 -226 q 647 -1 485 -69 l 693 18 l 725 199 q 582 48 676 107 q 368 -11 488 -11 q 148 70 231 -11 q 65 290 65 151 q 74 378 65 332 q 156 582 94 494 q 310 717 218 669 q 507 764 401 764 q 698 706 625 764 q 789 557 771 647 l 824 754 l 886 754 l 751 3 l 753 0 l 654 -43 m 388 44 q 553 85 475 44 q 685 202 632 126 q 757 378 739 278 q 764 451 764 419 q 693 640 764 569 q 506 710 622 710 q 337 670 414 710 q 208 556 260 631 q 138 378 156 481 q 131 300 131 332 q 199 112 131 179 q 388 44 268 44 z "},"Ć":{"ha":1069,"x_min":83,"x_max":1042,"o":"m 93 486 q 199 744 119 631 q 397 921 279 857 q 646 985 514 985 q 913 907 813 985 q 1042 689 1013 829 l 969 689 q 861 863 946 799 q 636 928 776 928 q 423 874 524 928 q 251 720 322 821 q 157 486 181 619 q 149 389 149 435 q 190 206 149 283 q 307 88 232 129 q 481 47 382 47 q 728 112 621 47 q 899 286 836 176 l 969 286 q 765 68 893 146 q 471 -10 638 -10 q 267 40 356 -10 q 131 178 179 89 q 83 382 83 267 q 93 486 83 436 m 824 1188 l 521 1015 l 529 1067 l 835 1249 l 824 1188 z "},"ć":{"ha":863,"x_min":65,"x_max":807,"o":"m 74 378 q 157 583 94 496 q 310 717 219 671 q 507 764 401 764 q 727 693 649 764 q 807 503 806 622 l 742 503 q 674 655 740 599 q 497 711 608 711 q 340 674 415 711 q 211 562 265 638 q 138 378 157 486 q 129 294 129 335 q 199 108 129 172 q 379 43 269 43 q 576 99 490 43 q 697 251 661 154 l 764 251 q 615 60 719 132 q 369 -11 511 -11 q 148 69 231 -11 q 65 288 65 149 q 74 378 65 331 m 661 988 l 358 815 l 367 867 l 672 1049 l 661 988 z "},"Ċ":{"ha":1069,"x_min":83,"x_max":1042,"o":"m 93 486 q 199 744 119 631 q 397 921 279 857 q 646 985 514 985 q 913 907 813 985 q 1042 689 1013 829 l 969 689 q 861 863 946 799 q 636 928 776 928 q 423 874 524 928 q 251 720 322 821 q 157 486 181 619 q 149 389 149 435 q 190 206 149 283 q 307 88 232 129 q 481 47 382 47 q 728 112 621 47 q 899 286 836 176 l 969 286 q 765 68 893 146 q 471 -10 638 -10 q 267 40 356 -10 q 131 178 179 89 q 83 382 83 267 q 93 486 83 436 m 679 1044 q 647 1057 660 1044 q 633 1088 633 1069 q 653 1131 633 1113 q 697 1150 674 1150 q 729 1138 717 1150 q 742 1107 742 1126 q 722 1063 742 1082 q 679 1044 703 1044 z "},"ċ":{"ha":863,"x_min":65,"x_max":807,"o":"m 74 378 q 157 583 94 496 q 310 717 219 671 q 507 764 401 764 q 727 693 649 764 q 807 503 806 622 l 742 503 q 674 655 740 599 q 497 711 608 711 q 340 674 415 711 q 211 562 265 638 q 138 378 157 486 q 129 294 129 335 q 199 108 129 172 q 379 43 269 43 q 576 99 490 43 q 697 251 661 154 l 764 251 q 615 60 719 132 q 369 -11 511 -11 q 148 69 231 -11 q 65 288 65 149 q 74 378 65 331 m 515 846 q 483 858 496 846 q 469 889 469 871 q 490 933 469 914 q 533 951 510 951 q 565 940 553 951 q 578 908 578 928 q 558 865 578 883 q 515 846 539 846 z "},"Č":{"ha":1069,"x_min":83,"x_max":1042,"o":"m 93 486 q 199 744 119 631 q 397 921 279 857 q 646 985 514 985 q 913 907 813 985 q 1042 689 1013 829 l 969 689 q 861 863 946 799 q 636 928 776 928 q 423 874 524 928 q 251 720 322 821 q 157 486 181 619 q 149 389 149 435 q 190 206 149 283 q 307 88 232 129 q 481 47 382 47 q 728 112 621 47 q 899 286 836 176 l 969 286 q 765 68 893 146 q 471 -10 638 -10 q 267 40 356 -10 q 131 178 179 89 q 83 382 83 267 q 93 486 83 436 m 878 1163 l 679 1049 l 519 1163 l 529 1215 l 689 1101 l 888 1215 l 878 1163 z "},"č":{"ha":863,"x_min":65,"x_max":807,"o":"m 74 378 q 157 583 94 496 q 310 717 219 671 q 507 764 401 764 q 727 693 649 764 q 807 503 806 622 l 742 503 q 674 655 740 599 q 497 711 608 711 q 340 674 415 711 q 211 562 265 638 q 138 378 157 486 q 129 294 129 335 q 199 108 129 172 q 379 43 269 43 q 576 99 490 43 q 697 251 661 154 l 764 251 q 615 60 719 132 q 369 -11 511 -11 q 148 69 231 -11 q 65 288 65 149 q 74 378 65 331 m 714 963 l 515 849 l 356 963 l 365 1015 l 525 901 l 724 1015 l 714 963 z "},"Ď":{"ha":978,"x_min":46,"x_max":931,"o":"m 492 975 q 818 878 706 975 q 931 603 931 781 q 919 486 931 553 q 723 128 879 256 q 318 0 567 0 l 46 0 l 219 975 l 492 975 m 329 50 q 685 165 550 50 q 857 486 821 281 q 867 593 867 539 q 770 836 867 750 q 482 922 674 922 l 272 922 l 118 50 l 329 50 m 793 1163 l 594 1049 l 435 1163 l 444 1215 l 604 1101 l 803 1215 l 793 1163 z "},"ď":{"ha":972,"x_min":65,"x_max":1106,"o":"m 74 378 q 156 582 94 494 q 310 717 218 669 q 507 764 401 764 q 697 706 622 764 q 789 557 771 649 l 872 1028 l 933 1028 l 751 0 l 690 0 l 726 200 q 583 48 678 107 q 369 -11 489 -11 q 148 70 231 -11 q 65 290 65 151 q 74 378 65 332 m 1106 1028 q 1096 921 1104 978 q 1051 824 1083 853 q 963 796 1018 796 l 969 835 q 1022 851 1004 835 q 1046 900 1039 867 l 1053 938 l 994 938 l 1010 1028 l 1106 1028 m 757 378 q 764 451 764 419 q 693 640 764 569 q 506 710 622 710 q 337 670 414 710 q 208 556 260 631 q 138 378 156 481 q 131 300 131 332 q 199 112 131 179 q 388 44 268 44 q 553 85 475 44 q 685 202 632 126 q 757 378 739 278 z "},"Đ":{"ha":1022,"x_min":26,"x_max":976,"o":"m 536 975 q 864 878 751 975 q 976 601 976 781 q 965 486 976 550 q 768 128 925 256 q 364 0 611 0 l 92 0 l 172 458 l 26 458 l 38 515 l 183 515 l 264 975 l 536 975 m 901 486 q 911 593 911 539 q 815 836 911 750 q 526 922 718 922 l 317 922 l 246 515 l 549 515 l 539 458 l 235 458 l 164 50 l 374 50 q 731 165 596 50 q 901 486 865 281 z "},"đ":{"ha":928,"x_min":65,"x_max":1007,"o":"m 999 881 l 907 881 l 751 0 l 690 0 l 726 200 q 583 48 678 107 q 369 -11 489 -11 q 148 70 231 -11 q 65 290 65 151 q 74 378 65 332 q 156 582 94 494 q 310 717 218 669 q 507 764 401 764 q 697 706 622 764 q 789 557 771 649 l 846 881 l 607 881 l 614 924 l 854 924 l 872 1028 l 933 1028 l 915 924 l 1007 924 l 999 881 m 757 378 q 764 451 764 419 q 693 640 764 569 q 506 710 622 710 q 337 670 414 710 q 208 556 260 631 q 138 378 156 481 q 131 300 131 332 q 199 112 131 179 q 388 44 268 44 q 553 85 475 44 q 685 202 632 126 q 757 378 739 278 z "},"Ē":{"ha":682,"x_min":46,"x_max":711,"o":"m 272 924 l 200 514 l 589 514 l 579 464 l 192 464 l 118 51 l 549 51 l 539 0 l 46 0 l 219 975 l 711 975 l 701 924 l 272 924 m 696 1156 l 688 1107 l 238 1107 l 246 1156 l 696 1156 z "},"ē":{"ha":868,"x_min":65,"x_max":807,"o":"m 508 764 q 672 727 604 764 q 773 628 739 690 q 807 490 807 567 q 801 429 807 457 q 785 354 793 379 l 133 354 q 128 290 128 310 q 200 107 128 171 q 382 43 272 43 q 577 98 492 43 q 699 247 663 153 l 764 247 q 616 60 719 132 q 372 -11 513 -11 q 149 69 233 -11 q 65 289 65 150 q 74 378 65 332 q 157 583 94 496 q 310 717 219 671 q 508 764 401 764 m 735 403 q 744 485 744 443 q 674 653 744 594 q 497 711 604 711 q 344 676 418 711 q 217 572 271 642 q 142 403 163 503 l 735 403 m 760 956 l 751 907 l 301 907 l 310 956 l 760 956 z "},"Ĕ":{"ha":682,"x_min":46,"x_max":711,"o":"m 272 924 l 200 514 l 589 514 l 579 464 l 192 464 l 118 51 l 549 51 l 539 0 l 46 0 l 219 975 l 711 975 l 701 924 l 272 924 m 656 1210 q 591 1099 644 1144 q 451 1053 538 1053 q 338 1090 376 1053 q 300 1182 300 1126 q 303 1210 300 1190 l 306 1222 l 350 1222 q 347 1194 347 1203 q 376 1128 347 1151 q 460 1104 404 1104 q 564 1135 525 1104 q 613 1222 603 1165 l 657 1222 l 656 1210 z "},"ĕ":{"ha":868,"x_min":65,"x_max":807,"o":"m 508 764 q 672 727 604 764 q 773 628 739 690 q 807 490 807 567 q 801 429 807 457 q 785 354 793 379 l 133 354 q 128 290 128 310 q 200 107 128 171 q 382 43 272 43 q 577 98 492 43 q 699 247 663 153 l 764 247 q 616 60 719 132 q 372 -11 513 -11 q 149 69 233 -11 q 65 289 65 150 q 74 378 65 332 q 157 583 94 496 q 310 717 219 671 q 508 764 401 764 m 735 403 q 744 485 744 443 q 674 653 744 594 q 497 711 604 711 q 344 676 418 711 q 217 572 271 642 q 142 403 163 503 l 735 403 m 721 1010 q 656 899 710 944 q 517 853 603 853 q 403 890 442 853 q 365 982 365 926 q 368 1010 365 990 l 371 1022 l 415 1022 q 413 994 413 1003 q 441 928 413 951 q 525 904 469 904 q 629 935 590 904 q 678 1022 668 965 l 722 1022 l 721 1010 z "},"Ė":{"ha":682,"x_min":46,"x_max":711,"o":"m 272 924 l 200 514 l 589 514 l 579 464 l 192 464 l 118 51 l 549 51 l 539 0 l 46 0 l 219 975 l 711 975 l 701 924 l 272 924 m 451 1044 q 419 1057 432 1044 q 406 1088 406 1069 q 426 1131 406 1113 q 469 1150 446 1150 q 501 1138 489 1150 q 514 1107 514 1126 q 494 1063 514 1082 q 451 1044 475 1044 z "},"ė":{"ha":868,"x_min":65,"x_max":807,"o":"m 508 764 q 672 727 604 764 q 773 628 739 690 q 807 490 807 567 q 801 429 807 457 q 785 354 793 379 l 133 354 q 128 290 128 310 q 200 107 128 171 q 382 43 272 43 q 577 98 492 43 q 699 247 663 153 l 764 247 q 616 60 719 132 q 372 -11 513 -11 q 149 69 233 -11 q 65 289 65 150 q 74 378 65 332 q 157 583 94 496 q 310 717 219 671 q 508 764 401 764 m 735 403 q 744 485 744 443 q 674 653 744 594 q 497 711 604 711 q 344 676 418 711 q 217 572 271 642 q 142 403 163 503 l 735 403 m 517 846 q 484 858 497 846 q 471 889 471 871 q 491 933 471 914 q 535 951 511 951 q 567 940 554 951 q 579 908 579 928 q 560 865 579 883 q 517 846 540 846 z "},"Ę":{"ha":682,"x_min":46,"x_max":711,"o":"m 272 924 l 200 514 l 589 514 l 579 464 l 192 464 l 118 51 l 549 51 l 539 0 l 440 -43 q 328 -168 328 -92 q 349 -210 328 -196 q 406 -225 369 -225 q 499 -207 447 -225 l 490 -254 q 393 -272 439 -272 q 305 -249 339 -272 q 271 -181 271 -226 q 433 -1 271 -69 l 436 0 l 46 0 l 219 975 l 711 975 l 701 924 l 272 924 z "},"ę":{"ha":868,"x_min":65,"x_max":807,"o":"m 508 764 q 672 727 604 764 q 773 628 739 690 q 807 490 807 567 q 801 429 807 457 q 785 354 793 379 l 133 354 q 128 290 128 310 q 200 107 128 171 q 382 43 272 43 q 577 98 492 43 q 699 247 663 153 l 764 247 q 662 97 731 161 q 500 7 593 33 l 428 -25 q 315 -150 315 -74 q 336 -192 315 -178 q 393 -207 357 -207 q 486 -189 435 -207 l 478 -236 q 381 -254 426 -254 q 292 -231 326 -254 q 258 -162 258 -208 q 364 -11 258 -72 q 147 72 228 -8 q 65 289 65 151 q 74 378 65 332 q 157 583 94 496 q 310 717 219 671 q 508 764 401 764 m 735 403 q 744 485 744 443 q 674 653 744 594 q 497 711 604 711 q 344 676 418 711 q 217 572 271 642 q 142 403 163 503 l 735 403 z "},"Ě":{"ha":682,"x_min":46,"x_max":711,"o":"m 272 924 l 200 514 l 589 514 l 579 464 l 192 464 l 118 51 l 549 51 l 539 0 l 46 0 l 219 975 l 711 975 l 701 924 l 272 924 m 650 1163 l 451 1049 l 292 1163 l 301 1215 l 461 1101 l 660 1215 l 650 1163 z "},"ě":{"ha":868,"x_min":65,"x_max":807,"o":"m 508 764 q 672 727 604 764 q 773 628 739 690 q 807 490 807 567 q 801 429 807 457 q 785 354 793 379 l 133 354 q 128 290 128 310 q 200 107 128 171 q 382 43 272 43 q 577 98 492 43 q 699 247 663 153 l 764 247 q 616 60 719 132 q 372 -11 513 -11 q 149 69 233 -11 q 65 289 65 150 q 74 378 65 332 q 157 583 94 496 q 310 717 219 671 q 508 764 401 764 m 735 403 q 744 485 744 443 q 674 653 744 594 q 497 711 604 711 q 344 676 418 711 q 217 572 271 642 q 142 403 163 503 l 735 403 m 715 963 l 517 849 l 357 963 l 367 1015 l 526 901 l 725 1015 l 715 963 z "},"Ğ":{"ha":1093,"x_min":83,"x_max":1042,"o":"m 93 486 q 199 744 118 631 q 400 920 281 857 q 654 983 519 983 q 912 905 811 983 q 1042 688 1013 826 l 969 688 q 860 863 946 797 q 644 928 775 928 q 426 874 529 928 q 252 719 324 819 q 157 486 181 619 q 149 389 149 436 q 192 206 149 283 q 312 88 235 129 q 489 46 389 46 q 699 96 600 46 q 869 238 799 146 q 967 456 939 331 l 532 456 l 542 507 l 1040 507 l 1032 465 q 924 222 1004 329 q 728 52 844 114 q 479 -10 611 -10 q 272 39 361 -10 q 133 177 182 88 q 83 383 83 267 q 93 486 83 436 m 883 1210 q 819 1099 872 1144 q 679 1053 765 1053 q 566 1090 604 1053 q 528 1182 528 1126 q 531 1210 528 1190 l 533 1222 l 578 1222 q 575 1194 575 1203 q 603 1128 575 1151 q 688 1104 632 1104 q 792 1135 753 1104 q 840 1222 831 1165 l 885 1222 l 883 1210 z "},"ğ":{"ha":935,"x_min":33,"x_max":886,"o":"m 507 764 q 699 706 625 764 q 789 558 772 649 l 824 754 l 886 754 l 749 -24 q 670 -206 729 -128 q 526 -327 611 -285 q 344 -369 440 -369 q 122 -301 203 -369 q 33 -118 40 -233 l 96 -118 q 174 -262 107 -208 q 354 -315 240 -315 q 503 -280 433 -315 q 622 -178 574 -244 q 686 -24 671 -112 l 725 197 q 582 48 676 107 q 369 -11 488 -11 q 148 70 231 -11 q 65 290 65 151 q 74 378 65 332 q 156 582 94 494 q 310 717 218 669 q 507 764 401 764 m 757 378 q 764 451 764 419 q 693 640 764 569 q 506 710 622 710 q 337 670 414 710 q 208 556 260 631 q 138 378 156 481 q 131 300 131 332 q 199 112 131 179 q 388 44 268 44 q 553 85 475 44 q 685 202 632 126 q 757 378 739 278 m 757 1010 q 692 899 746 944 q 553 853 639 853 q 440 890 478 853 q 401 982 401 926 q 404 1010 401 990 l 407 1022 l 451 1022 q 449 994 449 1003 q 477 928 449 951 q 561 904 506 904 q 665 935 626 904 q 714 1022 704 965 l 758 1022 l 757 1010 z "},"Ġ":{"ha":1093,"x_min":83,"x_max":1042,"o":"m 93 486 q 199 744 118 631 q 400 920 281 857 q 654 983 519 983 q 912 905 811 983 q 1042 688 1013 826 l 969 688 q 860 863 946 797 q 644 928 775 928 q 426 874 529 928 q 252 719 324 819 q 157 486 181 619 q 149 389 149 436 q 192 206 149 283 q 312 88 235 129 q 489 46 389 46 q 699 96 600 46 q 869 238 799 146 q 967 456 939 331 l 532 456 l 542 507 l 1040 507 l 1032 465 q 924 222 1004 329 q 728 52 844 114 q 479 -10 611 -10 q 272 39 361 -10 q 133 177 182 88 q 83 383 83 267 q 93 486 83 436 m 679 1044 q 647 1057 660 1044 q 633 1088 633 1069 q 653 1131 633 1113 q 697 1150 674 1150 q 729 1138 717 1150 q 742 1107 742 1126 q 722 1063 742 1082 q 679 1044 703 1044 z "},"ġ":{"ha":935,"x_min":33,"x_max":886,"o":"m 507 764 q 699 706 625 764 q 789 558 772 649 l 824 754 l 886 754 l 749 -24 q 670 -206 729 -128 q 526 -327 611 -285 q 344 -369 440 -369 q 122 -301 203 -369 q 33 -118 40 -233 l 96 -118 q 174 -262 107 -208 q 354 -315 240 -315 q 503 -280 433 -315 q 622 -178 574 -244 q 686 -24 671 -112 l 725 197 q 582 48 676 107 q 369 -11 488 -11 q 148 70 231 -11 q 65 290 65 151 q 74 378 65 332 q 156 582 94 494 q 310 717 218 669 q 507 764 401 764 m 757 378 q 764 451 764 419 q 693 640 764 569 q 506 710 622 710 q 337 670 414 710 q 208 556 260 631 q 138 378 156 481 q 131 300 131 332 q 199 112 131 179 q 388 44 268 44 q 553 85 475 44 q 685 202 632 126 q 757 378 739 278 m 553 846 q 520 858 533 846 q 507 889 507 871 q 527 933 507 914 q 571 951 547 951 q 603 940 590 951 q 615 908 615 928 q 596 865 615 883 q 553 846 576 846 z "},"Ģ":{"ha":1093,"x_min":83,"x_max":1042,"o":"m 93 486 q 199 744 118 631 q 400 920 281 857 q 654 983 519 983 q 912 905 811 983 q 1042 688 1013 826 l 969 688 q 860 863 946 797 q 644 928 775 928 q 426 874 529 928 q 252 719 324 819 q 157 486 181 619 q 149 389 149 436 q 192 206 149 283 q 312 88 235 129 q 489 46 389 46 q 699 96 600 46 q 869 238 799 146 q 967 456 939 331 l 532 456 l 542 507 l 1040 507 l 1032 465 q 924 222 1004 329 q 728 52 844 114 q 479 -10 611 -10 q 272 39 361 -10 q 133 177 182 88 q 83 383 83 267 q 93 486 83 436 m 515 -78 q 511 -146 515 -115 q 465 -249 499 -218 q 379 -279 431 -279 l 386 -242 q 437 -223 419 -242 q 461 -167 454 -204 l 464 -151 l 413 -151 l 426 -78 l 515 -78 z "},"ģ":{"ha":935,"x_min":33,"x_max":886,"o":"m 485 825 q 494 932 486 875 q 540 1029 507 1000 q 626 1058 572 1058 l 619 1019 q 568 1003 585 1019 q 544 953 551 988 l 538 915 l 596 915 l 581 825 l 485 825 m 507 764 q 699 706 625 764 q 789 558 772 649 l 824 754 l 886 754 l 749 -24 q 670 -206 729 -128 q 526 -327 611 -285 q 344 -369 440 -369 q 122 -301 203 -369 q 33 -118 40 -233 l 96 -118 q 174 -262 107 -208 q 354 -315 240 -315 q 503 -280 433 -315 q 622 -178 574 -244 q 686 -24 671 -112 l 725 197 q 582 48 676 107 q 369 -11 488 -11 q 148 70 231 -11 q 65 290 65 151 q 74 378 65 332 q 156 582 94 494 q 310 717 218 669 q 507 764 401 764 m 757 378 q 764 451 764 419 q 693 640 764 569 q 506 710 622 710 q 337 670 414 710 q 208 556 260 631 q 138 378 156 481 q 131 300 131 332 q 199 112 131 179 q 388 44 268 44 q 553 85 475 44 q 685 202 632 126 q 757 378 739 278 z "},"Ĩ":{"ha":292,"x_min":46,"x_max":481,"o":"m 282 975 l 108 0 l 46 0 l 219 975 l 282 975 m 103 1040 q 151 1122 118 1093 q 225 1151 183 1151 q 266 1142 250 1151 q 301 1115 282 1133 q 333 1091 319 1099 q 367 1083 346 1083 q 410 1100 390 1083 q 439 1147 431 1117 l 481 1147 q 433 1067 467 1097 q 357 1038 399 1038 q 315 1047 331 1038 q 276 1075 299 1056 q 244 1098 257 1090 q 214 1106 232 1106 q 144 1040 165 1106 l 103 1040 z "},"ĩ":{"ha":292,"x_min":46,"x_max":446,"o":"m 243 754 l 108 0 l 46 0 l 181 754 l 243 754 m 68 840 q 116 922 83 893 q 190 951 149 951 q 231 942 215 951 q 267 915 247 933 q 298 891 285 899 q 332 883 311 883 q 376 900 356 883 q 404 947 396 917 l 446 947 q 398 867 432 897 q 322 838 364 838 q 280 847 296 838 q 242 875 264 856 q 210 898 222 890 q 179 906 197 906 q 110 840 131 906 l 68 840 z "},"Ī":{"ha":292,"x_min":46,"x_max":507,"o":"m 282 975 l 108 0 l 46 0 l 219 975 l 282 975 m 507 1156 l 499 1107 l 49 1107 l 57 1156 l 507 1156 z "},"ī":{"ha":292,"x_min":13,"x_max":471,"o":"m 243 754 l 108 0 l 46 0 l 181 754 l 243 754 m 471 956 l 463 907 l 13 907 l 21 956 l 471 956 z "},"Ĭ":{"ha":292,"x_min":46,"x_max":469,"o":"m 282 975 l 108 0 l 46 0 l 219 975 l 282 975 m 468 1210 q 403 1099 457 1144 q 264 1053 350 1053 q 151 1090 189 1053 q 113 1182 113 1126 q 115 1210 113 1190 l 118 1222 l 163 1222 q 160 1194 160 1203 q 188 1128 160 1151 q 272 1104 217 1104 q 376 1135 338 1104 q 425 1222 415 1165 l 469 1222 l 468 1210 z "},"ĭ":{"ha":292,"x_min":46,"x_max":433,"o":"m 243 754 l 108 0 l 46 0 l 181 754 l 243 754 m 432 1010 q 367 899 421 944 q 228 853 314 853 q 115 890 153 853 q 76 982 76 926 q 79 1010 76 990 l 82 1022 l 126 1022 q 124 994 124 1003 q 152 928 124 951 q 236 904 181 904 q 340 935 301 904 q 389 1022 379 965 l 433 1022 l 432 1010 z "},"Į":{"ha":292,"x_min":-158,"x_max":282,"o":"m 11 -43 q -101 -168 -101 -92 q -81 -210 -101 -196 q -24 -225 -60 -225 q 69 -207 18 -225 l 61 -254 q -36 -272 10 -272 q -124 -249 -90 -272 q -158 -181 -158 -226 q 4 -1 -158 -69 l 49 18 l 219 975 l 282 975 l 108 3 l 110 0 l 11 -43 z "},"į":{"ha":292,"x_min":-158,"x_max":306,"o":"m 260 1031 q 292 1018 279 1031 q 306 986 306 1006 q 285 940 306 958 q 240 922 265 922 q 208 934 221 922 q 196 965 196 946 q 215 1012 196 993 q 260 1031 235 1031 m 243 754 l 108 3 l 110 0 l 11 -43 q -101 -168 -101 -92 q -81 -210 -101 -196 q -24 -225 -60 -225 q 69 -207 18 -225 l 61 -254 q -36 -272 10 -272 q -124 -249 -90 -272 q -158 -181 -158 -226 q 4 -1 -158 -69 l 49 18 l 181 754 l 243 754 z "},"İ":{"ha":292,"x_min":46,"x_max":325,"o":"m 282 975 l 108 0 l 46 0 l 219 975 l 282 975 m 263 1044 q 230 1057 243 1044 q 217 1088 217 1069 q 237 1131 217 1113 q 281 1150 257 1150 q 313 1138 300 1150 q 325 1107 325 1126 q 306 1063 325 1082 q 263 1044 286 1044 z "},"ı":{"ha":292,"x_min":46,"x_max":243,"o":"m 243 754 l 108 0 l 46 0 l 181 754 l 243 754 z "},"Ķ":{"ha":738,"x_min":46,"x_max":810,"o":"m 249 486 l 639 0 l 557 0 l 190 457 l 108 0 l 46 0 l 219 975 l 282 975 l 200 513 l 731 975 l 810 975 l 249 486 m 326 -78 q 322 -146 328 -103 q 276 -249 310 -218 q 190 -279 242 -279 l 199 -242 q 248 -223 231 -242 q 272 -167 265 -204 l 275 -151 l 224 -151 l 236 -78 l 326 -78 z "},"ķ":{"ha":607,"x_min":46,"x_max":653,"o":"m 221 379 l 524 0 l 438 0 l 169 346 l 108 0 l 46 0 l 228 1028 l 290 1028 l 182 413 l 565 754 l 653 754 l 221 379 m 182 -78 l 272 -78 q 267 -146 272 -104 q 220 -249 254 -218 q 135 -279 186 -279 l 143 -242 q 192 -223 175 -242 q 217 -167 210 -204 l 219 -151 l 168 -151 l 182 -78 z "},"Ĺ":{"ha":567,"x_min":46,"x_max":561,"o":"m 118 50 l 481 50 l 471 0 l 46 0 l 219 975 l 282 975 l 118 50 m 550 1188 l 247 1015 l 256 1067 l 561 1249 l 550 1188 z "},"ĺ":{"ha":292,"x_min":46,"x_max":432,"o":"m 290 1028 l 108 0 l 46 0 l 228 1028 l 290 1028 m 421 1261 l 118 1089 l 126 1140 l 432 1322 l 421 1261 z "},"Ļ":{"ha":567,"x_min":46,"x_max":481,"o":"m 118 50 l 481 50 l 471 0 l 46 0 l 219 975 l 282 975 l 118 50 m 292 -78 q 288 -146 292 -115 q 240 -249 274 -219 q 154 -279 207 -279 l 163 -242 q 212 -223 194 -242 q 236 -167 229 -204 l 239 -151 l 188 -151 l 201 -78 l 292 -78 z "},"ļ":{"ha":292,"x_min":-31,"x_max":290,"o":"m 290 1028 l 108 0 l 46 0 l 228 1028 l 290 1028 m 106 -78 q 101 -146 106 -115 q 55 -249 89 -218 q -31 -279 21 -279 l -24 -242 q 27 -223 10 -242 q 51 -167 44 -204 l 54 -151 l 3 -151 l 15 -78 l 106 -78 z "},"Ľ":{"ha":574,"x_min":46,"x_max":546,"o":"m 118 50 l 481 50 l 471 0 l 46 0 l 219 975 l 282 975 l 118 50 m 546 975 q 536 868 543 908 q 491 771 524 800 q 404 742 458 742 l 411 781 q 463 797 446 781 q 486 847 481 814 l 493 885 l 435 885 l 451 975 l 546 975 z "},"ľ":{"ha":351,"x_min":46,"x_max":472,"o":"m 290 1028 l 108 0 l 46 0 l 228 1028 l 290 1028 m 472 1028 q 463 921 472 972 q 418 824 451 853 q 331 796 385 796 l 338 835 q 390 851 372 835 q 413 900 407 867 l 421 938 l 363 938 l 378 1028 l 472 1028 z "},"Ŀ":{"ha":567,"x_min":46,"x_max":508,"o":"m 219 975 l 282 975 l 118 50 l 481 50 l 471 0 l 46 0 l 219 975 m 443 426 q 408 442 421 426 q 399 479 396 457 q 422 517 403 501 q 463 532 440 532 q 496 517 483 532 q 504 479 508 501 q 483 442 501 457 q 443 426 465 426 z "},"ŀ":{"ha":349,"x_min":46,"x_max":401,"o":"m 228 1028 l 290 1028 l 108 0 l 46 0 l 228 1028 m 335 457 q 304 469 315 457 q 293 501 293 482 q 312 544 293 525 q 354 563 331 563 q 388 547 375 563 q 399 510 401 531 q 376 472 394 488 q 335 457 357 457 z "},"Ł":{"ha":588,"x_min":19,"x_max":506,"o":"m 506 50 l 496 0 l 71 0 l 154 469 l 19 415 l 29 476 l 164 531 l 243 975 l 307 975 l 233 558 l 446 643 l 435 582 l 222 497 l 143 50 l 506 50 z "},"ł":{"ha":311,"x_min":39,"x_max":358,"o":"m 349 668 l 228 613 l 119 0 l 57 0 l 160 582 l 39 526 l 49 585 l 171 640 l 239 1028 l 301 1028 l 239 671 l 358 726 l 349 668 z "},"Ń":{"ha":926,"x_min":46,"x_max":915,"o":"m 743 0 l 681 0 l 263 872 l 108 0 l 46 0 l 218 974 l 281 974 l 700 104 l 853 974 l 915 974 l 743 0 m 725 1188 l 422 1015 l 431 1067 l 736 1249 l 725 1188 z "},"ń":{"ha":865,"x_min":46,"x_max":776,"o":"m 522 769 q 707 708 638 769 q 776 525 776 646 q 768 442 776 488 l 690 0 l 629 0 l 707 438 q 714 511 714 482 q 658 663 714 611 q 503 715 603 715 q 301 643 386 715 q 185 431 217 571 l 108 0 l 46 0 l 181 754 l 243 754 l 215 596 q 344 725 263 681 q 522 769 425 769 m 636 988 l 333 815 l 342 867 l 647 1049 l 636 988 z "},"Ņ":{"ha":926,"x_min":46,"x_max":915,"o":"m 743 0 l 681 0 l 263 872 l 108 0 l 46 0 l 218 974 l 281 974 l 700 104 l 853 974 l 915 974 l 743 0 m 425 -78 q 421 -146 425 -115 q 374 -249 407 -219 q 289 -279 340 -279 l 296 -242 q 345 -223 328 -242 q 371 -167 363 -204 l 372 -151 l 321 -151 l 335 -78 l 425 -78 z "},"ņ":{"ha":865,"x_min":46,"x_max":776,"o":"m 522 769 q 707 708 638 769 q 776 525 776 646 q 768 442 776 488 l 690 0 l 629 0 l 707 438 q 714 511 714 482 q 658 663 714 611 q 503 715 603 715 q 301 643 386 715 q 185 431 217 571 l 108 0 l 46 0 l 181 754 l 243 754 l 215 596 q 344 725 263 681 q 522 769 425 769 m 311 -78 l 401 -78 q 397 -146 401 -115 q 350 -249 383 -219 q 265 -279 317 -279 l 272 -242 q 322 -223 304 -242 q 347 -167 339 -204 l 349 -151 l 297 -151 l 311 -78 z "},"Ň":{"ha":926,"x_min":46,"x_max":915,"o":"m 743 0 l 681 0 l 263 872 l 108 0 l 46 0 l 218 974 l 281 974 l 700 104 l 853 974 l 915 974 l 743 0 m 779 1163 l 581 1049 l 421 1163 l 431 1215 l 590 1101 l 789 1215 l 779 1163 z "},"ň":{"ha":865,"x_min":46,"x_max":776,"o":"m 522 769 q 707 708 638 769 q 776 525 776 646 q 768 442 776 488 l 690 0 l 629 0 l 707 438 q 714 511 714 482 q 658 663 714 611 q 503 715 603 715 q 301 643 386 715 q 185 431 217 571 l 108 0 l 46 0 l 181 754 l 243 754 l 215 596 q 344 725 263 681 q 522 769 425 769 m 690 963 l 492 849 l 332 963 l 342 1015 l 501 901 l 700 1015 l 690 963 z "},"Ō":{"ha":1097,"x_min":86,"x_max":1047,"o":"m 481 -11 q 273 38 363 -11 q 135 178 183 88 q 86 385 86 268 q 160 683 86 546 q 365 902 235 821 q 653 983 494 983 q 861 934 772 983 q 999 795 950 885 q 1047 589 1047 706 q 973 289 1047 426 q 769 70 899 151 q 481 -11 639 -11 m 489 46 q 741 119 628 46 q 918 317 854 193 q 982 586 982 442 q 940 769 982 692 q 820 887 897 846 q 643 928 743 928 q 390 853 503 928 q 214 655 278 779 q 150 389 150 531 q 193 206 150 283 q 313 88 236 129 q 489 46 389 46 m 919 1158 l 911 1110 l 461 1110 l 469 1158 l 919 1158 z "},"ō":{"ha":896,"x_min":67,"x_max":826,"o":"m 379 -11 q 152 71 238 -11 q 67 293 67 153 q 124 529 67 421 q 285 701 182 638 q 514 764 388 764 q 676 727 606 764 q 787 622 747 690 q 826 460 826 553 q 768 224 826 332 q 608 52 710 115 q 379 -11 506 -11 m 388 43 q 581 100 496 43 q 715 251 667 157 q 763 457 763 346 q 689 646 763 581 q 504 711 615 711 q 310 654 394 711 q 178 502 225 597 q 131 297 131 407 q 203 108 131 174 q 388 43 276 43 m 774 967 l 765 918 l 315 918 l 324 967 l 774 967 z "},"Ŏ":{"ha":1097,"x_min":86,"x_max":1047,"o":"m 481 -11 q 273 38 363 -11 q 135 178 183 88 q 86 385 86 268 q 160 683 86 546 q 365 902 235 821 q 653 983 494 983 q 861 934 772 983 q 999 795 950 885 q 1047 589 1047 706 q 973 289 1047 426 q 769 70 899 151 q 481 -11 639 -11 m 489 46 q 741 119 628 46 q 918 317 854 193 q 982 586 982 442 q 940 769 982 692 q 820 887 897 846 q 643 928 743 928 q 390 853 503 928 q 214 655 278 779 q 150 389 150 531 q 193 206 150 283 q 313 88 236 129 q 489 46 389 46 m 881 1213 q 816 1101 869 1147 q 676 1056 763 1056 q 563 1092 601 1056 q 525 1185 525 1129 q 528 1213 525 1193 l 531 1225 l 575 1225 q 572 1197 572 1206 q 601 1131 572 1154 q 685 1107 629 1107 q 789 1138 750 1107 q 838 1225 828 1168 l 882 1225 l 881 1213 z "},"ŏ":{"ha":896,"x_min":67,"x_max":826,"o":"m 379 -11 q 152 71 238 -11 q 67 293 67 153 q 124 529 67 421 q 285 701 182 638 q 514 764 388 764 q 676 727 606 764 q 787 622 747 690 q 826 460 826 553 q 768 224 826 332 q 608 52 710 115 q 379 -11 506 -11 m 388 43 q 581 100 496 43 q 715 251 667 157 q 763 457 763 346 q 689 646 763 581 q 504 711 615 711 q 310 654 394 711 q 178 502 225 597 q 131 297 131 407 q 203 108 131 174 q 388 43 276 43 m 735 1021 q 670 910 724 956 q 531 864 617 864 q 417 901 456 864 q 379 993 379 938 q 382 1021 379 1001 l 385 1033 l 429 1033 q 426 1006 426 1014 q 455 939 426 963 q 539 915 483 915 q 643 946 604 915 q 692 1033 682 976 l 736 1033 l 735 1021 z "},"Ő":{"ha":1097,"x_min":86,"x_max":1047,"o":"m 481 -11 q 273 38 363 -11 q 135 178 183 88 q 86 385 86 268 q 160 683 86 546 q 365 902 235 821 q 653 983 494 983 q 861 934 772 983 q 999 795 950 885 q 1047 589 1047 706 q 973 289 1047 426 q 769 70 899 151 q 481 -11 639 -11 m 489 46 q 741 119 628 46 q 918 317 854 193 q 982 586 982 442 q 940 769 982 692 q 820 887 897 846 q 643 928 743 928 q 390 853 503 928 q 214 655 278 779 q 150 389 150 531 q 193 206 150 283 q 313 88 236 129 q 489 46 389 46 m 600 1038 l 553 1038 l 669 1207 l 729 1207 l 600 1038 m 775 1038 l 728 1038 l 856 1207 l 914 1207 l 775 1038 z "},"ő":{"ha":896,"x_min":67,"x_max":826,"o":"m 379 -11 q 152 71 238 -11 q 67 293 67 153 q 124 529 67 421 q 285 701 182 638 q 514 764 388 764 q 676 727 606 764 q 787 622 747 690 q 826 460 826 553 q 768 224 826 332 q 608 52 710 115 q 379 -11 506 -11 m 388 43 q 581 100 496 43 q 715 251 667 157 q 763 457 763 346 q 689 646 763 581 q 504 711 615 711 q 310 654 394 711 q 178 502 225 597 q 131 297 131 407 q 203 108 131 174 q 388 43 276 43 m 453 846 l 406 846 l 522 1015 l 582 1015 l 453 846 m 628 846 l 581 846 l 708 1015 l 767 1015 l 628 846 z "},"Œ":{"ha":1526,"x_min":83,"x_max":1557,"o":"m 1044 514 l 1433 514 l 1424 463 l 1036 463 l 964 51 l 1393 51 l 1383 0 l 890 0 l 942 286 q 751 69 878 150 q 476 -11 624 -11 q 271 38 360 -11 q 133 177 182 88 q 83 383 83 267 q 93 486 83 436 q 199 744 118 631 q 399 920 281 857 q 651 983 518 983 q 898 903 800 983 q 1013 689 996 824 l 1064 975 l 1557 975 l 1546 924 l 1117 924 l 1044 514 m 158 486 q 149 388 149 425 q 192 205 149 282 q 312 87 235 128 q 489 46 389 46 q 707 99 604 46 q 881 253 810 153 q 976 486 953 353 q 986 585 986 547 q 943 768 986 690 q 822 887 900 846 q 644 928 744 928 q 427 874 529 928 q 253 719 325 819 q 158 486 182 619 z "},"œ":{"ha":1550,"x_min":65,"x_max":1489,"o":"m 1190 764 q 1353 727 1286 764 q 1455 628 1421 690 q 1489 490 1489 567 q 1483 429 1489 457 q 1464 354 1474 385 l 815 354 q 810 288 810 322 q 881 106 810 169 q 1061 43 951 43 q 1257 98 1172 43 q 1378 247 1342 153 l 1444 247 q 1296 60 1400 132 q 1051 -11 1192 -11 q 853 52 931 -11 q 760 228 775 115 q 601 52 703 115 q 376 -11 499 -11 q 151 70 236 -11 q 65 292 65 151 q 74 378 65 332 q 159 583 94 496 q 317 717 224 671 q 515 764 410 764 q 715 701 636 764 q 813 526 794 639 q 967 701 867 639 q 1190 764 1068 764 m 756 378 q 763 457 763 413 q 690 646 763 581 q 506 711 617 711 q 347 674 424 711 q 213 562 269 638 q 138 378 157 486 q 131 299 131 342 q 203 108 131 174 q 386 43 275 43 q 545 80 468 43 q 679 192 622 117 q 756 378 736 268 m 1415 401 q 1425 483 1425 442 q 1355 652 1425 593 q 1179 711 1285 711 q 1026 676 1100 711 q 899 572 953 642 q 824 401 844 503 l 1415 401 z "},"Ŕ":{"ha":779,"x_min":46,"x_max":768,"o":"m 488 975 q 699 916 629 975 q 768 756 768 857 q 763 696 768 724 q 666 510 742 583 q 465 421 590 438 l 647 0 l 572 0 l 396 415 l 390 415 l 183 415 l 108 0 l 46 0 l 219 975 l 488 975 m 697 696 q 703 753 703 722 q 478 921 703 921 l 272 921 l 192 468 l 400 468 q 604 531 529 468 q 697 696 679 593 m 681 1188 l 378 1015 l 386 1067 l 692 1249 l 681 1188 z "},"ŕ":{"ha":486,"x_min":46,"x_max":531,"o":"m 214 592 q 337 724 258 678 q 524 769 415 769 l 511 704 l 492 704 q 296 641 381 704 q 186 435 211 578 l 108 0 l 46 0 l 181 754 l 243 754 l 214 592 m 519 988 l 217 815 l 225 867 l 531 1049 l 519 988 z "},"Ŗ":{"ha":779,"x_min":46,"x_max":768,"o":"m 488 975 q 699 916 629 975 q 768 756 768 857 q 763 696 768 724 q 666 510 742 583 q 465 421 590 438 l 647 0 l 572 0 l 396 415 l 390 415 l 183 415 l 108 0 l 46 0 l 219 975 l 488 975 m 697 696 q 703 753 703 722 q 478 921 703 921 l 272 921 l 192 468 l 400 468 q 604 531 529 468 q 697 696 679 593 m 257 -78 l 347 -78 q 343 -146 347 -115 q 296 -249 329 -219 q 211 -279 263 -279 l 218 -242 q 267 -223 250 -242 q 293 -167 285 -204 l 294 -151 l 243 -151 l 257 -78 z "},"ŗ":{"ha":486,"x_min":-31,"x_max":524,"o":"m 214 592 q 337 724 258 678 q 524 769 415 769 l 511 704 l 492 704 q 296 641 381 704 q 186 435 211 578 l 108 0 l 46 0 l 181 754 l 243 754 l 214 592 m 15 -78 l 106 -78 q 101 -146 106 -115 q 54 -249 88 -219 q -31 -279 21 -279 l -24 -242 q 51 -167 38 -242 l 53 -151 l 1 -151 l 15 -78 z "},"Ř":{"ha":779,"x_min":46,"x_max":768,"o":"m 488 975 q 699 916 629 975 q 768 756 768 857 q 763 696 768 724 q 666 510 742 583 q 465 421 590 438 l 647 0 l 572 0 l 396 415 l 390 415 l 183 415 l 108 0 l 46 0 l 219 975 l 488 975 m 697 696 q 703 753 703 722 q 478 921 703 921 l 272 921 l 192 468 l 400 468 q 604 531 529 468 q 697 696 679 593 m 735 1163 l 536 1049 l 376 1163 l 386 1215 l 546 1101 l 744 1215 l 735 1163 z "},"ř":{"ha":486,"x_min":46,"x_max":583,"o":"m 214 592 q 337 724 258 678 q 524 769 415 769 l 511 704 l 492 704 q 296 641 381 704 q 186 435 211 578 l 108 0 l 46 0 l 181 754 l 243 754 l 214 592 m 574 963 l 375 849 l 215 963 l 225 1015 l 385 901 l 583 1015 l 574 963 z "},"Ś":{"ha":760,"x_min":49,"x_max":718,"o":"m 335 -10 q 176 24 242 -10 q 79 114 110 57 q 54 240 49 171 l 117 240 q 133 149 114 194 q 204 74 153 104 q 340 43 256 43 q 523 103 454 43 q 592 264 592 164 q 561 363 592 324 q 487 425 531 401 q 367 478 443 449 q 239 535 286 510 q 159 605 192 561 q 126 715 126 649 q 129 750 126 725 q 176 869 136 815 q 285 953 217 922 q 444 985 354 985 q 594 953 532 985 q 688 872 657 922 q 715 764 718 821 l 651 764 q 630 841 653 801 q 558 906 607 881 q 439 932 510 932 q 260 877 331 932 q 190 726 190 822 q 219 638 190 674 q 290 580 247 603 q 404 529 332 557 q 536 469 486 496 q 621 394 586 442 q 656 274 656 346 q 653 232 656 263 q 605 110 644 165 q 496 23 565 56 q 335 -10 426 -10 m 646 1188 l 343 1015 l 351 1067 l 657 1249 l 646 1188 z "},"ś":{"ha":690,"x_min":29,"x_max":617,"o":"m 283 -11 q 98 44 167 -11 q 38 203 29 100 l 100 203 q 142 85 93 129 q 288 42 192 42 q 444 85 386 42 q 503 199 503 129 q 479 268 503 240 q 421 313 456 296 q 324 351 386 329 q 210 397 254 375 q 137 459 167 419 q 107 560 107 499 q 142 666 107 619 q 238 738 176 713 q 374 764 299 764 q 547 710 478 764 q 617 569 617 657 q 615 542 617 551 l 554 542 q 556 564 556 549 q 502 672 556 631 q 368 713 449 713 q 226 672 282 713 q 169 561 169 631 q 194 485 169 515 q 256 438 219 456 q 356 399 293 421 q 466 354 425 375 q 536 296 507 333 q 565 200 565 258 q 487 46 565 103 q 283 -11 408 -11 m 574 988 l 271 815 l 279 867 l 585 1049 l 574 988 z "},"Ş":{"ha":760,"x_min":47,"x_max":718,"o":"m 651 764 q 630 841 653 801 q 558 906 607 881 q 439 932 510 932 q 260 877 331 932 q 190 726 190 822 q 219 638 190 674 q 290 580 247 603 q 404 529 332 557 q 536 469 486 496 q 621 394 586 442 q 656 274 656 346 q 653 232 656 263 q 606 112 644 167 q 499 24 567 57 q 343 -10 432 -8 l 325 -108 q 441 -129 400 -104 q 482 -204 482 -154 q 433 -313 482 -271 q 303 -356 383 -356 l 189 -356 l 197 -308 l 299 -308 q 388 -288 358 -308 q 425 -228 418 -268 q 426 -212 426 -222 q 326 -151 426 -151 l 269 -151 l 294 -8 q 110 72 174 3 q 54 240 47 142 l 117 240 q 133 149 114 194 q 204 74 153 104 q 340 43 256 43 q 523 103 454 43 q 592 264 592 164 q 561 363 592 324 q 487 425 531 401 q 367 478 443 449 q 239 535 286 510 q 159 605 192 561 q 126 715 126 649 q 129 750 126 725 q 176 869 136 815 q 285 953 217 922 q 444 985 354 985 q 594 953 532 985 q 688 872 657 922 q 715 764 718 821 l 651 764 z "},"ş":{"ha":690,"x_min":36,"x_max":617,"o":"m 554 542 q 556 564 556 549 q 502 672 556 631 q 368 713 449 713 q 226 672 282 713 q 169 561 169 631 q 194 485 169 515 q 256 438 219 456 q 356 399 293 421 q 466 354 425 375 q 536 296 507 333 q 565 200 565 258 q 494 52 565 108 q 306 -11 422 -4 l 289 -108 q 405 -129 364 -104 q 446 -204 446 -154 q 397 -313 446 -271 q 267 -356 347 -356 l 153 -356 l 161 -308 l 263 -308 q 352 -288 322 -308 q 389 -228 382 -268 q 390 -212 390 -222 q 290 -151 390 -151 l 233 -151 l 258 -10 q 97 45 157 -4 q 36 182 36 94 l 38 203 l 100 203 q 142 85 93 129 q 288 42 192 42 q 444 85 386 42 q 503 199 503 129 q 479 268 503 240 q 421 313 456 296 q 324 351 386 329 q 210 397 254 375 q 137 459 167 419 q 107 560 107 499 q 142 666 107 619 q 238 738 176 713 q 374 764 299 764 q 547 710 478 764 q 617 569 617 657 q 615 542 617 551 l 554 542 z "},"Š":{"ha":760,"x_min":49,"x_max":718,"o":"m 335 -10 q 176 24 242 -10 q 79 114 110 57 q 54 240 49 171 l 117 240 q 133 149 114 194 q 204 74 153 104 q 340 43 256 43 q 523 103 454 43 q 592 264 592 164 q 561 363 592 324 q 487 425 531 401 q 367 478 443 449 q 239 535 286 510 q 159 605 192 561 q 126 715 126 649 q 129 750 126 725 q 176 869 136 815 q 285 953 217 922 q 444 985 354 985 q 594 953 532 985 q 688 872 657 922 q 715 764 718 821 l 651 764 q 630 841 653 801 q 558 906 607 881 q 439 932 510 932 q 260 877 331 932 q 190 726 190 822 q 219 638 190 674 q 290 580 247 603 q 404 529 332 557 q 536 469 486 496 q 621 394 586 442 q 656 274 656 346 q 653 232 656 263 q 605 110 644 165 q 496 23 565 56 q 335 -10 426 -10 m 700 1163 l 501 1049 l 342 1163 l 351 1215 l 511 1101 l 710 1215 l 700 1163 z "},"š":{"ha":690,"x_min":29,"x_max":638,"o":"m 283 -11 q 98 44 167 -11 q 38 203 29 100 l 100 203 q 142 85 93 129 q 288 42 192 42 q 444 85 386 42 q 503 199 503 129 q 479 268 503 240 q 421 313 456 296 q 324 351 386 329 q 210 397 254 375 q 137 459 167 419 q 107 560 107 499 q 142 666 107 619 q 238 738 176 713 q 374 764 299 764 q 547 710 478 764 q 617 569 617 657 q 615 542 617 551 l 554 542 q 556 564 556 549 q 502 672 556 631 q 368 713 449 713 q 226 672 282 713 q 169 561 169 631 q 194 485 169 515 q 256 438 219 456 q 356 399 293 421 q 466 354 425 375 q 536 296 507 333 q 565 200 565 258 q 487 46 565 103 q 283 -11 408 -11 m 628 963 l 429 849 l 269 963 l 279 1015 l 439 901 l 638 1015 l 628 963 z "},"Ţ":{"ha":688,"x_min":129,"x_max":757,"o":"m 757 975 l 747 924 l 469 924 l 307 0 l 301 0 l 282 -108 q 398 -129 357 -104 q 439 -204 439 -154 q 390 -313 439 -271 q 260 -356 340 -356 l 146 -356 l 154 -308 l 256 -308 q 345 -288 315 -308 q 382 -228 375 -268 q 383 -212 383 -222 q 283 -151 383 -151 l 226 -151 l 253 0 l 244 0 l 407 924 l 129 924 l 139 975 l 757 975 z "},"ţ":{"ha":482,"x_min":86,"x_max":496,"o":"m 175 201 q 169 146 169 174 q 197 76 169 96 q 289 56 225 56 l 372 56 l 363 0 l 268 0 l 244 0 l 225 -108 q 341 -130 300 -104 q 382 -206 382 -156 q 381 -228 382 -219 q 322 -321 369 -286 q 203 -356 275 -356 l 90 -356 l 99 -308 l 200 -308 q 288 -288 258 -308 q 325 -228 318 -268 q 326 -212 326 -222 q 228 -151 326 -151 l 169 -151 l 197 7 q 128 50 151 18 q 106 138 106 82 q 111 201 106 169 l 200 700 l 86 700 l 96 754 l 210 754 l 243 946 l 307 946 l 274 754 l 496 754 l 486 700 l 264 700 l 175 201 z "},"Ť":{"ha":688,"x_min":129,"x_max":757,"o":"m 757 975 l 747 924 l 469 924 l 307 0 l 244 0 l 407 924 l 129 924 l 139 975 l 757 975 m 660 1163 l 461 1049 l 301 1163 l 311 1215 l 471 1101 l 669 1215 l 660 1163 z "},"ť":{"ha":483,"x_min":86,"x_max":522,"o":"m 522 1044 q 513 940 521 981 q 469 849 501 876 q 382 822 436 822 l 388 861 q 440 875 424 861 q 463 919 457 889 l 469 954 l 411 954 l 426 1044 l 522 1044 m 274 754 l 496 754 l 486 700 l 264 700 l 175 201 q 169 146 169 174 q 197 76 169 96 q 289 56 225 56 l 372 56 l 363 0 l 268 0 q 145 32 185 0 q 106 138 106 64 q 111 201 106 169 l 200 700 l 86 700 l 96 754 l 210 754 l 243 946 l 307 946 l 274 754 z "},"Ũ":{"ha":896,"x_min":96,"x_max":892,"o":"m 276 975 l 168 367 q 160 272 160 315 q 221 101 160 156 q 390 46 282 46 q 605 123 518 46 q 721 367 692 200 l 829 975 l 892 975 l 783 367 q 642 83 750 176 q 381 -10 535 -10 q 172 58 249 -10 q 96 265 96 126 q 106 367 96 317 l 214 975 l 276 975 m 406 1040 q 453 1122 421 1093 q 528 1151 486 1151 q 569 1142 553 1151 q 604 1115 585 1133 q 635 1091 622 1099 q 669 1083 649 1083 q 713 1100 693 1083 q 742 1147 733 1117 l 783 1147 q 735 1067 769 1097 q 660 1038 701 1038 q 617 1047 633 1038 q 579 1075 601 1056 q 547 1098 560 1090 q 517 1106 535 1106 q 447 1040 468 1106 l 406 1040 z "},"ũ":{"ha":865,"x_min":88,"x_max":817,"o":"m 817 754 l 683 0 l 621 0 l 650 163 q 521 33 603 78 q 343 -12 439 -12 q 158 49 228 -12 q 88 233 88 111 q 94 315 88 279 l 174 754 l 235 754 l 157 319 q 150 247 150 275 q 206 94 150 146 q 361 42 261 42 q 570 120 483 42 q 682 350 657 199 l 682 346 l 754 754 l 817 754 m 357 840 q 405 922 372 893 q 479 951 438 951 q 520 942 504 951 q 556 915 536 933 q 587 891 574 899 q 621 883 600 883 q 665 900 644 883 q 693 947 685 917 l 735 947 q 687 867 721 897 q 611 838 653 838 q 569 847 585 838 q 531 875 553 856 q 499 898 511 890 q 468 906 486 906 q 399 840 419 906 l 357 840 z "},"Ū":{"ha":896,"x_min":96,"x_max":892,"o":"m 276 975 l 168 367 q 160 272 160 315 q 221 101 160 156 q 390 46 282 46 q 605 123 518 46 q 721 367 692 200 l 829 975 l 892 975 l 783 367 q 642 83 750 176 q 381 -10 535 -10 q 172 58 249 -10 q 96 265 96 126 q 106 367 96 317 l 214 975 l 276 975 m 808 1156 l 800 1107 l 350 1107 l 358 1156 l 808 1156 z "},"ū":{"ha":865,"x_min":88,"x_max":817,"o":"m 817 754 l 683 0 l 621 0 l 650 163 q 521 33 603 78 q 343 -12 439 -12 q 158 49 228 -12 q 88 233 88 111 q 94 315 88 279 l 174 754 l 235 754 l 157 319 q 150 247 150 275 q 206 94 150 146 q 361 42 261 42 q 570 120 483 42 q 682 350 657 199 l 682 346 l 754 754 l 817 754 m 760 956 l 751 907 l 301 907 l 310 956 l 760 956 z "},"Ŭ":{"ha":896,"x_min":96,"x_max":892,"o":"m 276 975 l 168 367 q 160 272 160 315 q 221 101 160 156 q 390 46 282 46 q 605 123 518 46 q 721 367 692 200 l 829 975 l 892 975 l 783 367 q 642 83 750 176 q 381 -10 535 -10 q 172 58 249 -10 q 96 265 96 126 q 106 367 96 317 l 214 975 l 276 975 m 769 1210 q 705 1099 758 1144 q 565 1053 651 1053 q 452 1090 490 1053 q 414 1182 414 1126 q 417 1210 414 1190 l 419 1222 l 464 1222 q 461 1194 461 1203 q 490 1128 461 1151 q 574 1104 518 1104 q 678 1135 639 1104 q 726 1222 717 1165 l 771 1222 l 769 1210 z "},"ŭ":{"ha":865,"x_min":88,"x_max":817,"o":"m 817 754 l 683 0 l 621 0 l 650 163 q 521 33 603 78 q 343 -12 439 -12 q 158 49 228 -12 q 88 233 88 111 q 94 315 88 279 l 174 754 l 235 754 l 157 319 q 150 247 150 275 q 206 94 150 146 q 361 42 261 42 q 570 120 483 42 q 682 350 657 199 l 682 346 l 754 754 l 817 754 m 721 1010 q 656 899 710 944 q 517 853 603 853 q 403 890 442 853 q 365 982 365 926 q 368 1010 365 990 l 371 1022 l 415 1022 q 413 994 413 1003 q 441 928 413 951 q 525 904 469 904 q 629 935 590 904 q 678 1022 668 965 l 722 1022 l 721 1010 z "},"Ů":{"ha":896,"x_min":96,"x_max":892,"o":"m 276 975 l 168 367 q 160 272 160 315 q 221 101 160 156 q 390 46 282 46 q 605 123 518 46 q 721 367 692 200 l 829 975 l 892 975 l 783 367 q 642 83 750 176 q 381 -10 535 -10 q 172 58 249 -10 q 96 265 96 126 q 106 367 96 317 l 214 975 l 276 975 m 456 1182 q 511 1279 467 1243 q 611 1315 556 1315 q 692 1288 661 1315 q 722 1211 722 1260 q 675 1095 722 1140 q 564 1050 628 1050 q 484 1078 515 1050 q 453 1156 453 1107 q 456 1182 453 1163 m 681 1204 q 659 1256 681 1238 q 603 1275 638 1275 q 535 1250 564 1275 q 497 1183 506 1225 q 496 1164 496 1176 q 517 1110 496 1131 q 571 1090 538 1090 q 648 1122 615 1090 q 681 1204 681 1154 z "},"ů":{"ha":865,"x_min":88,"x_max":817,"o":"m 817 754 l 683 0 l 621 0 l 650 163 q 521 33 603 78 q 343 -12 439 -12 q 158 49 228 -12 q 88 233 88 111 q 94 315 88 279 l 174 754 l 235 754 l 157 319 q 150 247 150 275 q 206 94 150 146 q 361 42 261 42 q 570 120 483 42 q 682 350 657 199 l 682 346 l 754 754 l 817 754 m 407 982 q 463 1079 418 1043 q 563 1115 507 1115 q 643 1088 613 1115 q 674 1011 674 1060 q 626 895 674 940 q 515 850 579 850 q 435 878 467 850 q 404 956 404 907 q 407 982 404 963 m 632 1004 q 610 1056 632 1038 q 554 1075 589 1075 q 486 1050 515 1075 q 449 983 457 1025 q 447 964 447 976 q 468 910 447 931 q 522 890 489 890 q 599 922 567 890 q 632 1004 632 954 z "},"Ű":{"ha":896,"x_min":96,"x_max":892,"o":"m 276 975 l 168 367 q 160 272 160 315 q 221 101 160 156 q 390 46 282 46 q 605 123 518 46 q 721 367 692 200 l 829 975 l 892 975 l 783 367 q 642 83 750 176 q 381 -10 535 -10 q 172 58 249 -10 q 96 265 96 126 q 106 367 96 317 l 214 975 l 276 975 m 489 1035 l 442 1035 l 558 1204 l 618 1204 l 489 1035 m 664 1035 l 617 1035 l 744 1204 l 803 1204 l 664 1035 z "},"ű":{"ha":865,"x_min":88,"x_max":817,"o":"m 817 754 l 683 0 l 621 0 l 650 163 q 521 33 603 78 q 343 -12 439 -12 q 158 49 228 -12 q 88 233 88 111 q 94 315 88 279 l 174 754 l 235 754 l 157 319 q 150 247 150 275 q 206 94 150 146 q 361 42 261 42 q 570 120 483 42 q 682 350 657 199 l 682 346 l 754 754 l 817 754 m 440 835 l 393 835 l 510 1004 l 569 1004 l 440 835 m 615 835 l 568 835 l 696 1004 l 754 1004 l 615 835 z "},"Ų":{"ha":896,"x_min":96,"x_max":892,"o":"m 892 975 l 783 367 q 673 114 756 206 q 469 -1 590 22 l 374 -43 q 261 -168 261 -92 q 282 -210 261 -196 q 339 -225 303 -225 q 432 -207 381 -225 l 424 -254 q 326 -272 372 -272 q 238 -249 272 -272 q 204 -181 204 -226 q 350 -8 204 -75 q 164 67 232 -1 q 96 265 96 136 q 106 367 96 317 l 214 975 l 276 975 l 168 367 q 160 272 160 315 q 221 101 160 156 q 390 46 282 46 q 605 123 518 46 q 721 367 692 200 l 829 975 l 892 975 z "},"ų":{"ha":865,"x_min":88,"x_max":817,"o":"m 585 -43 q 472 -168 472 -92 q 493 -210 472 -196 q 550 -225 514 -225 q 643 -207 592 -225 l 635 -254 q 538 -272 583 -272 q 449 -249 483 -272 q 415 -181 415 -226 q 578 -1 415 -69 l 624 18 l 650 163 q 521 33 603 78 q 343 -12 439 -12 q 158 49 228 -12 q 88 233 88 111 q 94 315 88 279 l 174 754 l 235 754 l 157 319 q 150 247 150 275 q 206 94 150 146 q 361 42 261 42 q 570 120 483 42 q 682 350 657 199 l 682 346 l 754 754 l 817 754 l 683 0 l 585 -43 z "},"Ŵ":{"ha":1290,"x_min":147,"x_max":1353,"o":"m 1353 975 l 911 0 l 843 0 l 731 876 l 308 0 l 240 0 l 147 975 l 217 975 l 293 92 l 715 975 l 788 975 l 893 92 l 1283 975 l 1353 975 m 747 1189 l 549 1075 l 557 1128 l 757 1242 l 914 1128 l 906 1075 l 747 1189 z "},"ŵ":{"ha":1124,"x_min":90,"x_max":1165,"o":"m 1165 754 l 794 0 l 735 0 l 613 669 l 253 0 l 193 0 l 90 754 l 156 754 l 239 79 l 599 754 l 660 754 l 779 79 l 1101 754 l 1165 754 m 665 967 l 467 853 l 475 906 l 675 1019 l 832 906 l 824 853 l 665 967 z "},"Ŷ":{"ha":751,"x_min":140,"x_max":821,"o":"m 821 975 l 410 394 l 340 0 l 278 0 l 347 394 l 140 975 l 213 975 l 389 454 l 749 975 l 821 975 m 515 1167 l 317 1053 l 325 1106 l 525 1219 l 682 1106 l 674 1053 l 515 1167 z "},"ŷ":{"ha":728,"x_min":67,"x_max":769,"o":"m 158 754 l 321 78 l 703 754 l 769 754 l 135 -354 l 67 -354 l 271 1 l 90 754 l 158 754 m 468 967 l 269 853 l 278 906 l 478 1019 l 635 906 l 626 853 l 468 967 z "},"Ÿ":{"ha":751,"x_min":140,"x_max":821,"o":"m 821 975 l 410 394 l 340 0 l 278 0 l 347 394 l 140 975 l 213 975 l 389 454 l 749 975 l 821 975 m 400 1068 q 368 1081 381 1068 q 356 1113 356 1093 q 374 1155 356 1136 q 418 1174 393 1174 q 448 1161 436 1174 q 460 1131 460 1149 q 442 1087 460 1106 q 400 1068 424 1068 m 600 1068 q 568 1081 581 1068 q 556 1113 556 1093 q 574 1155 556 1136 q 618 1174 593 1174 q 649 1161 636 1174 q 661 1131 661 1149 q 642 1087 661 1106 q 600 1068 624 1068 z "},"Ź":{"ha":703,"x_min":-14,"x_max":743,"o":"m 69 56 l 592 56 l 581 0 l -14 0 l -4 53 l 661 918 l 161 918 l 172 975 l 743 975 l 733 921 l 69 56 m 614 1188 l 311 1015 l 319 1067 l 625 1249 l 614 1188 z "},"ź":{"ha":589,"x_min":-21,"x_max":597,"o":"m 60 53 l 483 53 l 474 0 l -21 0 l -11 53 l 517 701 l 113 701 l 122 754 l 597 754 l 588 701 l 60 53 m 522 988 l 219 815 l 228 867 l 533 1049 l 522 988 z "},"Ż":{"ha":703,"x_min":-14,"x_max":743,"o":"m 69 56 l 592 56 l 581 0 l -14 0 l -4 53 l 661 918 l 161 918 l 172 975 l 743 975 l 733 921 l 69 56 m 469 1044 q 437 1057 450 1044 q 424 1088 424 1069 q 444 1131 424 1113 q 488 1150 464 1150 q 519 1138 507 1150 q 532 1107 532 1126 q 513 1063 532 1082 q 469 1044 493 1044 z "},"ż":{"ha":589,"x_min":-21,"x_max":597,"o":"m 60 53 l 483 53 l 474 0 l -21 0 l -11 53 l 517 701 l 113 701 l 122 754 l 597 754 l 588 701 l 60 53 m 378 846 q 345 858 358 846 q 332 889 332 871 q 352 933 332 914 q 396 951 372 951 q 428 940 415 951 q 440 908 440 928 q 421 865 440 883 q 378 846 401 846 z "},"Ž":{"ha":703,"x_min":-14,"x_max":743,"o":"m 69 56 l 592 56 l 581 0 l -14 0 l -4 53 l 661 918 l 161 918 l 172 975 l 743 975 l 733 921 l 69 56 m 668 1163 l 469 1049 l 310 1163 l 319 1215 l 479 1101 l 678 1215 l 668 1163 z "},"ž":{"ha":589,"x_min":-21,"x_max":597,"o":"m 60 53 l 483 53 l 474 0 l -21 0 l -11 53 l 517 701 l 113 701 l 122 754 l 597 754 l 588 701 l 60 53 m 576 963 l 378 849 l 218 963 l 228 1015 l 388 901 l 586 1015 l 576 963 z "},"Ə":{"ha":1056,"x_min":76,"x_max":1008,"o":"m 624 983 q 826 934 739 983 q 960 797 913 885 q 1008 594 1008 708 q 937 293 1008 432 q 737 72 865 154 q 446 -11 608 -11 q 252 32 336 -11 q 122 156 168 75 q 76 343 76 236 q 101 510 76 419 l 933 510 l 935 535 l 939 571 q 903 760 943 679 q 788 884 864 840 q 614 928 713 928 q 367 853 482 928 q 196 653 251 779 l 126 653 q 324 894 190 804 q 624 983 458 983 m 454 46 q 671 99 571 46 q 838 246 771 153 q 926 453 906 339 l 154 453 q 142 343 142 394 q 225 126 142 206 q 454 46 308 46 z "},"ƒ":{"ha":460,"x_min":-153,"x_max":583,"o":"m 569 1000 q 417 961 474 1000 q 339 839 361 922 l 315 754 l 511 754 l 497 701 l 300 701 l 85 -58 q 17 -180 63 -140 q -114 -219 -29 -219 l -153 -219 l -137 -165 l -104 -165 q -23 -143 -51 -165 q 22 -58 6 -121 l 239 701 l 125 701 l 139 754 l 254 754 l 278 839 q 384 1001 308 950 q 583 1053 460 1053 l 569 1000 z "},"Ǽ":{"ha":1193,"x_min":-54,"x_max":1222,"o":"m 783 924 l 711 514 l 1100 514 l 1090 464 l 703 464 l 631 51 l 1060 51 l 1050 0 l 558 0 l 603 250 l 208 250 l 15 0 l -54 0 l 703 975 l 1222 975 l 1213 924 l 783 924 m 718 908 l 249 301 l 611 301 l 718 908 m 1007 1208 l 704 1036 l 713 1088 l 1018 1269 l 1007 1208 z "},"ǽ":{"ha":1560,"x_min":65,"x_max":1497,"o":"m 1201 764 q 1364 727 1297 764 q 1464 628 1431 690 q 1497 490 1497 567 q 1492 429 1497 457 q 1472 354 1482 385 l 815 354 q 811 294 811 324 q 846 156 811 213 q 939 71 881 99 q 1067 43 997 43 q 1267 98 1181 43 q 1388 247 1353 153 l 1454 247 q 1307 60 1410 132 q 1065 -11 1204 -11 q 876 47 953 -11 q 786 210 799 104 l 750 0 l 690 0 l 728 208 q 582 49 678 110 q 369 -11 486 -11 q 148 70 231 -11 q 65 290 65 151 q 74 378 65 332 q 156 582 94 494 q 310 717 218 669 q 508 764 401 764 q 698 706 625 764 q 788 547 771 647 l 824 754 l 883 754 l 847 547 q 996 708 901 653 q 1201 764 1090 764 m 1425 403 q 1435 483 1435 443 q 1364 652 1435 593 q 1186 711 1293 711 q 1031 676 1106 711 q 901 572 957 642 q 825 403 846 503 l 1425 403 m 757 378 q 764 451 764 419 q 693 640 764 569 q 506 710 622 710 q 337 670 414 710 q 208 556 260 631 q 138 378 156 481 q 131 300 131 332 q 199 112 131 179 q 388 44 268 44 q 553 85 475 44 q 685 202 632 126 q 757 378 739 278 m 1135 988 l 832 815 l 840 867 l 1146 1049 l 1135 988 z "},"Ș":{"ha":769,"x_min":49,"x_max":718,"o":"m 335 -10 q 176 24 242 -10 q 79 114 110 57 q 54 240 49 171 l 117 240 q 133 149 114 194 q 204 74 153 104 q 340 43 256 43 q 523 103 454 43 q 592 264 592 164 q 561 363 592 324 q 487 425 531 401 q 367 478 443 449 q 239 535 286 510 q 159 605 192 561 q 126 715 126 649 q 129 750 126 725 q 176 869 136 815 q 285 953 217 922 q 444 985 354 985 q 594 953 532 985 q 688 872 657 922 q 715 764 718 821 l 651 764 q 630 841 653 801 q 558 906 607 881 q 439 932 510 932 q 260 877 331 932 q 190 726 190 822 q 219 638 190 674 q 290 580 247 603 q 404 529 332 557 q 536 469 486 496 q 621 394 586 442 q 656 274 656 346 q 653 232 656 263 q 605 110 644 165 q 496 23 565 56 q 335 -10 426 -10 m 372 -78 q 368 -146 374 -103 q 322 -249 356 -218 q 236 -279 288 -279 l 243 -242 q 294 -223 276 -242 q 318 -167 311 -204 l 321 -151 l 269 -151 l 282 -78 l 372 -78 z "},"ș":{"ha":690,"x_min":29,"x_max":617,"o":"m 283 -11 q 98 44 167 -11 q 38 203 29 100 l 100 203 q 142 85 93 129 q 288 42 192 42 q 444 85 386 42 q 503 199 503 129 q 479 268 503 240 q 421 313 456 296 q 324 351 386 329 q 210 397 254 375 q 137 459 167 419 q 107 560 107 499 q 142 666 107 619 q 238 738 176 713 q 374 764 299 764 q 547 710 478 764 q 617 569 617 657 q 615 542 617 551 l 554 542 q 556 564 556 549 q 502 672 556 631 q 368 713 449 713 q 226 672 282 713 q 169 561 169 631 q 194 485 169 515 q 256 438 219 456 q 356 399 293 421 q 466 354 425 375 q 536 296 507 333 q 565 200 565 258 q 487 46 565 103 q 283 -11 408 -11 m 329 -78 q 325 -146 329 -115 q 278 -249 311 -219 q 193 -279 244 -279 l 200 -242 q 249 -223 232 -242 q 275 -167 267 -204 l 276 -151 l 225 -151 l 239 -78 l 329 -78 z "},"Ț":{"ha":688,"x_min":129,"x_max":757,"o":"m 757 975 l 747 924 l 469 924 l 307 0 l 244 0 l 407 924 l 129 924 l 139 975 l 757 975 m 304 -78 q 300 -146 304 -115 q 253 -249 286 -219 q 168 -279 219 -279 l 175 -242 q 224 -223 207 -242 q 250 -167 242 -204 l 251 -151 l 200 -151 l 214 -78 l 304 -78 z "},"ț":{"ha":482,"x_min":86,"x_max":496,"o":"m 175 201 q 169 146 169 174 q 197 76 169 96 q 289 56 225 56 l 372 56 l 363 0 l 268 0 q 145 32 185 0 q 106 138 106 64 q 111 201 106 169 l 200 700 l 86 700 l 96 754 l 210 754 l 243 946 l 307 946 l 274 754 l 496 754 l 486 700 l 264 700 l 175 201 m 238 -78 q 233 -146 239 -103 q 187 -249 221 -218 q 101 -279 153 -279 l 108 -242 q 159 -223 142 -242 q 183 -167 176 -204 l 186 -151 l 135 -151 l 149 -78 l 238 -78 z "},"ə":{"ha":868,"x_min":61,"x_max":803,"o":"m 496 765 q 719 685 635 765 q 803 465 803 604 q 794 376 803 422 q 711 171 774 258 q 558 37 649 83 q 360 -10 467 -10 q 197 27 264 -10 q 95 126 129 64 q 61 264 61 188 q 67 325 61 297 q 83 400 75 375 l 735 400 q 740 464 740 444 q 668 647 740 583 q 486 711 596 711 q 291 656 376 711 q 169 507 206 601 l 104 507 q 252 694 149 622 q 496 765 356 765 m 371 43 q 524 78 450 43 q 651 182 597 113 q 726 351 706 251 l 133 351 q 124 269 124 311 q 194 101 124 160 q 371 43 264 43 z "},"ʼ":{"ha":239,"x_min":104,"x_max":311,"o":"m 232 975 l 311 975 l 153 690 l 104 690 l 232 975 z "},"ˆ":{"ha":446,"x_min":128,"x_max":493,"o":"m 326 967 l 128 853 l 136 906 l 336 1019 l 493 906 l 485 853 l 326 967 z "},"ˇ":{"ha":446,"x_min":146,"x_max":514,"o":"m 504 963 l 306 849 l 146 963 l 156 1015 l 315 901 l 514 1015 l 504 963 z "},"ˉ":{"ha":539,"x_min":138,"x_max":596,"o":"m 596 956 l 588 907 l 138 907 l 146 956 l 596 956 z "},"˘":{"ha":440,"x_min":151,"x_max":508,"o":"m 507 1010 q 442 899 496 944 q 303 853 389 853 q 190 890 228 853 q 151 982 151 926 q 154 1010 151 990 l 157 1022 l 201 1022 q 199 994 199 1003 q 227 928 199 951 q 311 904 256 904 q 415 935 376 904 q 464 1022 454 965 l 508 1022 l 507 1010 z "},"˙":{"ha":208,"x_min":144,"x_max":253,"o":"m 190 868 q 158 881 171 868 q 144 911 144 893 q 165 955 144 936 q 208 974 185 974 q 240 962 228 974 q 253 931 253 950 q 233 887 253 906 q 190 868 214 868 z "},"˚":{"ha":353,"x_min":147,"x_max":417,"o":"m 150 982 q 206 1079 161 1043 q 306 1115 250 1115 q 386 1088 356 1115 q 417 1011 417 1060 q 369 895 417 940 q 258 850 322 850 q 178 878 210 850 q 147 956 147 907 q 150 982 147 963 m 375 1004 q 353 1056 375 1038 q 297 1075 332 1075 q 229 1050 258 1075 q 192 983 200 1025 q 190 964 190 976 q 211 910 190 931 q 265 890 232 890 q 342 922 310 890 q 375 1004 375 954 z "},"˛":{"ha":354,"x_min":-42,"x_max":226,"o":"m 226 0 l 128 -43 q 15 -168 15 -92 q 36 -210 15 -196 q 93 -225 57 -225 q 186 -207 135 -225 l 178 -254 q 81 -272 126 -272 q -8 -249 26 -272 q -42 -181 -42 -226 q 121 -1 -42 -69 l 213 38 l 226 0 z "},"˜":{"ha":447,"x_min":125,"x_max":503,"o":"m 125 840 q 173 922 140 893 q 247 951 206 951 q 288 942 272 951 q 324 915 304 933 q 355 891 342 899 q 389 883 368 883 q 433 900 413 883 q 461 947 453 917 l 503 947 q 455 867 489 897 q 379 838 421 838 q 337 847 353 838 q 299 875 321 856 q 267 898 279 890 q 236 906 254 906 q 167 840 188 906 l 125 840 z "},"˝":{"ha":421,"x_min":124,"x_max":485,"o":"m 171 835 l 124 835 l 240 1004 l 300 1004 l 171 835 m 346 835 l 299 835 l 426 1004 l 485 1004 l 346 835 z "},"π":{"ha":996,"x_min":126,"x_max":982,"o":"m 982 754 l 972 703 l 856 703 l 731 0 l 669 0 l 793 703 l 313 703 l 189 0 l 126 0 l 250 703 l 133 703 l 143 754 l 982 754 z "},"Ẁ":{"ha":1290,"x_min":147,"x_max":1353,"o":"m 1353 975 l 911 0 l 843 0 l 731 876 l 308 0 l 240 0 l 147 975 l 217 975 l 293 92 l 715 975 l 788 975 l 893 92 l 1283 975 l 1353 975 m 750 1088 l 742 1036 l 500 1208 l 511 1269 l 750 1088 z "},"ẁ":{"ha":1124,"x_min":90,"x_max":1165,"o":"m 1165 754 l 794 0 l 735 0 l 613 669 l 253 0 l 193 0 l 90 754 l 156 754 l 239 79 l 599 754 l 660 754 l 779 79 l 1101 754 l 1165 754 m 663 867 l 654 815 l 413 988 l 424 1049 l 663 867 z "},"Ẃ":{"ha":1290,"x_min":147,"x_max":1353,"o":"m 1353 975 l 911 0 l 843 0 l 731 876 l 308 0 l 240 0 l 147 975 l 217 975 l 293 92 l 715 975 l 788 975 l 893 92 l 1283 975 l 1353 975 m 1000 1210 l 697 1038 l 706 1089 l 1011 1271 l 1000 1210 z "},"ẃ":{"ha":1124,"x_min":90,"x_max":1165,"o":"m 1165 754 l 794 0 l 735 0 l 613 669 l 253 0 l 193 0 l 90 754 l 156 754 l 239 79 l 599 754 l 660 754 l 779 79 l 1101 754 l 1165 754 m 917 988 l 614 815 l 622 867 l 928 1049 l 917 988 z "},"Ẅ":{"ha":1290,"x_min":147,"x_max":1353,"o":"m 1353 975 l 911 0 l 843 0 l 731 876 l 308 0 l 240 0 l 147 975 l 217 975 l 293 92 l 715 975 l 788 975 l 893 92 l 1283 975 l 1353 975 m 631 1089 q 599 1101 611 1089 q 586 1133 586 1114 q 605 1176 586 1157 q 649 1194 624 1194 q 678 1182 667 1194 q 690 1151 690 1169 q 672 1108 690 1126 q 631 1089 654 1089 m 831 1089 q 799 1101 811 1089 q 786 1133 786 1114 q 805 1176 786 1157 q 849 1194 824 1194 q 879 1182 867 1194 q 892 1151 892 1169 q 873 1108 892 1126 q 831 1089 854 1089 z "},"ẅ":{"ha":1124,"x_min":90,"x_max":1165,"o":"m 1165 754 l 794 0 l 735 0 l 613 669 l 253 0 l 193 0 l 90 754 l 156 754 l 239 79 l 599 754 l 660 754 l 779 79 l 1101 754 l 1165 754 m 549 868 q 517 881 529 868 q 504 913 504 893 q 523 955 504 936 q 567 974 542 974 q 597 961 585 974 q 608 931 608 949 q 590 887 608 906 q 549 868 572 868 m 749 868 q 717 881 729 868 q 704 913 704 893 q 723 955 704 936 q 767 974 742 974 q 797 961 785 974 q 810 931 810 949 q 791 887 810 906 q 749 868 772 868 z "},"Ẽ":{"ha":682,"x_min":46,"x_max":711,"o":"m 272 924 l 200 514 l 589 514 l 579 464 l 192 464 l 118 51 l 549 51 l 539 0 l 46 0 l 219 975 l 711 975 l 701 924 l 272 924 m 292 1040 q 340 1122 307 1093 q 414 1151 372 1151 q 455 1142 439 1151 q 490 1115 471 1133 q 522 1091 508 1099 q 556 1083 535 1083 q 599 1100 579 1083 q 628 1147 619 1117 l 669 1147 q 622 1067 656 1097 q 546 1038 588 1038 q 503 1047 519 1038 q 465 1075 488 1056 q 433 1098 446 1090 q 403 1106 421 1106 q 333 1040 354 1106 l 292 1040 z "},"ẽ":{"ha":868,"x_min":65,"x_max":807,"o":"m 508 764 q 672 727 604 764 q 773 628 739 690 q 807 490 807 567 q 801 429 807 457 q 785 354 793 379 l 133 354 q 128 290 128 310 q 200 107 128 171 q 382 43 272 43 q 577 98 492 43 q 699 247 663 153 l 764 247 q 616 60 719 132 q 372 -11 513 -11 q 149 69 233 -11 q 65 289 65 150 q 74 378 65 332 q 157 583 94 496 q 310 717 219 671 q 508 764 401 764 m 735 403 q 744 485 744 443 q 674 653 744 594 q 497 711 604 711 q 344 676 418 711 q 217 572 271 642 q 142 403 163 503 l 735 403 m 357 840 q 405 922 372 893 q 479 951 438 951 q 520 942 504 951 q 556 915 536 933 q 587 891 574 899 q 621 883 600 883 q 665 900 644 883 q 693 947 685 917 l 735 947 q 687 867 721 897 q 611 838 653 838 q 569 847 585 838 q 531 875 553 856 q 499 898 511 890 q 468 906 486 906 q 399 840 419 906 l 357 840 z "},"Ỳ":{"ha":751,"x_min":140,"x_max":821,"o":"m 821 975 l 410 394 l 340 0 l 278 0 l 347 394 l 140 975 l 213 975 l 389 454 l 749 975 l 821 975 m 617 1067 l 608 1015 l 367 1188 l 378 1249 l 617 1067 z "},"ỳ":{"ha":728,"x_min":67,"x_max":769,"o":"m 158 754 l 321 78 l 703 754 l 769 754 l 135 -354 l 67 -354 l 271 1 l 90 754 l 158 754 m 569 867 l 561 815 l 319 988 l 331 1049 l 569 867 z "},"Ỹ":{"ha":751,"x_min":140,"x_max":821,"o":"m 821 975 l 410 394 l 340 0 l 278 0 l 347 394 l 140 975 l 213 975 l 389 454 l 749 975 l 821 975 m 335 1040 q 383 1122 350 1093 q 457 1151 415 1151 q 498 1142 482 1151 q 533 1115 514 1133 q 565 1091 551 1099 q 599 1083 578 1083 q 642 1100 622 1083 q 671 1147 663 1117 l 713 1147 q 665 1067 699 1097 q 589 1038 631 1038 q 547 1047 563 1038 q 508 1075 531 1056 q 476 1098 489 1090 q 446 1106 464 1106 q 376 1040 397 1106 l 335 1040 z "},"ỹ":{"ha":728,"x_min":67,"x_max":769,"o":"m 158 754 l 321 78 l 703 754 l 769 754 l 135 -354 l 67 -354 l 271 1 l 90 754 l 158 754 m 288 840 q 335 922 303 893 q 410 951 368 951 q 451 942 435 951 q 486 915 467 933 q 517 891 504 899 q 551 883 531 883 q 595 900 575 883 q 624 947 615 917 l 665 947 q 617 867 651 897 q 542 838 583 838 q 499 847 515 838 q 461 875 483 856 q 429 898 442 890 q 399 906 417 906 q 329 840 350 906 l 288 840 z "},"–":{"ha":854,"x_min":93,"x_max":811,"o":"m 811 549 l 801 494 l 93 494 l 103 549 l 811 549 z "},"—":{"ha":1121,"x_min":93,"x_max":1076,"o":"m 1076 549 l 1067 494 l 93 494 l 103 549 l 1076 549 z "},"‘":{"ha":239,"x_min":81,"x_max":288,"o":"m 160 690 l 81 690 l 239 975 l 288 975 l 160 690 z "},"’":{"ha":239,"x_min":104,"x_max":311,"o":"m 232 975 l 311 975 l 153 690 l 104 690 l 232 975 z "},"‚":{"ha":176,"x_min":-115,"x_max":90,"o":"m 13 136 l 90 136 l -68 -147 l -115 -147 l 13 136 z "},"“":{"ha":417,"x_min":81,"x_max":465,"o":"m 160 690 l 81 690 l 239 975 l 288 975 l 160 690 m 338 690 l 260 690 l 418 975 l 465 975 l 338 690 z "},"”":{"ha":417,"x_min":104,"x_max":489,"o":"m 232 975 l 311 975 l 153 690 l 104 690 l 232 975 m 411 975 l 489 975 l 331 690 l 283 690 l 411 975 z "},"„":{"ha":376,"x_min":-115,"x_max":290,"o":"m 13 136 l 90 136 l -68 -147 l -115 -147 l 13 136 m 211 136 l 290 136 l 132 -147 l 83 -147 l 211 136 z "},"†":{"ha":653,"x_min":104,"x_max":669,"o":"m 660 701 l 408 707 l 228 -356 l 167 -356 l 360 707 l 104 701 l 114 754 l 367 747 l 419 1078 l 479 1078 l 415 747 l 669 754 l 660 701 z "},"‡":{"ha":654,"x_min":-24,"x_max":671,"o":"m 410 707 l 288 15 l 543 24 l 532 -31 l 279 -25 l 228 -356 l 167 -356 l 231 -25 l -24 -31 l -14 24 l 239 15 l 361 707 l 106 701 l 115 754 l 368 747 l 419 1078 l 479 1078 l 417 747 l 671 754 l 661 701 l 410 707 z "},"•":{"ha":432,"x_min":79,"x_max":381,"o":"m 203 315 q 114 349 149 315 q 79 436 79 383 q 104 523 79 482 q 170 588 129 564 q 256 613 211 613 q 345 578 310 613 q 381 490 381 543 q 356 404 381 444 q 290 340 332 364 q 203 315 249 315 z "},"…":{"ha":647,"x_min":-10,"x_max":544,"o":"m 257 -4 q 225 8 238 -4 q 213 39 213 19 q 232 85 213 67 q 278 104 251 104 q 310 92 297 104 q 322 61 322 81 q 303 15 322 33 q 257 -4 283 -4 m 479 -4 q 447 8 460 -4 q 435 39 435 19 q 454 85 435 67 q 500 104 474 104 q 532 92 519 104 q 544 61 544 81 q 525 15 544 33 q 479 -4 506 -4 m 35 -4 q 3 8 15 -4 q -10 39 -10 19 q 10 85 -10 67 q 56 104 29 104 q 88 92 75 104 q 100 61 100 81 q 81 15 100 33 q 35 -4 61 -4 z "},"‰":{"ha":1238,"x_min":13,"x_max":1149,"o":"m 126 760 q 157 875 126 824 q 238 956 188 926 q 349 986 289 986 q 460 944 418 986 q 503 835 503 903 q 472 719 503 771 q 391 639 442 668 q 281 610 340 610 q 169 651 211 610 q 126 760 126 692 m 829 975 l 78 0 l 13 0 l 764 975 l 829 975 m 340 942 q 226 892 274 942 q 179 764 179 842 q 208 683 179 713 q 289 653 238 653 q 403 703 356 653 q 450 831 450 754 q 421 912 450 882 q 340 942 392 942 m 340 139 q 370 255 340 203 q 451 336 400 307 q 561 365 501 365 q 674 324 631 365 q 717 214 717 282 q 714 176 717 189 q 638 40 700 93 q 496 -12 575 -12 q 383 29 425 -12 q 340 139 340 71 m 774 176 q 850 313 788 260 q 992 365 913 365 q 1106 324 1063 365 q 1149 214 1149 282 q 1146 176 1149 189 q 1069 40 1132 93 q 926 -12 1007 -12 q 814 29 857 -12 q 771 139 771 71 q 774 176 771 164 m 553 321 q 451 281 494 321 q 396 176 407 242 q 392 142 392 158 q 422 61 392 90 q 503 32 451 32 q 605 72 561 32 q 661 176 649 111 q 664 208 664 199 q 634 291 664 261 q 553 321 604 321 m 985 321 q 870 271 917 321 q 824 142 824 221 q 853 61 824 90 q 933 32 883 32 q 1037 72 993 32 q 1092 176 1081 111 q 1094 210 1094 199 q 1065 291 1094 261 q 985 321 1036 321 z "},"‹":{"ha":343,"x_min":67,"x_max":321,"o":"m 168 167 l 67 410 l 253 653 l 321 653 l 131 410 l 236 167 l 168 167 z "},"›":{"ha":343,"x_min":32,"x_max":285,"o":"m 221 410 l 117 653 l 185 653 l 285 410 l 100 167 l 32 167 l 221 410 z "},"⁄":{"ha":428,"x_min":-172,"x_max":646,"o":"m 646 975 l -106 0 l -172 0 l 581 975 l 646 975 z "},"€":{"ha":1150,"x_min":22,"x_max":1132,"o":"m 729 928 q 467 844 586 928 q 286 614 347 761 l 674 614 l 667 567 l 268 567 q 249 486 260 542 q 240 389 240 435 l 635 389 l 626 342 l 242 342 q 346 126 256 204 q 572 47 436 47 q 820 112 713 47 q 990 286 928 176 l 1061 286 q 856 69 985 147 q 563 -10 728 -10 q 369 34 454 -10 q 235 157 285 78 q 176 342 185 236 l 22 342 l 31 389 l 175 389 q 185 486 175 428 q 204 567 194 538 l 63 567 l 69 614 l 221 614 q 344 809 265 725 q 524 939 422 893 q 739 985 626 985 q 1004 907 904 985 q 1132 689 1104 829 l 1061 689 q 953 863 1038 799 q 729 928 869 928 z "},"₺":{"ha":1099,"x_min":54,"x_max":1015,"o":"m 1015 547 q 422 -32 914 -32 q 256 -11 342 -32 l 319 350 l 54 281 l 63 331 l 328 400 l 360 582 l 93 511 l 101 560 l 368 632 l 429 976 l 493 976 l 435 649 l 733 729 l 725 679 l 426 600 l 394 417 l 690 494 l 682 444 l 385 367 l 326 36 q 432 26 376 26 q 953 547 860 26 l 1015 547 z "},"₽":{"ha":835,"x_min":44,"x_max":842,"o":"m 565 975 q 774 919 706 975 q 842 763 842 863 q 836 700 842 729 q 720 499 814 571 q 468 428 626 428 l 260 428 l 231 257 l 583 257 l 575 204 l 221 204 l 185 0 l 122 0 l 158 204 l 44 204 l 54 257 l 168 257 l 197 428 l 83 428 l 93 482 l 207 482 l 294 975 l 565 975 m 772 700 q 778 757 778 728 q 556 921 778 921 l 347 921 l 269 482 l 478 482 q 772 700 736 482 z "},"ℓ":{"ha":292,"x_min":46,"x_max":290,"o":"m 290 1028 l 108 0 l 46 0 l 228 1028 l 290 1028 z "},"™":{"ha":1001,"x_min":136,"x_max":1044,"o":"m 461 932 l 326 932 l 247 489 l 194 489 l 274 932 l 136 932 l 144 978 l 469 978 l 461 932 m 1044 978 l 957 489 l 906 489 l 976 886 l 726 489 l 685 489 l 578 885 l 506 489 l 456 489 l 543 978 l 606 978 l 719 554 l 983 978 l 1044 978 z "},"Ω":{"ha":1100,"x_min":19,"x_max":1061,"o":"m 1053 488 q 931 216 1025 335 q 700 51 838 97 l 951 51 l 942 0 l 557 0 l 567 57 q 759 127 671 71 q 908 276 847 183 q 989 485 968 368 q 997 578 997 533 q 953 763 997 683 q 828 885 908 842 q 646 928 749 928 q 420 872 526 928 q 240 714 314 815 q 144 485 167 613 q 136 394 136 438 q 212 164 136 254 q 415 57 288 74 l 406 0 l 19 0 l 31 51 l 282 51 q 128 178 182 89 q 74 388 74 268 q 83 488 74 426 q 193 745 108 632 q 399 922 278 858 q 656 985 521 985 q 866 935 774 985 q 1010 795 958 886 q 1061 586 1061 704 q 1053 488 1061 538 z "},"℮":{"ha":1067,"x_min":78,"x_max":1024,"o":"m 919 192 q 476 -10 697 -10 q 267 33 357 -10 q 128 156 178 75 q 78 353 78 238 q 88 456 78 406 q 187 713 113 597 q 376 895 261 828 q 635 963 492 963 q 847 913 760 963 q 979 781 935 864 q 1024 599 1024 699 q 1017 517 1024 551 l 1001 433 l 226 433 l 186 208 q 302 83 232 124 q 486 43 372 43 q 678 90 588 43 q 886 235 768 136 l 919 192 m 897 756 q 792 868 863 828 q 625 908 722 908 q 436 866 525 908 q 281 738 347 824 l 239 503 l 853 503 l 897 756 z "},"∂":{"ha":757,"x_min":32,"x_max":749,"o":"m 40 289 q 126 522 63 411 q 283 701 189 632 q 488 769 378 769 q 667 578 667 769 q 665 542 667 554 q 689 743 689 656 q 496 985 689 985 q 378 967 447 985 l 385 1011 q 510 1028 446 1028 q 687 957 625 1028 q 749 740 749 886 q 733 579 749 661 q 628 265 701 400 q 452 58 554 131 q 236 -15 350 -15 q 88 41 144 -15 q 32 206 32 97 q 40 289 32 243 m 632 460 q 640 544 640 508 q 479 715 640 715 q 315 659 393 715 q 181 506 236 603 q 104 289 125 408 q 97 215 97 244 q 140 84 97 128 q 251 40 182 40 q 422 98 342 40 q 558 252 503 156 q 632 460 613 349 z "},"∆":{"ha":901,"x_min":-40,"x_max":815,"o":"m 578 953 l 815 51 l 806 0 l -40 0 l -31 51 l 524 953 l 578 953 m 32 51 l 753 51 l 536 882 l 32 51 z "}}}
